{"glyphs":{"0":{"ha":1218,"x_min":75,"x_max":1143,"o":"m 610 -18 q 323 49 443 -18 q 139 238 203 117 q 75 521 75 358 q 139 804 75 683 q 323 992 203 925 q 610 1060 443 1060 q 896 992 776 1060 q 1079 804 1015 925 q 1143 521 1143 683 q 1079 238 1143 360 q 896 49 1015 117 q 610 -18 776 -18 m 610 93 q 904 206 799 93 q 1010 521 1010 318 q 904 837 1010 724 q 610 950 799 950 q 314 837 419 950 q 208 521 208 724 q 314 206 208 318 q 610 93 419 93 z "},"1":{"ha":617,"x_min":7,"x_max":485,"o":"m 485 1042 l 485 0 l 354 0 l 354 1010 l 436 939 l 7 863 l 7 969 l 386 1042 l 485 1042 z "},"2":{"ha":1065,"x_min":64,"x_max":1007,"o":"m 64 692 q 135 885 72 803 q 303 1014 199 968 q 542 1060 408 1060 q 767 1019 671 1060 q 918 906 864 979 q 972 735 972 832 q 937 595 972 660 q 819 463 901 531 q 594 307 736 394 l 215 71 l 199 111 l 1007 111 l 1007 0 l 68 0 l 68 100 l 508 378 q 703 513 631 456 q 808 622 776 571 q 840 731 840 674 q 805 845 840 796 q 702 922 769 894 q 539 950 635 950 q 353 916 428 950 q 241 824 279 882 q 196 692 203 765 l 64 692 z "},"3":{"ha":1092,"x_min":56,"x_max":1014,"o":"m 86 729 q 156 899 97 824 q 319 1017 215 974 q 567 1060 424 1060 q 792 1025 697 1060 q 938 928 886 990 q 990 781 990 865 q 947 651 990 708 q 821 560 904 593 q 617 526 738 526 l 617 551 q 829 526 740 556 q 966 438 918 496 q 1014 299 1014 381 q 960 134 1014 206 q 802 22 906 63 q 549 -18 699 -18 q 294 25 403 -18 q 125 146 186 68 q 56 326 64 224 l 188 326 q 294 153 201 215 q 549 92 386 92 q 795 148 710 92 q 881 306 881 204 q 851 404 881 364 q 757 466 822 444 q 586 488 692 488 l 392 488 l 392 589 l 586 589 q 791 640 725 589 q 857 765 857 690 q 779 903 857 856 q 560 950 701 950 q 324 892 414 950 q 218 729 235 835 l 86 729 z "},"4":{"ha":1071,"x_min":32,"x_max":1039,"o":"m 836 1042 l 836 0 l 706 0 l 706 990 l 768 990 l 144 293 l 143 342 l 1039 342 l 1039 233 l 32 233 l 32 329 l 671 1042 l 836 1042 z "},"5":{"ha":1051,"x_min":50,"x_max":993,"o":"m 176 1042 l 910 1042 l 910 933 l 224 933 l 278 974 l 219 503 l 175 501 q 267 594 210 551 q 403 663 325 636 q 574 689 481 689 q 804 642 711 689 q 945 515 897 594 q 993 338 993 436 q 936 153 993 233 q 776 28 879 74 q 535 -18 674 -18 q 290 24 393 -18 q 127 139 188 67 q 50 301 67 211 l 182 301 q 295 149 204 206 q 535 92 386 92 q 706 122 633 92 q 820 208 779 153 q 861 338 861 263 q 825 466 861 411 q 722 551 789 521 q 557 582 654 582 q 404 559 472 582 q 286 501 336 536 q 204 428 236 467 l 101 428 l 176 1042 z "},"6":{"ha":1122,"x_min":76,"x_max":1054,"o":"m 593 1060 q 801 1024 710 1060 q 952 927 893 989 q 1026 783 1011 865 l 897 783 q 798 903 871 856 q 594 950 725 950 q 377 898 464 950 q 248 750 290 846 q 206 524 206 654 q 251 294 206 392 q 384 145 296 197 q 601 93 472 93 q 774 123 703 93 q 883 208 846 153 q 921 333 921 263 q 887 452 921 401 q 788 531 853 503 q 631 558 722 558 q 381 490 490 558 q 196 310 272 421 l 136 356 q 262 517 188 446 q 433 628 336 588 q 649 669 531 669 q 860 629 769 669 q 1003 515 951 589 q 1054 336 1054 440 q 997 151 1054 231 q 839 26 940 71 q 601 -18 738 -18 q 316 51 433 -18 q 138 241 199 119 q 76 521 76 363 q 136 802 76 681 q 312 992 196 924 q 593 1060 428 1060 z "},"7":{"ha":938,"x_min":4,"x_max":900,"o":"m 193 0 l 781 968 l 779 931 l 4 931 l 4 1042 l 900 1042 l 900 935 l 333 0 l 193 0 z "},"8":{"ha":1157,"x_min":72,"x_max":1085,"o":"m 579 1060 q 920 987 799 1060 q 1042 782 1042 914 q 928 591 1042 660 q 608 525 814 522 l 608 554 q 960 494 836 565 q 1085 285 1085 424 q 953 62 1085 142 q 579 -18 821 -18 q 205 62 338 -18 q 72 285 72 142 q 197 495 72 424 q 549 554 322 567 l 549 525 q 231 591 346 522 q 117 782 117 660 q 238 987 117 914 q 579 1060 360 1060 m 579 90 q 856 142 758 90 q 954 290 954 194 q 858 437 954 389 q 579 485 761 485 q 300 436 396 485 q 204 290 204 388 q 302 142 204 194 q 579 90 400 90 m 579 592 q 756 613 681 592 q 871 674 831 633 q 911 775 911 715 q 824 906 911 858 q 579 953 736 953 q 335 906 422 953 q 247 775 247 858 q 288 674 247 715 q 402 613 328 633 q 579 592 476 592 z "},"9":{"ha":1122,"x_min":69,"x_max":1047,"o":"m 531 -18 q 322 17 414 -18 q 171 116 229 53 q 96 258 113 179 l 225 258 q 325 140 251 186 q 528 93 399 93 q 747 145 661 93 q 876 293 833 197 q 918 518 918 389 q 872 748 918 651 q 738 897 826 844 q 522 950 650 950 q 349 919 421 950 q 240 835 278 889 q 201 710 201 782 q 236 591 201 642 q 336 512 271 540 q 493 483 401 483 q 742 553 633 483 q 928 732 851 622 l 986 688 q 863 525 938 596 q 690 414 788 454 q 475 374 593 374 q 263 414 354 374 q 120 529 171 454 q 69 707 69 604 q 126 892 69 813 q 284 1015 182 971 q 522 1060 386 1060 q 808 992 690 1060 q 986 802 925 924 q 1047 521 1047 681 q 987 241 1047 363 q 811 51 926 119 q 531 -18 696 -18 z "},"A":{"ha":1210,"x_min":15,"x_max":1194,"o":"m 233 258 l 233 369 l 967 369 l 967 258 l 233 258 m 682 1042 l 1194 0 l 1053 0 l 571 997 l 640 997 l 157 0 l 15 0 l 528 1042 l 682 1042 z "},"Á":{"ha":1210,"x_min":15,"x_max":1194,"o":"m 233 258 l 233 369 l 967 369 l 967 258 l 233 258 m 682 1042 l 1194 0 l 1053 0 l 571 997 l 640 997 l 157 0 l 15 0 l 528 1042 l 682 1042 m 704 1331 l 863 1331 l 642 1131 l 503 1131 l 704 1331 z "},"Ă":{"ha":1210,"x_min":15,"x_max":1194,"o":"m 233 258 l 233 369 l 967 369 l 967 258 l 233 258 m 682 1042 l 1194 0 l 1053 0 l 571 997 l 640 997 l 157 0 l 15 0 l 528 1042 l 682 1042 m 333 1332 l 440 1332 q 497 1246 456 1276 q 604 1215 538 1215 q 713 1246 672 1215 q 769 1332 754 1276 l 876 1332 q 783 1178 856 1232 q 604 1125 711 1125 q 426 1178 499 1125 q 333 1332 354 1232 z "},"Ắ":{"ha":1210,"x_min":15,"x_max":1194,"o":"m 233 258 l 233 369 l 967 369 l 967 258 l 233 258 m 682 1042 l 1194 0 l 1053 0 l 571 997 l 640 997 l 157 0 l 15 0 l 528 1042 l 682 1042 m 651 1515 l 785 1515 l 651 1339 l 543 1339 l 651 1515 m 333 1332 l 442 1332 q 497 1246 457 1276 q 606 1215 538 1215 q 713 1246 672 1215 q 769 1332 754 1276 l 878 1332 q 783 1178 856 1232 q 606 1125 711 1125 q 427 1178 500 1125 q 333 1332 354 1232 z "},"Ặ":{"ha":1210,"x_min":15,"x_max":1194,"o":"m 233 258 l 233 369 l 967 369 l 967 258 l 233 258 m 682 1042 l 1194 0 l 1053 0 l 571 997 l 640 997 l 157 0 l 15 0 l 528 1042 l 682 1042 m 604 -257 q 538 -233 565 -257 q 511 -171 511 -208 q 538 -110 511 -135 q 604 -86 565 -86 q 672 -110 646 -86 q 699 -171 699 -135 q 672 -233 699 -208 q 604 -257 646 -257 m 333 1332 l 440 1332 q 497 1246 456 1276 q 604 1215 538 1215 q 713 1246 672 1215 q 769 1332 754 1276 l 876 1332 q 783 1178 856 1232 q 604 1125 711 1125 q 426 1178 499 1125 q 333 1332 354 1232 z "},"Ằ":{"ha":1210,"x_min":15,"x_max":1194,"o":"m 233 258 l 233 369 l 967 369 l 967 258 l 233 258 m 682 1042 l 1194 0 l 1053 0 l 571 997 l 640 997 l 157 0 l 15 0 l 528 1042 l 682 1042 m 550 1515 l 658 1339 l 550 1339 l 418 1515 l 550 1515 m 333 1332 l 442 1332 q 497 1246 457 1276 q 606 1215 538 1215 q 713 1246 672 1215 q 769 1332 754 1276 l 878 1332 q 783 1178 856 1232 q 606 1125 711 1125 q 427 1178 500 1125 q 333 1332 354 1232 z "},"Ẳ":{"ha":1210,"x_min":15,"x_max":1194,"o":"m 233 258 l 233 369 l 967 369 l 967 258 l 233 258 m 682 1042 l 1194 0 l 1053 0 l 571 997 l 640 997 l 157 0 l 15 0 l 528 1042 l 682 1042 m 585 1319 l 551 1372 q 626 1406 604 1389 q 647 1443 647 1424 q 556 1493 647 1493 q 513 1490 535 1493 q 471 1482 490 1488 l 471 1564 q 519 1574 490 1569 q 581 1578 549 1578 q 710 1547 664 1578 q 757 1458 757 1515 q 716 1376 757 1410 q 585 1319 675 1342 m 333 1332 l 442 1332 q 497 1246 457 1276 q 606 1215 538 1215 q 713 1246 672 1215 q 769 1332 754 1276 l 878 1332 q 783 1178 856 1232 q 606 1125 711 1125 q 427 1178 500 1125 q 333 1332 354 1232 z "},"Ẵ":{"ha":1210,"x_min":15,"x_max":1194,"o":"m 233 258 l 233 369 l 967 369 l 967 258 l 233 258 m 682 1042 l 1194 0 l 1053 0 l 571 997 l 640 997 l 157 0 l 15 0 l 528 1042 l 682 1042 m 351 1376 q 396 1506 357 1457 q 499 1556 435 1556 q 562 1543 533 1556 q 615 1514 590 1531 q 661 1485 639 1497 q 704 1472 683 1472 q 746 1494 728 1472 q 769 1556 764 1515 l 860 1556 q 816 1425 854 1474 q 713 1376 778 1376 q 649 1389 678 1376 q 595 1417 619 1401 q 549 1447 571 1433 q 507 1460 528 1460 q 465 1438 482 1460 q 440 1376 447 1415 l 351 1376 m 333 1332 l 442 1332 q 497 1246 457 1276 q 606 1215 538 1215 q 713 1246 672 1215 q 769 1332 754 1276 l 878 1332 q 783 1178 856 1232 q 606 1125 711 1125 q 427 1178 500 1125 q 333 1332 354 1232 z "},"Ǎ":{"ha":1210,"x_min":15,"x_max":1194,"o":"m 233 258 l 233 369 l 967 369 l 967 258 l 233 258 m 682 1042 l 1194 0 l 1053 0 l 571 997 l 640 997 l 157 0 l 15 0 l 528 1042 l 682 1042 m 679 1131 l 531 1131 l 329 1331 l 453 1331 l 631 1186 l 581 1186 l 757 1331 l 881 1331 l 679 1131 z "},"Â":{"ha":1210,"x_min":15,"x_max":1194,"o":"m 233 258 l 233 369 l 967 369 l 967 258 l 233 258 m 682 1042 l 1194 0 l 1053 0 l 571 997 l 640 997 l 157 0 l 15 0 l 528 1042 l 682 1042 m 531 1331 l 679 1331 l 882 1131 l 757 1131 l 581 1275 l 631 1275 l 453 1131 l 329 1131 l 531 1331 z "},"Ấ":{"ha":1210,"x_min":15,"x_max":1194,"o":"m 233 258 l 233 369 l 967 369 l 967 258 l 233 258 m 682 1042 l 1194 0 l 1053 0 l 571 997 l 640 997 l 157 0 l 15 0 l 528 1042 l 682 1042 m 874 1472 l 1006 1472 l 874 1296 l 765 1296 l 874 1472 m 531 1331 l 679 1331 l 882 1131 l 757 1131 l 581 1275 l 631 1275 l 453 1131 l 329 1131 l 531 1331 z "},"Ậ":{"ha":1210,"x_min":15,"x_max":1194,"o":"m 233 258 l 233 369 l 967 369 l 967 258 l 233 258 m 682 1042 l 1194 0 l 1053 0 l 571 997 l 640 997 l 157 0 l 15 0 l 528 1042 l 682 1042 m 604 -257 q 538 -233 565 -257 q 511 -171 511 -208 q 538 -110 511 -135 q 604 -86 565 -86 q 672 -110 646 -86 q 699 -171 699 -135 q 672 -233 699 -208 q 604 -257 646 -257 m 531 1331 l 679 1331 l 882 1131 l 757 1131 l 581 1275 l 631 1275 l 453 1131 l 329 1131 l 531 1331 z "},"Ầ":{"ha":1210,"x_min":15,"x_max":1194,"o":"m 233 258 l 233 369 l 967 369 l 967 258 l 233 258 m 682 1042 l 1194 0 l 1053 0 l 571 997 l 640 997 l 157 0 l 15 0 l 528 1042 l 682 1042 m 793 1472 l 901 1296 l 793 1296 l 661 1472 l 793 1472 m 531 1331 l 679 1331 l 882 1131 l 757 1131 l 581 1275 l 631 1275 l 453 1131 l 329 1131 l 531 1331 z "},"Ẩ":{"ha":1210,"x_min":15,"x_max":1194,"o":"m 233 258 l 233 369 l 967 369 l 967 258 l 233 258 m 682 1042 l 1194 0 l 1053 0 l 571 997 l 640 997 l 157 0 l 15 0 l 528 1042 l 682 1042 m 833 1268 l 800 1319 q 874 1354 853 1336 q 896 1392 896 1372 q 804 1442 896 1442 q 761 1438 783 1442 q 719 1431 739 1435 l 719 1511 q 768 1522 739 1518 q 829 1526 797 1526 q 959 1494 913 1526 q 1006 1406 1006 1463 q 965 1324 1006 1358 q 833 1268 924 1289 m 531 1331 l 679 1331 l 882 1131 l 757 1131 l 581 1275 l 631 1275 l 453 1131 l 329 1131 l 531 1331 z "},"Ẫ":{"ha":1210,"x_min":15,"x_max":1194,"o":"m 233 258 l 233 369 l 967 369 l 967 258 l 233 258 m 682 1042 l 1194 0 l 1053 0 l 571 997 l 640 997 l 157 0 l 15 0 l 528 1042 l 682 1042 m 346 1375 q 390 1506 351 1456 q 493 1556 429 1556 q 557 1542 528 1556 q 610 1513 586 1529 q 656 1484 635 1497 q 699 1471 678 1471 q 742 1493 724 1471 q 765 1554 760 1515 l 854 1554 q 810 1424 849 1474 q 707 1375 772 1375 q 644 1388 672 1375 q 591 1417 615 1401 q 544 1446 567 1433 q 501 1458 522 1458 q 460 1437 478 1458 q 436 1375 443 1415 l 346 1375 m 531 1331 l 679 1331 l 882 1131 l 757 1131 l 581 1275 l 631 1275 l 453 1131 l 329 1131 l 531 1331 z "},"Ȁ":{"ha":1210,"x_min":15,"x_max":1194,"o":"m 233 258 l 233 369 l 967 369 l 967 258 l 233 258 m 682 1042 l 1194 0 l 1053 0 l 571 997 l 640 997 l 157 0 l 15 0 l 528 1042 l 682 1042 m 649 1331 l 814 1131 l 688 1131 l 513 1331 l 649 1331 m 375 1331 l 540 1131 l 413 1131 l 238 1331 l 375 1331 z "},"Ä":{"ha":1210,"x_min":15,"x_max":1194,"o":"m 233 258 l 233 369 l 967 369 l 967 258 l 233 258 m 682 1042 l 1194 0 l 1053 0 l 571 997 l 640 997 l 157 0 l 15 0 l 528 1042 l 682 1042 m 399 1160 q 334 1184 360 1160 q 308 1244 308 1208 q 334 1304 308 1281 q 399 1328 360 1328 q 465 1304 439 1328 q 490 1244 490 1281 q 465 1184 490 1208 q 399 1160 439 1160 m 813 1160 q 747 1184 772 1160 q 721 1244 721 1208 q 747 1304 721 1281 q 813 1328 772 1328 q 877 1304 851 1328 q 903 1244 903 1281 q 877 1184 903 1208 q 813 1160 851 1160 z "},"Ǟ":{"ha":1210,"x_min":15,"x_max":1194,"o":"m 233 258 l 233 369 l 967 369 l 967 258 l 233 258 m 682 1042 l 1194 0 l 1053 0 l 571 997 l 640 997 l 157 0 l 15 0 l 528 1042 l 682 1042 m 399 1160 q 334 1184 360 1160 q 308 1244 308 1208 q 334 1304 308 1281 q 399 1328 360 1328 q 465 1304 439 1328 q 490 1244 490 1281 q 465 1184 490 1208 q 399 1160 439 1160 m 813 1160 q 747 1184 772 1160 q 721 1244 721 1208 q 747 1304 721 1281 q 813 1328 772 1328 q 877 1304 851 1328 q 903 1244 903 1281 q 877 1184 903 1208 q 813 1160 851 1160 m 321 1417 l 321 1510 l 890 1510 l 890 1417 l 321 1417 z "},"Ȧ":{"ha":1210,"x_min":15,"x_max":1194,"o":"m 233 258 l 233 369 l 967 369 l 967 258 l 233 258 m 682 1042 l 1194 0 l 1053 0 l 571 997 l 640 997 l 157 0 l 15 0 l 528 1042 l 682 1042 m 604 1160 q 538 1184 565 1160 q 511 1246 511 1208 q 538 1307 511 1282 q 604 1332 565 1332 q 672 1307 646 1332 q 699 1246 699 1282 q 672 1184 699 1208 q 604 1160 646 1160 z "},"Ạ":{"ha":1210,"x_min":15,"x_max":1194,"o":"m 233 258 l 233 369 l 967 369 l 967 258 l 233 258 m 682 1042 l 1194 0 l 1053 0 l 571 997 l 640 997 l 157 0 l 15 0 l 528 1042 l 682 1042 m 604 -257 q 538 -233 565 -257 q 511 -171 511 -208 q 538 -110 511 -135 q 604 -86 565 -86 q 672 -110 646 -86 q 699 -171 699 -135 q 672 -233 699 -208 q 604 -257 646 -257 z "},"Ǡ":{"ha":1210,"x_min":15,"x_max":1194,"o":"m 233 258 l 233 369 l 967 369 l 967 258 l 233 258 m 682 1042 l 1194 0 l 1053 0 l 571 997 l 640 997 l 157 0 l 15 0 l 528 1042 l 682 1042 m 606 1160 q 540 1184 567 1160 q 513 1246 513 1208 q 540 1307 513 1282 q 606 1332 567 1332 q 674 1307 647 1332 q 700 1246 700 1282 q 674 1184 700 1208 q 606 1160 647 1160 m 321 1417 l 321 1510 l 890 1510 l 890 1417 l 321 1417 z "},"À":{"ha":1210,"x_min":15,"x_max":1194,"o":"m 233 258 l 233 369 l 967 369 l 967 258 l 233 258 m 682 1042 l 1194 0 l 1053 0 l 571 997 l 640 997 l 157 0 l 15 0 l 528 1042 l 682 1042 m 488 1331 l 689 1131 l 550 1131 l 329 1331 l 488 1331 z "},"Ả":{"ha":1210,"x_min":15,"x_max":1194,"o":"m 233 258 l 233 369 l 967 369 l 967 258 l 233 258 m 682 1042 l 1194 0 l 1053 0 l 571 997 l 640 997 l 157 0 l 15 0 l 528 1042 l 682 1042 m 565 1111 l 531 1174 q 629 1203 597 1185 q 661 1244 661 1221 q 635 1277 661 1267 q 563 1288 610 1288 q 499 1283 528 1288 q 440 1271 469 1278 l 440 1357 q 503 1370 465 1364 q 583 1376 540 1376 q 726 1346 675 1376 q 776 1257 776 1315 q 726 1166 776 1203 q 565 1111 675 1129 z "},"Ȃ":{"ha":1210,"x_min":15,"x_max":1194,"o":"m 233 258 l 233 369 l 967 369 l 967 258 l 233 258 m 682 1042 l 1194 0 l 1053 0 l 571 997 l 640 997 l 157 0 l 15 0 l 528 1042 l 682 1042 m 876 1129 l 769 1129 q 713 1214 754 1183 q 606 1244 672 1244 q 497 1214 538 1244 q 440 1129 456 1183 l 333 1129 q 427 1281 354 1228 q 606 1335 500 1335 q 783 1281 711 1335 q 876 1129 856 1228 z "},"Ɑ":{"ha":1336,"x_min":69,"x_max":1232,"o":"m 1106 0 l 1074 397 l 1104 522 l 1074 649 l 1106 1042 l 1232 1042 l 1183 522 l 1232 0 l 1106 0 m 1147 522 q 1029 238 1108 360 q 838 49 950 117 q 582 -18 725 -18 q 314 50 429 -18 q 134 240 199 118 q 69 521 69 361 q 134 803 69 682 q 314 992 199 924 q 582 1060 429 1060 q 838 994 725 1060 q 1029 807 950 928 q 1147 522 1108 686 m 203 522 q 253 303 203 399 q 394 153 304 207 q 604 99 485 99 q 806 153 715 99 q 966 302 897 207 q 1082 522 1035 397 q 967 742 1035 647 q 808 890 899 836 q 604 943 717 943 q 395 890 486 943 q 253 742 304 836 q 203 522 203 647 z "},"Ɒ":{"ha":1336,"x_min":104,"x_max":1267,"o":"m 231 0 l 104 0 l 153 522 l 104 1042 l 231 1042 l 263 649 l 232 522 l 263 397 l 231 0 m 189 522 q 308 807 229 686 q 499 994 386 928 q 754 1060 613 1060 q 1022 992 907 1060 q 1202 803 1138 924 q 1267 521 1267 682 q 1202 240 1267 361 q 1022 50 1138 118 q 754 -18 907 -18 q 499 49 611 -18 q 308 238 386 117 q 189 522 229 360 m 1133 522 q 1083 742 1133 647 q 942 890 1032 836 q 732 943 851 943 q 528 890 619 943 q 369 742 438 836 q 254 522 301 647 q 370 302 301 397 q 530 153 439 207 q 732 99 621 99 q 942 153 851 99 q 1083 303 1032 207 q 1133 522 1133 399 z "},"Ā":{"ha":1210,"x_min":15,"x_max":1194,"o":"m 233 258 l 233 369 l 967 369 l 967 258 l 233 258 m 682 1042 l 1194 0 l 1053 0 l 571 997 l 640 997 l 157 0 l 15 0 l 528 1042 l 682 1042 m 321 1175 l 321 1268 l 890 1268 l 890 1175 l 321 1175 z "},"Ą":{"ha":1210,"x_min":15,"x_max":1194,"o":"m 233 258 l 233 369 l 967 369 l 967 258 l 233 258 m 682 1042 l 1194 0 l 1053 0 l 571 997 l 640 997 l 157 0 l 15 0 l 528 1042 l 682 1042 m 1101 22 l 1164 18 l 1164 0 l 1194 0 q 1100 -35 1143 -17 q 1032 -75 1057 -54 q 1007 -119 1007 -96 q 1108 -169 1007 -169 q 1153 -167 1129 -169 q 1194 -161 1176 -165 l 1194 -247 q 1145 -258 1176 -253 q 1081 -262 1114 -262 q 949 -230 999 -262 q 899 -143 899 -197 q 947 -51 899 -93 q 1101 22 994 -10 z "},"Å":{"ha":1210,"x_min":15,"x_max":1194,"o":"m 233 258 l 233 369 l 967 369 l 967 258 l 233 258 m 682 1042 l 1194 0 l 1053 0 l 571 997 l 640 997 l 157 0 l 15 0 l 528 1042 l 682 1042 m 606 1115 q 458 1155 513 1115 q 404 1260 404 1194 q 458 1367 404 1328 q 606 1407 513 1407 q 753 1367 700 1407 q 807 1260 807 1328 q 753 1155 807 1194 q 606 1115 700 1115 m 606 1189 q 692 1208 663 1189 q 722 1261 722 1226 q 692 1315 722 1296 q 606 1333 663 1333 q 519 1315 549 1333 q 490 1260 490 1296 q 519 1208 490 1226 q 606 1189 549 1189 z "},"Ǻ":{"ha":1210,"x_min":15,"x_max":1194,"o":"m 647 1593 l 779 1593 l 651 1386 l 546 1386 l 647 1593 m 233 258 l 233 369 l 967 369 l 967 258 l 233 258 m 682 1042 l 1194 0 l 1053 0 l 571 997 l 640 997 l 157 0 l 15 0 l 528 1042 l 682 1042 m 606 1115 q 458 1155 513 1115 q 404 1261 404 1194 q 458 1367 404 1328 q 606 1407 513 1407 q 753 1367 699 1407 q 807 1261 807 1328 q 753 1155 807 1194 q 606 1115 699 1115 m 606 1189 q 692 1208 663 1189 q 721 1261 721 1226 q 692 1315 721 1296 q 606 1333 663 1333 q 519 1315 549 1333 q 489 1261 489 1296 q 519 1208 489 1226 q 606 1189 549 1189 z "},"Ḁ":{"ha":1210,"x_min":15,"x_max":1194,"o":"m 233 258 l 233 369 l 967 369 l 967 258 l 233 258 m 682 1042 l 1194 0 l 1053 0 l 571 997 l 640 997 l 157 0 l 15 0 l 528 1042 l 682 1042 m 604 -374 q 460 -331 514 -374 q 407 -215 407 -287 q 460 -101 407 -144 q 606 -58 514 -58 q 750 -101 697 -58 q 803 -215 803 -144 q 750 -331 803 -287 q 604 -374 697 -374 m 606 -300 q 688 -278 658 -300 q 718 -215 718 -256 q 688 -153 718 -175 q 606 -131 658 -131 q 522 -153 551 -131 q 493 -217 493 -175 q 522 -278 493 -256 q 606 -300 551 -300 z "},"Ⱥ":{"ha":1211,"x_min":15,"x_max":1196,"o":"m 878 1211 l 989 1211 l 406 -169 l 294 -169 l 878 1211 m 233 258 l 233 369 l 967 369 l 967 258 l 233 258 m 682 1042 l 1196 0 l 1054 0 l 571 997 l 640 997 l 157 0 l 15 0 l 529 1042 l 682 1042 z "},"Ã":{"ha":1210,"x_min":15,"x_max":1194,"o":"m 233 258 l 233 369 l 967 369 l 967 258 l 233 258 m 682 1042 l 1194 0 l 1053 0 l 571 997 l 640 997 l 157 0 l 15 0 l 528 1042 l 682 1042 m 300 1142 q 351 1272 307 1222 q 471 1322 394 1322 q 544 1309 507 1322 q 615 1279 581 1296 q 680 1249 649 1263 q 736 1236 711 1236 q 790 1258 769 1236 q 815 1319 810 1281 l 910 1319 q 858 1189 903 1239 q 739 1139 814 1139 q 666 1152 703 1139 q 595 1182 629 1165 q 530 1212 561 1199 q 474 1225 499 1225 q 421 1203 442 1225 q 394 1142 400 1181 l 300 1142 z "},"Ɐ":{"ha":1210,"x_min":15,"x_max":1194,"o":"m 976 783 l 976 674 l 243 674 l 243 783 l 976 783 m 528 0 l 15 1042 l 157 1042 l 639 44 l 569 44 l 1053 1042 l 1194 1042 l 682 0 l 528 0 z "},"Æ":{"ha":1729,"x_min":18,"x_max":1697,"o":"m 944 465 l 1104 114 l 1697 114 l 1697 0 l 1017 0 l 558 1018 l 625 1018 l 160 0 l 18 0 l 500 1042 l 1615 1042 l 1615 928 l 735 928 l 894 576 l 1585 576 l 1585 465 l 944 465 m 219 258 l 219 369 l 933 369 l 933 258 l 219 258 z "},"Ǽ":{"ha":1729,"x_min":18,"x_max":1697,"o":"m 944 465 l 1104 114 l 1697 114 l 1697 0 l 1017 0 l 558 1018 l 625 1018 l 160 0 l 18 0 l 500 1042 l 1615 1042 l 1615 928 l 735 928 l 894 576 l 1585 576 l 1585 465 l 944 465 m 219 258 l 219 369 l 933 369 l 933 258 l 219 258 m 1129 1331 l 1288 1331 l 1067 1131 l 928 1131 l 1129 1331 z "},"Ǣ":{"ha":1729,"x_min":18,"x_max":1697,"o":"m 944 465 l 1104 114 l 1697 114 l 1697 0 l 1017 0 l 558 1018 l 625 1018 l 160 0 l 18 0 l 500 1042 l 1615 1042 l 1615 928 l 735 928 l 894 576 l 1585 576 l 1585 465 l 944 465 m 219 258 l 219 369 l 933 369 l 933 258 l 219 258 m 746 1175 l 746 1268 l 1315 1268 l 1315 1175 l 746 1175 z "},"B":{"ha":1153,"x_min":90,"x_max":1092,"o":"m 722 521 l 738 554 q 942 516 864 553 q 1056 417 1019 479 q 1092 281 1092 356 q 1052 135 1092 199 q 936 36 1013 72 q 747 0 860 0 l 90 0 l 172 535 l 90 1042 l 724 1042 q 945 974 868 1042 q 1022 790 1022 907 q 992 670 1022 729 q 897 570 963 611 q 722 521 832 529 m 224 43 l 174 108 l 740 108 q 901 155 843 108 q 958 289 958 201 q 890 432 958 382 q 689 482 822 482 l 239 482 l 239 588 l 682 588 q 830 636 771 588 q 889 778 889 685 q 841 890 889 846 q 700 933 793 933 l 174 933 l 224 999 l 299 535 l 224 43 z "},"Ḃ":{"ha":1153,"x_min":90,"x_max":1092,"o":"m 722 521 l 738 554 q 942 516 864 553 q 1056 417 1019 479 q 1092 281 1092 356 q 1052 135 1092 199 q 936 36 1013 72 q 747 0 860 0 l 90 0 l 172 535 l 90 1042 l 724 1042 q 945 974 868 1042 q 1022 790 1022 907 q 992 670 1022 729 q 897 570 963 611 q 722 521 832 529 m 224 43 l 174 108 l 740 108 q 901 155 843 108 q 958 289 958 201 q 890 432 958 382 q 689 482 822 482 l 239 482 l 239 588 l 682 588 q 830 636 771 588 q 889 778 889 685 q 841 890 889 846 q 700 933 793 933 l 174 933 l 224 999 l 299 535 l 224 43 m 558 1160 q 492 1184 519 1160 q 465 1246 465 1208 q 492 1307 465 1282 q 558 1332 519 1332 q 626 1307 600 1332 q 653 1246 653 1282 q 626 1184 653 1208 q 558 1160 600 1160 z "},"Ḅ":{"ha":1153,"x_min":90,"x_max":1092,"o":"m 722 521 l 738 554 q 942 516 864 553 q 1056 417 1019 479 q 1092 281 1092 356 q 1052 135 1092 199 q 936 36 1013 72 q 747 0 860 0 l 90 0 l 172 535 l 90 1042 l 724 1042 q 945 974 868 1042 q 1022 790 1022 907 q 992 670 1022 729 q 897 570 963 611 q 722 521 832 529 m 224 43 l 174 108 l 740 108 q 901 155 843 108 q 958 289 958 201 q 890 432 958 382 q 689 482 822 482 l 239 482 l 239 588 l 682 588 q 830 636 771 588 q 889 778 889 685 q 841 890 889 846 q 700 933 793 933 l 174 933 l 224 999 l 299 535 l 224 43 m 586 -257 q 520 -233 547 -257 q 493 -171 493 -208 q 520 -110 493 -135 q 586 -86 547 -86 q 654 -110 628 -86 q 681 -171 681 -135 q 654 -233 681 -208 q 586 -257 628 -257 z "},"Ꞵ":{"ha":1164,"x_min":126,"x_max":1103,"o":"m 853 544 q 997 492 942 531 q 1077 399 1051 453 q 1103 281 1103 344 q 1063 135 1103 199 q 947 36 1024 72 q 758 0 871 0 l 254 0 l 254 -229 l 126 -229 l 126 1042 l 735 1042 q 956 974 879 1042 q 1033 790 1033 907 q 1015 694 1033 742 q 958 607 997 646 q 853 544 918 568 m 901 778 q 853 890 901 846 q 711 933 804 933 l 254 933 l 254 586 l 694 586 q 842 635 783 586 q 901 778 901 683 m 254 108 l 751 108 q 913 155 854 108 q 971 289 971 201 q 903 433 971 382 q 701 483 835 483 l 254 483 l 254 108 z "},"Ɓ":{"ha":1378,"x_min":35,"x_max":1317,"o":"m 253 1042 l 949 1042 q 1170 974 1093 1042 q 1247 790 1247 907 q 1218 670 1247 729 q 1124 570 1189 611 q 949 521 1058 529 l 964 554 q 1167 516 1089 553 q 1281 417 1244 479 q 1317 281 1317 356 q 1277 135 1317 199 q 1161 36 1238 72 q 972 0 1085 0 l 315 0 l 399 535 l 322 1000 l 372 938 l 283 938 q 189 910 224 938 q 154 817 154 883 q 166 729 154 771 q 194 643 178 688 l 83 643 q 50 731 65 681 q 35 833 35 782 q 94 989 35 936 q 253 1042 153 1042 m 449 43 l 399 108 l 967 108 q 1127 155 1069 108 q 1185 289 1185 201 q 1117 432 1185 382 q 915 482 1049 482 l 464 482 l 464 588 l 908 588 q 1056 636 997 588 q 1115 778 1115 685 q 1067 890 1115 846 q 925 933 1018 933 l 399 933 l 449 999 l 525 535 l 449 43 z "},"Ḇ":{"ha":1153,"x_min":90,"x_max":1092,"o":"m 722 521 l 738 554 q 942 516 864 553 q 1056 417 1019 479 q 1092 281 1092 356 q 1052 135 1092 199 q 936 36 1013 72 q 747 0 860 0 l 90 0 l 172 535 l 90 1042 l 724 1042 q 945 974 868 1042 q 1022 790 1022 907 q 992 670 1022 729 q 897 570 963 611 q 722 521 832 529 m 224 43 l 174 108 l 740 108 q 901 155 843 108 q 958 289 958 201 q 890 432 958 382 q 689 482 822 482 l 239 482 l 239 588 l 682 588 q 830 636 771 588 q 889 778 889 685 q 841 890 889 846 q 700 933 793 933 l 174 933 l 224 999 l 299 535 l 224 43 m 301 -192 l 301 -99 l 871 -99 l 871 -192 l 301 -192 z "},"Ƀ":{"ha":1211,"x_min":24,"x_max":1150,"o":"m 24 344 l 669 344 l 669 242 l 24 242 l 24 344 m 781 521 l 796 554 q 1000 516 922 553 q 1114 417 1078 479 q 1150 281 1150 356 q 1110 135 1150 199 q 994 36 1071 72 q 806 0 918 0 l 149 0 l 231 535 l 149 1042 l 782 1042 q 1003 974 926 1042 q 1081 790 1081 907 q 1051 670 1081 729 q 956 570 1021 611 q 781 521 890 529 m 282 43 l 232 106 l 797 106 q 958 153 900 106 q 1017 289 1017 200 q 949 433 1017 382 q 746 485 881 485 l 297 485 l 297 585 l 739 585 q 888 634 828 585 q 947 778 947 683 q 899 892 947 847 q 757 936 850 936 l 232 936 l 282 999 l 357 535 l 282 43 z "},"C":{"ha":1253,"x_min":68,"x_max":1196,"o":"m 1196 401 q 1108 183 1182 278 q 916 35 1035 88 q 644 -18 797 -18 q 342 50 472 -18 q 140 240 213 118 q 68 521 68 361 q 140 803 68 682 q 342 992 213 924 q 644 1060 472 1060 q 916 1007 797 1060 q 1108 860 1035 954 q 1196 642 1182 767 l 1064 642 q 992 801 1047 733 q 847 905 936 868 q 643 942 758 942 q 409 890 508 942 q 256 744 310 839 q 201 521 201 650 q 256 299 201 393 q 409 152 310 204 q 643 100 508 100 q 847 137 758 100 q 992 241 936 174 q 1064 401 1047 308 l 1196 401 z "},"Ć":{"ha":1253,"x_min":68,"x_max":1196,"o":"m 1196 401 q 1108 183 1182 278 q 916 35 1035 88 q 644 -18 797 -18 q 342 50 472 -18 q 140 240 213 118 q 68 521 68 361 q 140 803 68 682 q 342 992 213 924 q 644 1060 472 1060 q 916 1007 797 1060 q 1108 860 1035 954 q 1196 642 1182 767 l 1064 642 q 992 801 1047 733 q 847 905 936 868 q 643 942 758 942 q 409 890 508 942 q 256 744 310 839 q 201 521 201 650 q 256 299 201 393 q 409 152 310 204 q 643 100 508 100 q 847 137 758 100 q 992 241 936 174 q 1064 401 1047 308 l 1196 401 m 731 1331 l 889 1331 l 668 1131 l 529 1131 l 731 1331 z "},"Č":{"ha":1253,"x_min":68,"x_max":1196,"o":"m 1196 401 q 1108 183 1182 278 q 916 35 1035 88 q 644 -18 797 -18 q 342 50 472 -18 q 140 240 213 118 q 68 521 68 361 q 140 803 68 682 q 342 992 213 924 q 644 1060 472 1060 q 916 1007 797 1060 q 1108 860 1035 954 q 1196 642 1182 767 l 1064 642 q 992 801 1047 733 q 847 905 936 868 q 643 942 758 942 q 409 890 508 942 q 256 744 310 839 q 201 521 201 650 q 256 299 201 393 q 409 152 310 204 q 643 100 508 100 q 847 137 758 100 q 992 241 936 174 q 1064 401 1047 308 l 1196 401 m 707 1131 l 558 1131 l 356 1331 l 481 1331 l 657 1186 l 607 1186 l 785 1331 l 908 1331 l 707 1131 z "},"Ç":{"ha":1253,"x_min":68,"x_max":1196,"o":"m 1196 401 q 1108 183 1182 278 q 916 35 1035 88 q 644 -18 797 -18 q 342 50 472 -18 q 140 240 213 118 q 68 521 68 361 q 140 803 68 682 q 342 992 213 924 q 644 1060 472 1060 q 916 1007 797 1060 q 1108 860 1035 954 q 1196 642 1182 767 l 1064 642 q 992 801 1047 733 q 847 905 936 868 q 643 942 758 942 q 409 890 508 942 q 256 744 310 839 q 201 521 201 650 q 256 299 201 393 q 409 152 310 204 q 643 100 508 100 q 847 137 758 100 q 992 241 936 174 q 1064 401 1047 308 l 1196 401 m 604 11 l 689 11 l 618 -101 l 583 -99 q 640 -71 611 -79 q 714 -62 669 -62 q 831 -94 788 -62 q 874 -179 874 -125 q 819 -274 874 -237 q 668 -310 764 -310 q 521 -276 583 -310 q 439 -187 458 -243 l 542 -187 q 590 -222 558 -210 q 668 -235 621 -235 q 747 -218 722 -235 q 771 -178 771 -201 q 749 -141 771 -154 q 685 -128 726 -128 q 630 -133 653 -128 q 592 -144 607 -137 l 506 -144 l 604 11 z "},"Ḉ":{"ha":1253,"x_min":68,"x_max":1196,"o":"m 1196 401 q 1108 183 1182 278 q 916 35 1035 88 q 644 -18 797 -18 q 342 50 472 -18 q 140 240 213 118 q 68 521 68 361 q 140 803 68 682 q 342 992 213 924 q 644 1060 472 1060 q 916 1007 797 1060 q 1108 860 1035 954 q 1196 642 1182 767 l 1064 642 q 992 801 1047 733 q 847 905 936 868 q 643 942 758 942 q 409 890 508 942 q 256 744 310 839 q 201 521 201 650 q 256 299 201 393 q 409 152 310 204 q 643 100 508 100 q 847 137 758 100 q 992 241 936 174 q 1064 401 1047 308 l 1196 401 m 604 11 l 689 11 l 618 -101 l 583 -99 q 640 -71 611 -79 q 714 -62 669 -62 q 831 -94 788 -62 q 874 -179 874 -125 q 819 -274 874 -237 q 668 -310 764 -310 q 521 -276 583 -310 q 439 -187 458 -243 l 542 -187 q 590 -222 558 -210 q 668 -235 621 -235 q 747 -218 722 -235 q 771 -178 771 -201 q 749 -141 771 -154 q 685 -128 726 -128 q 630 -133 653 -128 q 592 -144 607 -137 l 506 -144 l 604 11 m 731 1331 l 889 1331 l 668 1131 l 529 1131 l 731 1331 z "},"Ĉ":{"ha":1253,"x_min":68,"x_max":1196,"o":"m 1196 401 q 1108 183 1182 278 q 916 35 1035 88 q 644 -18 797 -18 q 342 50 472 -18 q 140 240 213 118 q 68 521 68 361 q 140 803 68 682 q 342 992 213 924 q 644 1060 472 1060 q 916 1007 797 1060 q 1108 860 1035 954 q 1196 642 1182 767 l 1064 642 q 992 801 1047 733 q 847 905 936 868 q 643 942 758 942 q 409 890 508 942 q 256 744 310 839 q 201 521 201 650 q 256 299 201 393 q 409 152 310 204 q 643 100 508 100 q 847 137 758 100 q 992 241 936 174 q 1064 401 1047 308 l 1196 401 m 557 1331 l 706 1331 l 908 1131 l 783 1131 l 607 1275 l 657 1275 l 479 1131 l 356 1131 l 557 1331 z "},"Ċ":{"ha":1253,"x_min":68,"x_max":1196,"o":"m 1196 401 q 1108 183 1182 278 q 916 35 1035 88 q 644 -18 797 -18 q 342 50 472 -18 q 140 240 213 118 q 68 521 68 361 q 140 803 68 682 q 342 992 213 924 q 644 1060 472 1060 q 916 1007 797 1060 q 1108 860 1035 954 q 1196 642 1182 767 l 1064 642 q 992 801 1047 733 q 847 905 936 868 q 643 942 758 942 q 409 890 508 942 q 256 744 310 839 q 201 521 201 650 q 256 299 201 393 q 409 152 310 204 q 643 100 508 100 q 847 137 758 100 q 992 241 936 174 q 1064 401 1047 308 l 1196 401 m 632 1160 q 566 1184 593 1160 q 539 1246 539 1208 q 566 1307 539 1282 q 632 1332 593 1332 q 700 1307 674 1332 q 726 1246 726 1282 q 700 1184 726 1208 q 632 1160 674 1160 z "},"Ꭓ":{"ha":996,"x_min":-6,"x_max":1001,"o":"m 546 396 l 546 474 l 1001 -229 l 857 -229 l 472 376 l 525 376 l 138 -229 l -6 -229 l 447 469 l 447 401 l 31 1042 l 174 1042 l 526 494 l 472 494 l 824 1042 l 965 1042 l 546 396 z "},"Ƈ":{"ha":1258,"x_min":68,"x_max":1356,"o":"m 642 1060 q 910 1003 800 1060 q 1079 853 1021 947 l 1044 850 q 986 947 1011 897 q 961 1056 961 996 q 989 1156 961 1113 q 1070 1224 1017 1199 q 1197 1249 1124 1249 q 1286 1238 1247 1249 q 1356 1213 1325 1228 l 1356 1101 q 1292 1127 1325 1117 q 1221 1138 1260 1138 q 1115 1103 1149 1138 q 1081 1015 1081 1068 q 1099 922 1081 972 q 1150 801 1118 872 q 1178 728 1164 771 q 1196 642 1192 685 l 1064 642 q 992 801 1049 733 q 847 905 936 868 q 643 942 758 942 q 409 890 508 942 q 256 744 310 839 q 201 522 201 650 q 256 299 201 394 q 409 152 310 204 q 643 100 508 100 q 847 137 758 100 q 992 241 936 174 q 1064 401 1049 308 l 1196 401 q 1108 183 1182 278 q 916 35 1035 88 q 644 -18 797 -18 q 342 50 472 -18 q 140 240 213 118 q 68 521 68 361 q 140 803 68 682 q 342 992 213 924 q 642 1060 471 1060 z "},"Ȼ":{"ha":1253,"x_min":68,"x_max":1196,"o":"m 879 1211 l 990 1211 l 407 -169 l 296 -169 l 879 1211 m 1196 401 q 1108 183 1182 278 q 915 35 1035 88 q 644 -18 796 -18 q 342 50 472 -18 q 140 240 213 118 q 68 521 68 361 q 140 803 68 682 q 342 992 213 924 q 644 1060 472 1060 q 915 1007 796 1060 q 1108 860 1035 954 q 1196 642 1182 767 l 1063 642 q 991 801 1047 733 q 846 905 935 868 q 642 942 757 942 q 409 890 508 942 q 256 744 310 839 q 201 521 201 650 q 256 299 201 393 q 409 152 310 204 q 642 100 508 100 q 846 137 757 100 q 991 241 935 174 q 1063 401 1047 308 l 1196 401 z "},"D":{"ha":1224,"x_min":126,"x_max":1157,"o":"m 572 1042 q 878 976 746 1042 q 1083 794 1010 911 q 1157 521 1157 676 q 1083 249 1157 367 q 878 66 1010 132 q 572 0 746 0 l 126 0 l 126 1042 l 572 1042 m 257 35 l 174 115 l 578 115 q 811 167 711 115 q 967 310 911 218 q 1024 521 1024 401 q 967 734 1024 643 q 811 876 911 825 q 578 928 711 928 l 174 928 l 257 1007 l 257 35 z "},"Ǳ":{"ha":2235,"x_min":126,"x_max":2183,"o":"m 572 1042 q 878 976 746 1042 q 1083 794 1010 911 q 1157 521 1157 676 q 1083 249 1157 367 q 878 66 1010 132 q 572 0 746 0 l 126 0 l 126 1042 l 572 1042 m 257 35 l 174 115 l 578 115 q 811 167 711 115 q 967 310 911 218 q 1024 521 1024 401 q 967 734 1024 643 q 811 876 911 825 q 578 928 711 928 l 174 928 l 257 1007 l 257 35 m 1240 0 l 1240 106 l 2057 986 l 2126 931 l 1246 931 l 1246 1042 l 2179 1042 l 2179 938 l 1363 56 l 1300 111 l 2183 111 l 2183 0 l 1240 0 z "},"Ǆ":{"ha":2235,"x_min":126,"x_max":2183,"o":"m 572 1042 q 878 976 746 1042 q 1083 794 1010 911 q 1157 521 1157 676 q 1083 249 1157 367 q 878 66 1010 132 q 572 0 746 0 l 126 0 l 126 1042 l 572 1042 m 257 35 l 174 115 l 578 115 q 811 167 711 115 q 967 310 911 218 q 1024 521 1024 401 q 967 734 1024 643 q 811 876 911 825 q 578 928 711 928 l 174 928 l 257 1007 l 257 35 m 1240 0 l 1240 106 l 2057 986 l 2126 931 l 1246 931 l 1246 1042 l 2179 1042 l 2179 938 l 1363 56 l 1300 111 l 2183 111 l 2183 0 l 1240 0 m 1788 1131 l 1639 1131 l 1436 1331 l 1561 1331 l 1738 1186 l 1688 1186 l 1865 1331 l 1989 1331 l 1788 1131 z "},"Ɖ":{"ha":1272,"x_min":32,"x_max":1206,"o":"m 32 575 l 619 575 l 619 471 l 32 471 l 32 575 m 621 1042 q 926 976 794 1042 q 1132 794 1058 911 q 1206 521 1206 676 q 1132 249 1206 367 q 926 66 1058 132 q 621 0 794 0 l 175 0 l 175 1042 l 621 1042 m 306 35 l 222 115 l 626 115 q 860 167 760 115 q 1016 310 960 218 q 1072 521 1072 401 q 1016 734 1072 643 q 860 876 960 825 q 626 928 760 928 l 222 928 l 306 1007 l 306 35 z "},"Ď":{"ha":1224,"x_min":126,"x_max":1157,"o":"m 572 1042 q 878 976 746 1042 q 1083 794 1010 911 q 1157 521 1157 676 q 1083 249 1157 367 q 878 66 1010 132 q 572 0 746 0 l 126 0 l 126 1042 l 572 1042 m 257 35 l 174 115 l 578 115 q 811 167 711 115 q 967 310 911 218 q 1024 521 1024 401 q 967 734 1024 643 q 811 876 911 825 q 578 928 711 928 l 174 928 l 257 1007 l 257 35 m 647 1131 l 499 1131 l 296 1331 l 421 1331 l 597 1186 l 547 1186 l 725 1331 l 849 1331 l 647 1131 z "},"Ḑ":{"ha":1224,"x_min":126,"x_max":1157,"o":"m 572 1042 q 878 976 746 1042 q 1083 794 1010 911 q 1157 521 1157 676 q 1083 249 1157 367 q 878 66 1010 132 q 572 0 746 0 l 126 0 l 126 1042 l 572 1042 m 257 35 l 174 115 l 578 115 q 811 167 711 115 q 967 310 911 218 q 1024 521 1024 401 q 967 734 1024 643 q 811 876 911 825 q 578 928 711 928 l 174 928 l 257 1007 l 257 35 m 506 -332 l 582 -181 l 588 -218 q 526 -197 550 -218 q 501 -144 501 -175 q 524 -89 501 -111 q 588 -67 547 -67 q 653 -90 631 -67 q 676 -147 676 -114 q 665 -195 676 -172 q 626 -264 654 -218 l 583 -332 l 506 -332 z "},"Ḓ":{"ha":1224,"x_min":126,"x_max":1157,"o":"m 572 1042 q 878 976 746 1042 q 1083 794 1010 911 q 1157 521 1157 676 q 1083 249 1157 367 q 878 66 1010 132 q 572 0 746 0 l 126 0 l 126 1042 l 572 1042 m 257 35 l 174 115 l 578 115 q 811 167 711 115 q 967 310 911 218 q 1024 521 1024 401 q 967 734 1024 643 q 811 876 911 825 q 578 928 711 928 l 174 928 l 257 1007 l 257 35 m 514 -57 l 658 -57 l 857 -285 l 739 -285 l 561 -108 l 611 -108 l 435 -285 l 315 -285 l 514 -57 z "},"Đ":{"ha":1272,"x_min":32,"x_max":1206,"o":"m 32 575 l 619 575 l 619 471 l 32 471 l 32 575 m 621 1042 q 926 976 794 1042 q 1132 794 1058 911 q 1206 521 1206 676 q 1132 249 1206 367 q 926 66 1058 132 q 621 0 794 0 l 175 0 l 175 1042 l 621 1042 m 306 35 l 222 115 l 626 115 q 860 167 760 115 q 1016 310 960 218 q 1072 521 1072 401 q 1016 734 1072 643 q 860 876 960 825 q 626 928 760 928 l 222 928 l 306 1007 l 306 35 z "},"Ḋ":{"ha":1224,"x_min":126,"x_max":1157,"o":"m 572 1042 q 878 976 746 1042 q 1083 794 1010 911 q 1157 521 1157 676 q 1083 249 1157 367 q 878 66 1010 132 q 572 0 746 0 l 126 0 l 126 1042 l 572 1042 m 257 35 l 174 115 l 578 115 q 811 167 711 115 q 967 310 911 218 q 1024 521 1024 401 q 967 734 1024 643 q 811 876 911 825 q 578 928 711 928 l 174 928 l 257 1007 l 257 35 m 572 1160 q 506 1184 533 1160 q 479 1246 479 1208 q 506 1307 479 1282 q 572 1332 533 1332 q 640 1307 614 1332 q 667 1246 667 1282 q 640 1184 667 1208 q 572 1160 614 1160 z "},"Ḍ":{"ha":1224,"x_min":126,"x_max":1157,"o":"m 572 1042 q 878 976 746 1042 q 1083 794 1010 911 q 1157 521 1157 676 q 1083 249 1157 367 q 878 66 1010 132 q 572 0 746 0 l 126 0 l 126 1042 l 572 1042 m 257 35 l 174 115 l 578 115 q 811 167 711 115 q 967 310 911 218 q 1024 521 1024 401 q 967 734 1024 643 q 811 876 911 825 q 578 928 711 928 l 174 928 l 257 1007 l 257 35 m 586 -257 q 520 -233 547 -257 q 493 -171 493 -208 q 520 -110 493 -135 q 586 -86 547 -86 q 654 -110 628 -86 q 681 -171 681 -135 q 654 -233 681 -208 q 586 -257 628 -257 z "},"Ɗ":{"ha":1471,"x_min":33,"x_max":1404,"o":"m 257 1042 l 819 1042 q 1125 976 993 1042 q 1331 794 1257 911 q 1404 521 1404 676 q 1331 249 1404 367 q 1125 66 1257 132 q 819 0 993 0 l 374 0 l 374 983 l 413 931 l 285 931 q 190 903 225 931 q 154 811 154 876 q 166 726 154 767 q 194 643 178 686 l 82 643 q 49 731 65 681 q 33 833 33 782 q 93 989 33 936 q 257 1042 153 1042 m 504 35 l 421 115 l 825 115 q 1058 167 958 115 q 1215 310 1158 218 q 1271 521 1271 401 q 1215 734 1271 643 q 1058 876 1158 825 q 825 928 958 928 l 458 928 l 504 983 l 504 35 z "},"Ḏ":{"ha":1224,"x_min":126,"x_max":1157,"o":"m 572 1042 q 878 976 746 1042 q 1083 794 1010 911 q 1157 521 1157 676 q 1083 249 1157 367 q 878 66 1010 132 q 572 0 746 0 l 126 0 l 126 1042 l 572 1042 m 257 35 l 174 115 l 578 115 q 811 167 711 115 q 967 310 911 218 q 1024 521 1024 401 q 967 734 1024 643 q 811 876 911 825 q 578 928 711 928 l 174 928 l 257 1007 l 257 35 m 301 -192 l 301 -99 l 871 -99 l 871 -192 l 301 -192 z "},"ǲ":{"ha":2072,"x_min":126,"x_max":2024,"o":"m 572 1042 q 878 976 746 1042 q 1083 794 1010 911 q 1157 521 1157 676 q 1083 249 1157 367 q 878 66 1010 132 q 572 0 746 0 l 126 0 l 126 1042 l 572 1042 m 257 35 l 174 115 l 578 115 q 811 167 711 115 q 967 310 911 218 q 1024 521 1024 401 q 967 734 1024 643 q 811 876 911 825 q 578 928 711 928 l 174 928 l 257 1007 l 257 35 m 1256 0 l 1256 97 l 1903 725 l 1971 681 l 1261 681 l 1261 782 l 2021 782 l 2021 686 l 1374 58 l 1314 103 l 2024 103 l 2024 0 l 1256 0 z "},"ǅ":{"ha":2072,"x_min":126,"x_max":2024,"o":"m 572 1042 q 878 976 746 1042 q 1083 794 1010 911 q 1157 521 1157 676 q 1083 249 1157 367 q 878 66 1010 132 q 572 0 746 0 l 126 0 l 126 1042 l 572 1042 m 257 35 l 174 115 l 578 115 q 811 167 711 115 q 967 310 911 218 q 1024 521 1024 401 q 967 734 1024 643 q 811 876 911 825 q 578 928 711 928 l 174 928 l 257 1007 l 257 35 m 1256 0 l 1256 97 l 1903 725 l 1971 681 l 1261 681 l 1261 782 l 2021 782 l 2021 686 l 1374 58 l 1314 103 l 2024 103 l 2024 0 l 1256 0 m 1713 871 l 1568 871 l 1369 1099 l 1488 1099 l 1665 922 l 1615 922 l 1792 1099 l 1911 1099 l 1713 871 z "},"Ð":{"ha":1272,"x_min":32,"x_max":1206,"o":"m 32 575 l 619 575 l 619 471 l 32 471 l 32 575 m 621 1042 q 926 976 794 1042 q 1132 794 1058 911 q 1206 521 1206 676 q 1132 249 1206 367 q 926 66 1058 132 q 621 0 794 0 l 175 0 l 175 1042 l 621 1042 m 306 35 l 222 115 l 626 115 q 860 167 760 115 q 1016 310 960 218 q 1072 521 1072 401 q 1016 734 1072 643 q 860 876 960 825 q 626 928 760 928 l 222 928 l 306 1007 l 306 35 z "},"E":{"ha":1043,"x_min":89,"x_max":967,"o":"m 929 576 l 929 465 l 219 465 l 219 576 l 929 576 m 301 521 l 222 32 l 153 114 l 967 114 l 967 0 l 89 0 l 175 521 l 89 1042 l 960 1042 l 960 928 l 153 928 l 222 1010 l 301 521 z "},"É":{"ha":1043,"x_min":89,"x_max":967,"o":"m 929 576 l 929 465 l 219 465 l 219 576 l 929 576 m 301 521 l 222 32 l 153 114 l 967 114 l 967 0 l 89 0 l 175 521 l 89 1042 l 960 1042 l 960 928 l 153 928 l 222 1010 l 301 521 m 628 1331 l 786 1331 l 565 1131 l 426 1131 l 628 1331 z "},"Ĕ":{"ha":1043,"x_min":89,"x_max":967,"o":"m 929 576 l 929 465 l 219 465 l 219 576 l 929 576 m 301 521 l 222 32 l 153 114 l 967 114 l 967 0 l 89 0 l 175 521 l 89 1042 l 960 1042 l 960 928 l 153 928 l 222 1010 l 301 521 m 257 1332 l 364 1332 q 420 1246 379 1276 q 528 1215 461 1215 q 637 1246 596 1215 q 693 1332 678 1276 l 800 1332 q 707 1178 779 1232 q 528 1125 635 1125 q 350 1178 422 1125 q 257 1332 278 1232 z "},"Ě":{"ha":1043,"x_min":89,"x_max":967,"o":"m 929 576 l 929 465 l 219 465 l 219 576 l 929 576 m 301 521 l 222 32 l 153 114 l 967 114 l 967 0 l 89 0 l 175 521 l 89 1042 l 960 1042 l 960 928 l 153 928 l 222 1010 l 301 521 m 603 1131 l 454 1131 l 253 1331 l 376 1331 l 554 1186 l 504 1186 l 681 1331 l 804 1331 l 603 1131 z "},"Ȩ":{"ha":1043,"x_min":89,"x_max":967,"o":"m 929 576 l 929 465 l 219 465 l 219 576 l 929 576 m 301 521 l 222 32 l 153 114 l 967 114 l 967 0 l 89 0 l 175 521 l 89 1042 l 960 1042 l 960 928 l 153 928 l 222 1010 l 301 521 m 518 11 l 603 11 l 532 -101 l 497 -99 q 554 -71 525 -79 q 628 -62 583 -62 q 744 -94 701 -62 q 788 -179 788 -125 q 733 -274 788 -237 q 582 -310 678 -310 q 435 -276 497 -310 q 353 -187 372 -243 l 456 -187 q 503 -222 472 -210 q 582 -235 535 -235 q 660 -218 636 -235 q 685 -178 685 -201 q 663 -141 685 -154 q 599 -128 640 -128 q 544 -133 567 -128 q 506 -144 521 -137 l 419 -144 l 518 11 z "},"Ḝ":{"ha":1043,"x_min":89,"x_max":967,"o":"m 929 576 l 929 465 l 219 465 l 219 576 l 929 576 m 301 521 l 222 32 l 153 114 l 967 114 l 967 0 l 89 0 l 175 521 l 89 1042 l 960 1042 l 960 928 l 153 928 l 222 1010 l 301 521 m 518 11 l 603 11 l 532 -101 l 497 -99 q 554 -71 525 -79 q 628 -62 583 -62 q 744 -94 701 -62 q 788 -179 788 -125 q 733 -274 788 -237 q 582 -310 678 -310 q 435 -276 497 -310 q 353 -187 372 -243 l 456 -187 q 503 -222 472 -210 q 582 -235 535 -235 q 660 -218 636 -235 q 685 -178 685 -201 q 663 -141 685 -154 q 599 -128 640 -128 q 544 -133 567 -128 q 506 -144 521 -137 l 419 -144 l 518 11 m 257 1332 l 364 1332 q 420 1246 379 1276 q 528 1215 461 1215 q 637 1246 596 1215 q 693 1332 678 1276 l 800 1332 q 707 1178 779 1232 q 528 1125 635 1125 q 350 1178 422 1125 q 257 1332 278 1232 z "},"Ê":{"ha":1043,"x_min":89,"x_max":967,"o":"m 929 576 l 929 465 l 219 465 l 219 576 l 929 576 m 301 521 l 222 32 l 153 114 l 967 114 l 967 0 l 89 0 l 175 521 l 89 1042 l 960 1042 l 960 928 l 153 928 l 222 1010 l 301 521 m 454 1331 l 603 1331 l 806 1131 l 681 1131 l 504 1275 l 554 1275 l 376 1131 l 253 1131 l 454 1331 z "},"Ế":{"ha":1043,"x_min":89,"x_max":967,"o":"m 929 576 l 929 465 l 219 465 l 219 576 l 929 576 m 301 521 l 222 32 l 153 114 l 967 114 l 967 0 l 89 0 l 175 521 l 89 1042 l 960 1042 l 960 928 l 153 928 l 222 1010 l 301 521 m 797 1472 l 929 1472 l 797 1296 l 689 1296 l 797 1472 m 454 1331 l 603 1331 l 806 1131 l 681 1131 l 504 1275 l 554 1275 l 376 1131 l 253 1131 l 454 1331 z "},"Ḙ":{"ha":1043,"x_min":89,"x_max":967,"o":"m 929 576 l 929 465 l 219 465 l 219 576 l 929 576 m 301 521 l 222 32 l 153 114 l 967 114 l 967 0 l 89 0 l 175 521 l 89 1042 l 960 1042 l 960 928 l 153 928 l 222 1010 l 301 521 m 483 -57 l 628 -57 l 826 -285 l 708 -285 l 531 -108 l 581 -108 l 404 -285 l 285 -285 l 483 -57 z "},"Ệ":{"ha":1043,"x_min":89,"x_max":967,"o":"m 929 576 l 929 465 l 219 465 l 219 576 l 929 576 m 301 521 l 222 32 l 153 114 l 967 114 l 967 0 l 89 0 l 175 521 l 89 1042 l 960 1042 l 960 928 l 153 928 l 222 1010 l 301 521 m 554 -257 q 488 -233 515 -257 q 461 -171 461 -208 q 488 -110 461 -135 q 554 -86 515 -86 q 622 -110 596 -86 q 649 -171 649 -135 q 622 -233 649 -208 q 554 -257 596 -257 m 454 1331 l 603 1331 l 806 1131 l 681 1131 l 504 1275 l 554 1275 l 376 1131 l 253 1131 l 454 1331 z "},"Ề":{"ha":1043,"x_min":89,"x_max":967,"o":"m 929 576 l 929 465 l 219 465 l 219 576 l 929 576 m 301 521 l 222 32 l 153 114 l 967 114 l 967 0 l 89 0 l 175 521 l 89 1042 l 960 1042 l 960 928 l 153 928 l 222 1010 l 301 521 m 717 1472 l 825 1296 l 717 1296 l 585 1472 l 717 1472 m 454 1331 l 603 1331 l 806 1131 l 681 1131 l 504 1275 l 554 1275 l 376 1131 l 253 1131 l 454 1331 z "},"Ể":{"ha":1043,"x_min":89,"x_max":967,"o":"m 929 576 l 929 465 l 219 465 l 219 576 l 929 576 m 301 521 l 222 32 l 153 114 l 967 114 l 967 0 l 89 0 l 175 521 l 89 1042 l 960 1042 l 960 928 l 153 928 l 222 1010 l 301 521 m 757 1268 l 724 1319 q 798 1354 776 1336 q 819 1392 819 1372 q 728 1442 819 1442 q 685 1438 707 1442 q 643 1431 663 1435 l 643 1511 q 692 1522 663 1518 q 753 1526 721 1526 q 883 1494 836 1526 q 929 1406 929 1463 q 888 1324 929 1358 q 757 1268 847 1289 m 454 1331 l 603 1331 l 806 1131 l 681 1131 l 504 1275 l 554 1275 l 376 1131 l 253 1131 l 454 1331 z "},"Ễ":{"ha":1043,"x_min":89,"x_max":967,"o":"m 929 576 l 929 465 l 219 465 l 219 576 l 929 576 m 301 521 l 222 32 l 153 114 l 967 114 l 967 0 l 89 0 l 175 521 l 89 1042 l 960 1042 l 960 928 l 153 928 l 222 1010 l 301 521 m 269 1375 q 314 1506 275 1456 q 417 1556 353 1556 q 481 1542 451 1556 q 534 1513 510 1529 q 580 1484 558 1497 q 622 1471 601 1471 q 665 1493 647 1471 q 689 1554 683 1515 l 778 1554 q 734 1424 772 1474 q 631 1375 696 1375 q 567 1388 596 1375 q 515 1417 539 1401 q 468 1446 490 1433 q 425 1458 446 1458 q 384 1437 401 1458 q 360 1375 367 1415 l 269 1375 m 454 1331 l 603 1331 l 806 1131 l 681 1131 l 504 1275 l 554 1275 l 376 1131 l 253 1131 l 454 1331 z "},"Ȅ":{"ha":1043,"x_min":89,"x_max":967,"o":"m 929 576 l 929 465 l 219 465 l 219 576 l 929 576 m 301 521 l 222 32 l 153 114 l 967 114 l 967 0 l 89 0 l 175 521 l 89 1042 l 960 1042 l 960 928 l 153 928 l 222 1010 l 301 521 m 572 1331 l 738 1131 l 611 1131 l 436 1331 l 572 1331 m 299 1331 l 464 1131 l 336 1131 l 161 1331 l 299 1331 z "},"Ë":{"ha":1043,"x_min":89,"x_max":967,"o":"m 929 576 l 929 465 l 219 465 l 219 576 l 929 576 m 301 521 l 222 32 l 153 114 l 967 114 l 967 0 l 89 0 l 175 521 l 89 1042 l 960 1042 l 960 928 l 153 928 l 222 1010 l 301 521 m 322 1160 q 258 1184 283 1160 q 232 1244 232 1208 q 258 1304 232 1281 q 322 1328 283 1328 q 388 1304 363 1328 q 414 1244 414 1281 q 388 1184 414 1208 q 322 1160 363 1160 m 736 1160 q 670 1184 696 1160 q 644 1244 644 1208 q 670 1304 644 1281 q 736 1328 696 1328 q 801 1304 775 1328 q 826 1244 826 1281 q 801 1184 826 1208 q 736 1160 775 1160 z "},"Ė":{"ha":1043,"x_min":89,"x_max":967,"o":"m 929 576 l 929 465 l 219 465 l 219 576 l 929 576 m 301 521 l 222 32 l 153 114 l 967 114 l 967 0 l 89 0 l 175 521 l 89 1042 l 960 1042 l 960 928 l 153 928 l 222 1010 l 301 521 m 528 1160 q 462 1184 489 1160 q 435 1246 435 1208 q 462 1307 435 1282 q 528 1332 489 1332 q 596 1307 569 1332 q 622 1246 622 1282 q 596 1184 622 1208 q 528 1160 569 1160 z "},"Ẹ":{"ha":1043,"x_min":89,"x_max":967,"o":"m 929 576 l 929 465 l 219 465 l 219 576 l 929 576 m 301 521 l 222 32 l 153 114 l 967 114 l 967 0 l 89 0 l 175 521 l 89 1042 l 960 1042 l 960 928 l 153 928 l 222 1010 l 301 521 m 554 -257 q 488 -233 515 -257 q 461 -171 461 -208 q 488 -110 461 -135 q 554 -86 515 -86 q 622 -110 596 -86 q 649 -171 649 -135 q 622 -233 649 -208 q 554 -257 596 -257 z "},"È":{"ha":1043,"x_min":89,"x_max":967,"o":"m 929 576 l 929 465 l 219 465 l 219 576 l 929 576 m 301 521 l 222 32 l 153 114 l 967 114 l 967 0 l 89 0 l 175 521 l 89 1042 l 960 1042 l 960 928 l 153 928 l 222 1010 l 301 521 m 411 1331 l 613 1131 l 474 1131 l 253 1331 l 411 1331 z "},"Ẻ":{"ha":1043,"x_min":89,"x_max":967,"o":"m 929 576 l 929 465 l 219 465 l 219 576 l 929 576 m 301 521 l 222 32 l 153 114 l 967 114 l 967 0 l 89 0 l 175 521 l 89 1042 l 960 1042 l 960 928 l 153 928 l 222 1010 l 301 521 m 489 1111 l 454 1174 q 553 1203 521 1185 q 585 1244 585 1221 q 559 1277 585 1267 q 486 1288 533 1288 q 422 1283 451 1288 q 364 1271 393 1278 l 364 1357 q 426 1370 389 1364 q 507 1376 464 1376 q 649 1346 599 1376 q 700 1257 700 1315 q 649 1166 700 1203 q 489 1111 599 1129 z "},"Ȇ":{"ha":1043,"x_min":89,"x_max":967,"o":"m 929 576 l 929 465 l 219 465 l 219 576 l 929 576 m 301 521 l 222 32 l 153 114 l 967 114 l 967 0 l 89 0 l 175 521 l 89 1042 l 960 1042 l 960 928 l 153 928 l 222 1010 l 301 521 m 800 1129 l 693 1129 q 637 1214 678 1183 q 529 1244 596 1244 q 420 1214 461 1244 q 364 1129 379 1183 l 257 1129 q 351 1281 278 1228 q 529 1335 424 1335 q 707 1281 635 1335 q 800 1129 779 1228 z "},"Ē":{"ha":1043,"x_min":89,"x_max":967,"o":"m 929 576 l 929 465 l 219 465 l 219 576 l 929 576 m 301 521 l 222 32 l 153 114 l 967 114 l 967 0 l 89 0 l 175 521 l 89 1042 l 960 1042 l 960 928 l 153 928 l 222 1010 l 301 521 m 244 1175 l 244 1268 l 814 1268 l 814 1175 l 244 1175 z "},"Ḗ":{"ha":1043,"x_min":89,"x_max":967,"o":"m 929 576 l 929 465 l 219 465 l 219 576 l 929 576 m 301 521 l 222 32 l 153 114 l 967 114 l 967 0 l 89 0 l 175 521 l 89 1042 l 960 1042 l 960 928 l 153 928 l 222 1010 l 301 521 m 244 1175 l 244 1268 l 814 1268 l 814 1175 l 244 1175 m 628 1553 l 786 1553 l 565 1353 l 426 1353 l 628 1553 z "},"Ḕ":{"ha":1043,"x_min":89,"x_max":967,"o":"m 929 576 l 929 465 l 219 465 l 219 576 l 929 576 m 301 521 l 222 32 l 153 114 l 967 114 l 967 0 l 89 0 l 175 521 l 89 1042 l 960 1042 l 960 928 l 153 928 l 222 1010 l 301 521 m 244 1175 l 244 1268 l 813 1268 l 813 1175 l 244 1175 m 411 1551 l 613 1353 l 474 1353 l 253 1551 l 411 1551 z "},"Ę":{"ha":1043,"x_min":89,"x_max":967,"o":"m 929 576 l 929 465 l 219 465 l 219 576 l 929 576 m 301 521 l 222 32 l 153 114 l 967 114 l 967 0 l 89 0 l 175 521 l 89 1042 l 960 1042 l 960 928 l 153 928 l 222 1010 l 301 521 m 874 22 l 936 18 l 936 0 l 967 0 q 872 -35 915 -17 q 804 -75 829 -54 q 779 -119 779 -96 q 881 -169 779 -169 q 925 -167 901 -169 q 967 -161 949 -165 l 967 -247 q 917 -258 949 -253 q 853 -262 886 -262 q 721 -230 771 -262 q 671 -143 671 -197 q 719 -51 671 -93 q 874 22 767 -10 z "},"Ɛ":{"ha":1092,"x_min":78,"x_max":1036,"o":"m 1006 729 l 875 729 q 768 892 857 835 q 532 950 679 950 q 314 903 392 950 q 236 765 236 856 q 301 640 236 690 q 507 589 367 589 l 700 589 l 700 488 l 507 488 q 336 466 401 488 q 241 404 271 444 q 211 306 211 364 q 297 148 211 204 q 543 92 383 92 q 799 153 707 92 q 906 326 892 215 l 1036 326 q 967 146 1029 224 q 798 25 906 68 q 543 -18 690 -18 q 292 22 396 -18 q 133 134 188 63 q 78 299 78 206 q 126 438 78 381 q 264 526 175 496 q 475 551 353 556 l 475 526 q 272 560 354 526 q 146 651 189 593 q 103 781 103 708 q 154 928 103 865 q 301 1025 206 990 q 526 1060 396 1060 q 773 1017 669 1060 q 936 899 876 974 q 1006 729 996 824 z "},"Ǝ":{"ha":1043,"x_min":76,"x_max":954,"o":"m 114 576 l 825 576 l 825 465 l 114 465 l 114 576 m 742 521 l 822 1010 l 890 928 l 83 928 l 83 1042 l 954 1042 l 869 521 l 954 0 l 76 0 l 76 114 l 890 114 l 822 32 l 742 521 z "},"Ʃ":{"ha":990,"x_min":46,"x_max":944,"o":"m 46 0 l 46 106 l 519 538 l 519 506 l 58 938 l 58 1042 l 929 1042 l 929 929 l 111 929 l 154 1007 l 619 572 l 619 469 l 154 46 l 107 113 l 944 113 l 944 0 l 46 0 z "},"Ɇ":{"ha":1043,"x_min":89,"x_max":967,"o":"m 778 1211 l 889 1211 l 353 -169 l 242 -169 l 778 1211 m 929 576 l 929 465 l 219 465 l 219 576 l 929 576 m 301 521 l 222 32 l 153 114 l 967 114 l 967 0 l 89 0 l 175 521 l 89 1042 l 960 1042 l 960 928 l 153 928 l 222 1010 l 301 521 z "},"Ẽ":{"ha":1043,"x_min":89,"x_max":967,"o":"m 929 576 l 929 465 l 219 465 l 219 576 l 929 576 m 301 521 l 222 32 l 153 114 l 967 114 l 967 0 l 89 0 l 175 521 l 89 1042 l 960 1042 l 960 928 l 153 928 l 222 1010 l 301 521 m 224 1142 q 274 1272 231 1222 q 394 1322 318 1322 q 467 1309 431 1322 q 538 1279 504 1296 q 603 1249 572 1263 q 660 1236 635 1236 q 713 1258 693 1236 q 739 1319 733 1281 l 833 1319 q 782 1189 826 1239 q 663 1139 738 1139 q 590 1152 626 1139 q 519 1182 553 1165 q 453 1212 485 1199 q 397 1225 422 1225 q 344 1203 365 1225 q 318 1142 324 1181 l 224 1142 z "},"Ḛ":{"ha":1043,"x_min":89,"x_max":967,"o":"m 929 576 l 929 465 l 219 465 l 219 576 l 929 576 m 301 521 l 222 32 l 153 114 l 967 114 l 967 0 l 89 0 l 175 521 l 89 1042 l 960 1042 l 960 928 l 153 928 l 222 1010 l 301 521 m 264 -254 q 313 -115 271 -167 q 428 -62 354 -62 q 496 -76 463 -62 q 560 -107 529 -90 q 620 -137 592 -124 q 672 -150 649 -150 q 725 -127 704 -150 q 751 -64 746 -104 l 846 -64 q 799 -201 840 -147 q 682 -254 757 -254 q 614 -240 647 -254 q 549 -210 581 -226 q 490 -180 518 -193 q 439 -167 463 -167 q 387 -190 407 -167 q 360 -254 367 -212 l 264 -254 z "},"Ə":{"ha":1250,"x_min":65,"x_max":1182,"o":"m 615 1060 q 855 1019 750 1060 q 1033 904 960 978 q 1144 732 1106 831 q 1182 518 1182 633 q 1111 238 1182 358 q 913 50 1040 118 q 619 -18 786 -18 q 390 24 492 -18 q 215 142 288 67 q 104 322 143 218 q 65 547 65 425 l 1082 547 l 1082 442 l 149 442 l 199 494 q 257 292 206 381 q 401 151 308 203 q 619 100 493 100 q 847 151 750 100 q 996 297 943 203 q 1049 518 1049 390 q 996 743 1049 649 q 847 890 943 838 q 618 942 750 942 q 415 906 501 942 q 276 806 329 869 q 207 657 224 742 l 75 657 q 165 865 93 774 q 353 1008 238 956 q 615 1060 468 1060 z "},"Ʒ":{"ha":1057,"x_min":36,"x_max":994,"o":"m 86 1042 l 953 1042 l 953 938 l 494 569 l 481 614 l 572 614 q 810 576 717 614 q 949 472 903 539 q 994 314 994 404 q 939 142 994 217 q 780 24 883 67 q 529 -18 676 -18 q 275 25 383 -18 q 105 146 167 68 q 36 326 43 224 l 167 326 q 274 153 182 215 q 529 92 367 92 q 774 150 688 92 q 861 318 861 208 q 830 426 861 381 q 726 497 799 472 q 532 522 654 522 l 403 522 l 403 625 l 874 1006 l 900 931 l 86 931 l 86 1042 z "},"Ǯ":{"ha":1057,"x_min":36,"x_max":994,"o":"m 86 1042 l 953 1042 l 953 938 l 494 569 l 481 614 l 572 614 q 810 576 717 614 q 949 472 903 539 q 994 314 994 404 q 939 142 994 217 q 780 24 883 67 q 529 -18 676 -18 q 275 25 383 -18 q 105 146 167 68 q 36 326 43 224 l 167 326 q 274 153 182 215 q 529 92 367 92 q 774 150 688 92 q 861 318 861 208 q 830 426 861 381 q 726 497 799 472 q 532 522 654 522 l 403 522 l 403 625 l 874 1006 l 900 931 l 86 931 l 86 1042 m 585 1131 l 436 1131 l 233 1331 l 358 1331 l 535 1186 l 485 1186 l 663 1331 l 786 1331 l 585 1131 z "},"Ƹ":{"ha":1057,"x_min":64,"x_max":1022,"o":"m 971 1042 l 971 931 l 158 931 l 185 1006 l 656 625 l 656 522 l 525 522 q 332 497 404 522 q 228 426 260 472 q 197 318 197 381 q 284 150 197 208 q 528 92 371 92 q 784 153 692 92 q 890 326 876 215 l 1022 326 q 952 146 1014 224 q 783 25 890 68 q 528 -18 675 -18 q 278 24 382 -18 q 119 142 174 67 q 64 314 64 217 q 110 472 64 404 q 249 576 156 539 q 485 614 342 614 l 576 614 l 563 569 l 106 938 l 106 1042 l 971 1042 z "},"F":{"ha":1006,"x_min":126,"x_max":954,"o":"m 189 571 l 933 571 l 933 456 l 189 456 l 189 571 m 954 1042 l 954 926 l 175 926 l 257 1010 l 257 0 l 126 0 l 126 1042 l 954 1042 z "},"Ḟ":{"ha":1006,"x_min":126,"x_max":954,"o":"m 189 571 l 933 571 l 933 456 l 189 456 l 189 571 m 954 1042 l 954 926 l 175 926 l 257 1010 l 257 0 l 126 0 l 126 1042 l 954 1042 m 533 1160 q 467 1184 494 1160 q 440 1246 440 1208 q 467 1307 440 1282 q 533 1332 494 1332 q 601 1307 575 1332 q 628 1246 628 1282 q 601 1184 628 1208 q 533 1160 575 1160 z "},"Ƒ":{"ha":1006,"x_min":-176,"x_max":954,"o":"m 189 571 l 933 571 l 933 456 l 189 456 l 189 571 m 257 33 q 188 -172 257 -96 q -15 -247 118 -247 q -102 -237 -60 -247 q -176 -211 -144 -226 l -176 -100 q -115 -125 -150 -114 q -39 -136 -79 -136 q 85 -90 43 -136 q 126 51 126 -44 l 126 1042 l 954 1042 l 954 926 l 186 926 l 257 994 l 257 33 z "},"G":{"ha":1296,"x_min":68,"x_max":1206,"o":"m 1158 454 q 1120 269 1157 356 q 1016 119 1083 183 q 853 18 949 54 q 640 -18 758 -18 q 410 20 515 -18 q 228 129 306 58 q 110 299 151 200 q 68 521 68 399 q 110 742 68 643 q 231 913 153 842 q 414 1022 308 983 q 647 1060 519 1060 q 917 1008 800 1060 q 1107 867 1035 957 q 1193 663 1179 778 l 1060 663 q 989 810 1044 747 q 847 908 933 874 q 644 943 760 943 q 410 892 510 943 q 256 746 311 840 q 201 521 201 651 q 257 296 201 392 q 414 149 313 200 q 651 97 515 97 q 884 146 785 97 q 1039 279 983 194 q 1097 474 1094 364 l 1158 454 m 703 397 l 703 501 l 1206 501 l 1206 0 l 1104 0 l 1092 442 l 1128 397 l 703 397 z "},"Ǵ":{"ha":1296,"x_min":68,"x_max":1206,"o":"m 1158 454 q 1120 269 1157 356 q 1016 119 1083 183 q 853 18 949 54 q 640 -18 758 -18 q 410 20 515 -18 q 228 129 306 58 q 110 299 151 200 q 68 521 68 399 q 110 742 68 643 q 231 913 153 842 q 414 1022 308 983 q 647 1060 519 1060 q 917 1008 800 1060 q 1107 867 1035 957 q 1193 663 1179 778 l 1060 663 q 989 810 1044 747 q 847 908 933 874 q 644 943 760 943 q 410 892 510 943 q 256 746 311 840 q 201 521 201 651 q 257 296 201 392 q 414 149 313 200 q 651 97 515 97 q 884 146 785 97 q 1039 279 983 194 q 1097 474 1094 364 l 1158 454 m 703 397 l 703 501 l 1206 501 l 1206 0 l 1104 0 l 1092 442 l 1128 397 l 703 397 m 742 1331 l 900 1331 l 679 1131 l 540 1131 l 742 1331 z "},"Ğ":{"ha":1296,"x_min":68,"x_max":1206,"o":"m 1158 454 q 1120 269 1157 356 q 1016 119 1083 183 q 853 18 949 54 q 640 -18 758 -18 q 410 20 515 -18 q 228 129 306 58 q 110 299 151 200 q 68 521 68 399 q 110 742 68 643 q 231 913 153 842 q 414 1022 308 983 q 647 1060 519 1060 q 917 1008 800 1060 q 1107 867 1035 957 q 1193 663 1179 778 l 1060 663 q 989 810 1044 747 q 847 908 933 874 q 644 943 760 943 q 410 892 510 943 q 256 746 311 840 q 201 521 201 651 q 257 296 201 392 q 414 149 313 200 q 651 97 515 97 q 884 146 785 97 q 1039 279 983 194 q 1097 474 1094 364 l 1158 454 m 703 397 l 703 501 l 1206 501 l 1206 0 l 1104 0 l 1092 442 l 1128 397 l 703 397 m 372 1332 l 479 1332 q 535 1246 494 1276 q 643 1215 576 1215 q 752 1246 711 1215 q 808 1332 793 1276 l 915 1332 q 822 1178 894 1232 q 643 1125 750 1125 q 465 1178 538 1125 q 372 1332 393 1232 z "},"Ǧ":{"ha":1296,"x_min":68,"x_max":1206,"o":"m 1158 454 q 1120 269 1157 356 q 1016 119 1083 183 q 853 18 949 54 q 640 -18 758 -18 q 410 20 515 -18 q 228 129 306 58 q 110 299 151 200 q 68 521 68 399 q 110 742 68 643 q 231 913 153 842 q 414 1022 308 983 q 647 1060 519 1060 q 917 1008 800 1060 q 1107 867 1035 957 q 1193 663 1179 778 l 1060 663 q 989 810 1044 747 q 847 908 933 874 q 644 943 760 943 q 410 892 510 943 q 256 746 311 840 q 201 521 201 651 q 257 296 201 392 q 414 149 313 200 q 651 97 515 97 q 884 146 785 97 q 1039 279 983 194 q 1097 474 1094 364 l 1158 454 m 703 397 l 703 501 l 1206 501 l 1206 0 l 1104 0 l 1092 442 l 1128 397 l 703 397 m 718 1131 l 569 1131 l 367 1331 l 492 1331 l 668 1186 l 618 1186 l 796 1331 l 919 1331 l 718 1131 z "},"Ĝ":{"ha":1296,"x_min":68,"x_max":1206,"o":"m 1158 454 q 1120 269 1157 356 q 1016 119 1083 183 q 853 18 949 54 q 640 -18 758 -18 q 410 20 515 -18 q 228 129 306 58 q 110 299 151 200 q 68 521 68 399 q 110 742 68 643 q 231 913 153 842 q 414 1022 308 983 q 647 1060 519 1060 q 917 1008 800 1060 q 1107 867 1035 957 q 1193 663 1179 778 l 1060 663 q 989 810 1044 747 q 847 908 933 874 q 644 943 760 943 q 410 892 510 943 q 256 746 311 840 q 201 521 201 651 q 257 296 201 392 q 414 149 313 200 q 651 97 515 97 q 884 146 785 97 q 1039 279 983 194 q 1097 474 1094 364 l 1158 454 m 703 397 l 703 501 l 1206 501 l 1206 0 l 1104 0 l 1092 442 l 1128 397 l 703 397 m 568 1331 l 717 1331 l 919 1131 l 794 1131 l 618 1275 l 668 1275 l 490 1131 l 367 1131 l 568 1331 z "},"Ģ":{"ha":1296,"x_min":68,"x_max":1206,"o":"m 1158 454 q 1120 269 1157 356 q 1016 119 1083 183 q 853 18 949 54 q 640 -18 758 -18 q 410 20 515 -18 q 228 129 306 58 q 110 299 151 200 q 68 521 68 399 q 110 742 68 643 q 231 913 153 842 q 414 1022 308 983 q 647 1060 519 1060 q 917 1008 800 1060 q 1107 867 1035 957 q 1193 663 1179 778 l 1060 663 q 989 810 1044 747 q 847 908 933 874 q 644 943 760 943 q 410 892 510 943 q 256 746 311 840 q 201 521 201 651 q 257 296 201 392 q 414 149 313 200 q 651 97 515 97 q 884 146 785 97 q 1039 279 983 194 q 1097 474 1094 364 l 1158 454 m 703 397 l 703 501 l 1206 501 l 1206 0 l 1104 0 l 1092 442 l 1128 397 l 703 397 m 563 -332 l 639 -181 l 644 -218 q 583 -197 607 -218 q 558 -144 558 -175 q 581 -89 558 -111 q 644 -67 604 -67 q 710 -90 688 -67 q 733 -147 733 -114 q 722 -195 733 -172 q 683 -264 711 -218 l 640 -332 l 563 -332 z "},"Ġ":{"ha":1296,"x_min":68,"x_max":1206,"o":"m 1158 454 q 1120 269 1157 356 q 1016 119 1083 183 q 853 18 949 54 q 640 -18 758 -18 q 410 20 515 -18 q 228 129 306 58 q 110 299 151 200 q 68 521 68 399 q 110 742 68 643 q 231 913 153 842 q 414 1022 308 983 q 647 1060 519 1060 q 917 1008 800 1060 q 1107 867 1035 957 q 1193 663 1179 778 l 1060 663 q 989 810 1044 747 q 847 908 933 874 q 644 943 760 943 q 410 892 510 943 q 256 746 311 840 q 201 521 201 651 q 257 296 201 392 q 414 149 313 200 q 651 97 515 97 q 884 146 785 97 q 1039 279 983 194 q 1097 474 1094 364 l 1158 454 m 703 397 l 703 501 l 1206 501 l 1206 0 l 1104 0 l 1092 442 l 1128 397 l 703 397 m 643 1160 q 577 1184 604 1160 q 550 1246 550 1208 q 577 1307 550 1282 q 643 1332 604 1332 q 711 1307 685 1332 q 738 1246 738 1282 q 711 1184 738 1208 q 643 1160 685 1160 z "},"Ɠ":{"ha":1293,"x_min":68,"x_max":1357,"o":"m 642 -18 q 412 20 517 -18 q 230 129 307 58 q 110 299 153 200 q 68 521 68 399 q 110 742 68 643 q 231 913 153 842 q 415 1022 308 983 q 647 1060 521 1060 q 899 1011 800 1060 q 1067 871 999 963 l 1046 850 q 988 947 1013 897 q 963 1056 963 996 q 990 1156 963 1113 q 1072 1224 1018 1199 q 1199 1249 1125 1249 q 1288 1238 1249 1249 q 1357 1213 1326 1228 l 1357 1101 q 1294 1127 1326 1117 q 1222 1138 1261 1138 q 1116 1103 1150 1138 q 1082 1015 1082 1068 q 1101 922 1082 972 q 1151 801 1119 872 q 1178 735 1165 771 q 1194 663 1190 700 l 1060 663 q 990 810 1044 747 q 847 908 935 874 q 644 943 760 943 q 410 892 510 943 q 256 746 311 840 q 201 521 201 651 q 257 295 201 390 q 414 149 313 200 q 653 97 515 97 q 885 145 786 97 q 1040 278 985 193 q 1097 474 1096 364 l 1158 454 q 1122 269 1158 356 q 1017 119 1085 183 q 854 18 949 54 q 642 -18 760 -18 m 703 397 l 703 501 l 1207 501 l 1207 0 l 1106 0 l 1092 442 l 1129 397 l 703 397 z "},"Ɂ":{"ha":949,"x_min":22,"x_max":925,"o":"m 500 1060 q 733 1023 639 1060 q 876 921 828 986 q 925 771 925 856 q 905 667 925 711 q 845 585 885 624 q 743 503 806 547 l 646 433 q 573 368 600 401 q 535 292 546 335 q 524 188 524 249 l 524 0 l 393 0 l 393 199 q 409 328 393 274 q 459 426 425 382 q 550 508 493 469 l 642 574 q 731 641 697 613 q 778 699 764 669 q 792 767 792 728 q 710 904 792 858 q 494 950 629 950 q 259 892 347 950 q 153 729 171 835 l 22 729 q 91 899 32 824 q 254 1017 150 974 q 500 1060 358 1060 z "},"Ḡ":{"ha":1296,"x_min":68,"x_max":1206,"o":"m 1158 454 q 1120 269 1157 356 q 1016 119 1083 183 q 853 18 949 54 q 640 -18 758 -18 q 410 20 515 -18 q 228 129 306 58 q 110 299 151 200 q 68 521 68 399 q 110 742 68 643 q 231 913 153 842 q 414 1022 308 983 q 647 1060 519 1060 q 917 1008 800 1060 q 1107 867 1035 957 q 1193 663 1179 778 l 1060 663 q 989 810 1044 747 q 847 908 933 874 q 644 943 760 943 q 410 892 510 943 q 256 746 311 840 q 201 521 201 651 q 257 296 201 392 q 414 149 313 200 q 651 97 515 97 q 884 146 785 97 q 1039 279 983 194 q 1097 474 1094 364 l 1158 454 m 703 397 l 703 501 l 1206 501 l 1206 0 l 1104 0 l 1092 442 l 1128 397 l 703 397 m 358 1175 l 358 1268 l 928 1268 l 928 1175 l 358 1175 z "},"Ɡ":{"ha":1293,"x_min":69,"x_max":1174,"o":"m 1043 299 l 1043 474 l 1050 500 l 1050 661 l 1043 696 l 1043 1042 l 1174 1042 l 1174 324 q 1131 70 1174 178 q 1010 -108 1088 -37 q 829 -212 933 -178 q 603 -247 725 -247 q 370 -211 478 -247 q 167 -101 263 -175 l 167 26 q 383 -96 274 -60 q 594 -132 492 -132 q 842 -78 742 -132 q 992 73 942 -24 q 1043 299 1043 169 m 535 119 q 353 153 438 119 q 204 249 268 188 q 105 398 140 311 q 69 590 69 485 q 105 783 69 696 q 204 931 140 869 q 353 1026 268 993 q 535 1060 438 1060 q 717 1029 632 1060 q 870 948 801 999 q 988 835 939 897 q 1063 708 1036 772 q 1089 589 1089 644 q 1063 468 1089 532 q 988 342 1036 404 q 870 230 939 281 q 717 149 801 179 q 535 119 632 119 m 568 233 q 831 317 711 233 q 1050 590 951 401 q 831 862 953 778 q 568 946 710 946 q 369 900 451 946 q 245 774 288 854 q 203 590 203 693 q 245 407 203 488 q 369 280 288 326 q 568 233 451 233 z "},"Ǥ":{"ha":1336,"x_min":68,"x_max":1340,"o":"m 636 364 l 1340 364 l 1340 268 l 636 268 l 636 364 m 711 542 l 1206 542 l 1206 451 l 1167 451 q 1132 257 1167 343 q 1030 109 1097 171 q 866 15 963 47 q 646 -18 769 -18 q 343 49 474 -18 q 140 238 213 117 q 68 521 68 358 q 110 742 68 643 q 231 913 153 842 q 414 1022 308 983 q 647 1060 519 1060 q 915 1009 799 1060 q 1103 871 1031 958 q 1192 671 1175 783 l 1054 671 q 985 813 1039 751 q 845 910 931 875 q 646 944 760 944 q 411 893 511 944 q 256 747 311 842 q 201 521 201 651 q 256 298 201 394 q 413 148 311 201 q 658 94 515 94 q 891 133 793 94 q 1042 246 989 171 q 1094 431 1094 321 l 1094 483 l 1133 439 l 711 439 l 711 542 m 1099 521 l 1206 521 l 1206 1 l 1110 1 l 1099 521 z "},"Ȝ":{"ha":1057,"x_min":36,"x_max":994,"o":"m 86 1042 l 953 1042 l 953 938 l 494 569 l 481 614 l 572 614 q 810 576 717 614 q 949 472 903 539 q 994 314 994 404 q 939 142 994 217 q 780 24 883 67 q 529 -18 676 -18 q 275 25 383 -18 q 105 146 167 68 q 36 326 43 224 l 167 326 q 274 153 182 215 q 529 92 367 92 q 774 150 688 92 q 861 318 861 208 q 830 426 861 381 q 726 497 799 472 q 532 522 654 522 l 403 522 l 403 625 l 874 1006 l 900 931 l 86 931 l 86 1042 z "},"H":{"ha":1243,"x_min":126,"x_max":1118,"o":"m 126 1042 l 257 1042 l 257 0 l 126 0 l 126 1042 m 988 1042 l 1118 1042 l 1118 0 l 988 0 l 988 1042 m 193 581 l 1058 581 l 1058 465 l 193 465 l 193 581 z "},"Ħ":{"ha":1276,"x_min":32,"x_max":1244,"o":"m 142 1042 l 272 1042 l 272 0 l 142 0 l 142 1042 m 1004 1042 l 1135 1042 l 1135 0 l 1004 0 l 1004 1042 m 204 572 l 1069 572 l 1069 457 l 204 457 l 204 572 m 32 896 l 1244 896 l 1244 793 l 32 793 l 32 896 z "},"Ḫ":{"ha":1243,"x_min":126,"x_max":1118,"o":"m 126 1042 l 257 1042 l 257 0 l 126 0 l 126 1042 m 988 1042 l 1118 1042 l 1118 0 l 988 0 l 988 1042 m 193 581 l 1058 581 l 1058 465 l 193 465 l 193 581 m 358 -58 l 465 -58 q 520 -160 478 -124 q 626 -197 563 -197 q 734 -160 692 -197 q 789 -58 776 -124 l 894 -58 q 812 -226 882 -165 q 626 -286 742 -286 q 442 -226 513 -286 q 358 -58 372 -165 z "},"Ȟ":{"ha":1243,"x_min":126,"x_max":1118,"o":"m 126 1042 l 257 1042 l 257 0 l 126 0 l 126 1042 m 988 1042 l 1118 1042 l 1118 0 l 988 0 l 988 1042 m 193 581 l 1058 581 l 1058 465 l 193 465 l 193 581 m 696 1131 l 547 1131 l 346 1331 l 469 1331 l 647 1186 l 597 1186 l 774 1331 l 897 1331 l 696 1131 z "},"Ḩ":{"ha":1243,"x_min":-10,"x_max":1118,"o":"m 126 1042 l 257 1042 l 257 0 l 126 0 l 126 1042 m 988 1042 l 1118 1042 l 1118 0 l 988 0 l 988 1042 m 193 581 l 1058 581 l 1058 465 l 193 465 l 193 581 m 156 11 l 240 11 l 169 -101 l 135 -99 q 192 -71 163 -79 q 265 -62 221 -62 q 382 -94 339 -62 q 425 -179 425 -125 q 370 -274 425 -237 q 219 -310 315 -310 q 72 -276 135 -310 q -10 -187 10 -243 l 93 -187 q 141 -222 110 -210 q 219 -235 172 -235 q 298 -218 274 -235 q 322 -178 322 -201 q 300 -141 322 -154 q 236 -128 278 -128 q 181 -133 204 -128 q 143 -144 158 -137 l 57 -144 l 156 11 z "},"Ĥ":{"ha":1243,"x_min":126,"x_max":1118,"o":"m 126 1042 l 257 1042 l 257 0 l 126 0 l 126 1042 m 988 1042 l 1118 1042 l 1118 0 l 988 0 l 988 1042 m 193 581 l 1058 581 l 1058 465 l 193 465 l 193 581 m 547 1331 l 696 1331 l 899 1131 l 774 1131 l 597 1275 l 647 1275 l 469 1131 l 346 1131 l 547 1331 z "},"Ḧ":{"ha":1243,"x_min":126,"x_max":1118,"o":"m 126 1042 l 257 1042 l 257 0 l 126 0 l 126 1042 m 988 1042 l 1118 1042 l 1118 0 l 988 0 l 988 1042 m 193 581 l 1058 581 l 1058 465 l 193 465 l 193 581 m 415 1160 q 351 1184 376 1160 q 325 1244 325 1208 q 351 1304 325 1281 q 415 1328 376 1328 q 481 1304 456 1328 q 507 1244 507 1281 q 481 1184 507 1208 q 415 1160 456 1160 m 829 1160 q 763 1184 789 1160 q 738 1244 738 1208 q 763 1304 738 1281 q 829 1328 789 1328 q 894 1304 868 1328 q 919 1244 919 1281 q 894 1184 919 1208 q 829 1160 868 1160 z "},"Ḣ":{"ha":1243,"x_min":126,"x_max":1118,"o":"m 126 1042 l 257 1042 l 257 0 l 126 0 l 126 1042 m 988 1042 l 1118 1042 l 1118 0 l 988 0 l 988 1042 m 193 581 l 1058 581 l 1058 465 l 193 465 l 193 581 m 621 1160 q 555 1184 582 1160 q 528 1246 528 1208 q 555 1307 528 1282 q 621 1332 582 1332 q 689 1307 663 1332 q 715 1246 715 1282 q 689 1184 715 1208 q 621 1160 663 1160 z "},"Ḥ":{"ha":1243,"x_min":126,"x_max":1118,"o":"m 126 1042 l 257 1042 l 257 0 l 126 0 l 126 1042 m 988 1042 l 1118 1042 l 1118 0 l 988 0 l 988 1042 m 193 581 l 1058 581 l 1058 465 l 193 465 l 193 581 m 621 -257 q 555 -233 582 -257 q 528 -171 528 -208 q 555 -110 528 -135 q 621 -86 582 -86 q 689 -110 663 -86 q 715 -171 715 -135 q 689 -233 715 -208 q 621 -257 663 -257 z "},"Ꜧ":{"ha":1243,"x_min":126,"x_max":1118,"o":"m 126 1042 l 257 1042 l 257 0 l 126 0 l 126 1042 m 193 581 l 1058 581 l 1058 465 l 193 465 l 193 581 m 988 1042 l 1118 1042 l 1118 19 q 1089 -117 1118 -57 q 995 -212 1060 -178 q 822 -247 931 -247 q 690 -231 750 -247 q 597 -197 629 -214 l 597 -87 q 699 -126 643 -112 q 811 -139 754 -139 q 948 -98 908 -139 q 988 46 988 -57 l 988 1042 z "},"Ɦ":{"ha":1489,"x_min":33,"x_max":1364,"o":"m 503 1042 l 503 0 l 372 0 l 372 988 l 424 931 l 285 931 q 190 903 225 931 q 156 811 156 876 q 167 726 156 767 q 194 643 178 686 l 83 643 q 49 731 65 681 q 33 833 33 782 q 93 989 33 936 q 257 1042 153 1042 l 503 1042 m 1233 1042 l 1364 1042 l 1364 0 l 1233 0 l 1233 1042 m 439 581 l 1304 581 l 1304 465 l 439 465 l 439 581 z "},"Ɥ":{"ha":1113,"x_min":85,"x_max":986,"o":"m 85 1042 l 215 1042 l 215 465 l 85 465 l 85 1042 m 856 1042 l 986 1042 l 986 0 l 856 0 l 856 1042 m 153 581 l 926 581 l 926 465 l 153 465 l 153 581 z "},"I":{"ha":382,"x_min":126,"x_max":257,"o":"m 126 1042 l 257 1042 l 257 0 l 126 0 l 126 1042 z "},"Ĳ":{"ha":1121,"x_min":96,"x_max":1007,"o":"m 96 1042 l 226 1042 l 226 561 l 96 561 l 96 1042 m 96 464 l 225 464 l 225 413 q 302 180 225 264 q 551 96 379 96 q 799 178 721 96 q 876 407 876 261 l 876 1042 l 1007 1042 l 1007 404 q 949 167 1007 260 q 789 28 892 74 q 551 -18 686 -18 q 314 28 417 -18 q 153 168 211 74 q 96 407 96 263 l 96 464 z "},"Í":{"ha":382,"x_min":88,"x_max":449,"o":"m 126 1042 l 257 1042 l 257 0 l 126 0 l 126 1042 m 290 1331 l 449 1331 l 228 1131 l 89 1131 l 290 1331 z "},"Ĭ":{"ha":382,"x_min":-39,"x_max":421,"o":"m -39 1331 l 60 1331 q 103 1242 71 1274 q 192 1211 136 1211 q 280 1242 247 1211 q 324 1331 313 1274 l 421 1331 q 349 1180 410 1235 q 190 1125 289 1125 q 33 1180 94 1125 q -39 1331 -28 1235 m 126 1042 l 257 1042 l 257 0 l 126 0 l 126 1042 z "},"Ǐ":{"ha":382,"x_min":-85,"x_max":467,"o":"m 126 1042 l 257 1042 l 257 0 l 126 0 l 126 1042 m 265 1131 l 117 1131 l -85 1331 l 39 1331 l 217 1186 l 167 1186 l 343 1331 l 467 1331 l 265 1131 z "},"Î":{"ha":382,"x_min":-39,"x_max":421,"o":"m 119 1331 l 264 1331 l 421 1131 l 308 1131 l 175 1272 l 207 1272 l 74 1131 l -39 1131 l 119 1331 m 126 1042 l 257 1042 l 257 0 l 126 0 l 126 1042 z "},"Ȉ":{"ha":382,"x_min":-93,"x_max":379,"o":"m 260 1331 l 379 1131 l 263 1131 l 139 1331 l 260 1331 m 28 1331 l 147 1131 l 32 1131 l -93 1331 l 28 1331 m 126 1042 l 257 1042 l 257 0 l 126 0 l 126 1042 z "},"Ï":{"ha":382,"x_min":-18,"x_max":400,"o":"m 67 1160 q 6 1183 29 1160 q -18 1244 -18 1207 q 6 1304 -18 1281 q 67 1328 29 1328 q 126 1304 103 1328 q 150 1244 150 1281 q 126 1183 150 1207 q 67 1160 103 1160 m 317 1160 q 257 1183 281 1160 q 233 1244 233 1207 q 257 1304 233 1281 q 317 1328 281 1328 q 376 1304 353 1328 q 400 1244 400 1281 q 376 1183 400 1207 q 317 1160 353 1160 m 126 1042 l 257 1042 l 257 0 l 126 0 l 126 1042 z "},"Ḯ":{"ha":382,"x_min":-18,"x_max":449,"o":"m 67 1160 q 6 1183 29 1160 q -18 1244 -18 1207 q 6 1304 -18 1281 q 67 1328 29 1328 q 126 1304 103 1328 q 150 1244 150 1281 q 126 1183 150 1207 q 67 1160 103 1160 m 317 1160 q 257 1183 281 1160 q 233 1244 233 1207 q 257 1304 233 1281 q 317 1328 281 1328 q 376 1304 353 1328 q 400 1244 400 1281 q 376 1183 400 1207 q 317 1160 353 1160 m 126 1042 l 257 1042 l 257 0 l 126 0 l 126 1042 m 290 1589 l 449 1589 l 228 1390 l 88 1390 l 290 1589 z "},"İ":{"ha":382,"x_min":97,"x_max":285,"o":"m 126 1042 l 257 1042 l 257 0 l 126 0 l 126 1042 m 190 1160 q 124 1184 151 1160 q 97 1246 97 1208 q 124 1307 97 1282 q 190 1332 151 1332 q 258 1307 232 1332 q 285 1246 285 1282 q 258 1184 285 1208 q 190 1160 232 1160 z "},"Ị":{"ha":382,"x_min":97,"x_max":285,"o":"m 126 1042 l 257 1042 l 257 0 l 126 0 l 126 1042 m 190 -257 q 124 -233 151 -257 q 97 -171 97 -208 q 124 -110 97 -135 q 190 -86 151 -86 q 258 -110 232 -86 q 285 -171 285 -135 q 258 -233 285 -208 q 190 -257 232 -257 z "},"Ì":{"ha":382,"x_min":-85,"x_max":275,"o":"m 126 1042 l 257 1042 l 257 0 l 126 0 l 126 1042 m 74 1331 l 275 1131 l 136 1131 l -85 1331 l 74 1331 z "},"Ỉ":{"ha":382,"x_min":26,"x_max":363,"o":"m 126 1042 l 257 1042 l 257 0 l 126 0 l 126 1042 m 151 1111 l 117 1174 q 215 1203 183 1185 q 247 1244 247 1221 q 222 1277 247 1267 q 149 1288 196 1288 q 85 1283 114 1288 q 26 1271 56 1278 l 26 1357 q 89 1370 51 1364 q 169 1376 126 1376 q 312 1346 261 1376 q 363 1257 363 1315 q 312 1166 363 1203 q 151 1111 261 1129 z "},"Ȋ":{"ha":382,"x_min":-81,"x_max":463,"o":"m 126 1042 l 257 1042 l 257 0 l 126 0 l 126 1042 m 463 1129 l 356 1129 q 299 1214 340 1183 q 192 1244 258 1244 q 83 1214 124 1244 q 26 1129 42 1183 l -81 1129 q 13 1281 -60 1228 q 192 1335 86 1335 q 369 1281 297 1335 q 463 1129 442 1228 z "},"Ī":{"ha":382,"x_min":-28,"x_max":411,"o":"m -28 1174 l -28 1268 l 411 1268 l 411 1174 l -28 1174 m 126 1042 l 257 1042 l 257 0 l 126 0 l 126 1042 z "},"Į":{"ha":382,"x_min":33,"x_max":308,"o":"m 181 18 l 225 18 l 225 0 l 257 0 q 173 -55 207 -28 q 139 -118 139 -82 q 225 -169 139 -169 q 268 -167 243 -169 q 308 -161 293 -165 l 308 -247 q 263 -258 293 -253 q 201 -262 232 -262 q 79 -231 125 -262 q 33 -143 33 -199 q 72 -53 33 -93 q 181 18 111 -14 m 126 1042 l 257 1042 l 257 0 l 126 0 l 126 1042 z "},"Ɩ":{"ha":465,"x_min":121,"x_max":436,"o":"m 121 1042 l 251 1042 l 251 217 q 275 124 251 154 q 356 93 299 93 q 397 98 376 93 q 436 108 418 103 l 436 0 q 386 -12 414 -7 q 325 -18 358 -18 q 169 42 218 -18 q 121 211 121 103 l 121 1042 z "},"Ɨ":{"ha":443,"x_min":22,"x_max":422,"o":"m 22 482 l 22 585 l 422 585 l 422 482 l 22 482 m 157 1042 l 288 1042 l 288 0 l 157 0 l 157 1042 z "},"Ĩ":{"ha":382,"x_min":-33,"x_max":415,"o":"m -33 1143 q 7 1274 -28 1225 q 100 1322 42 1322 q 155 1309 131 1322 q 199 1278 179 1296 q 236 1248 218 1261 q 275 1235 254 1235 q 313 1258 299 1235 q 333 1322 328 1281 l 415 1322 q 376 1192 410 1242 q 283 1143 342 1143 q 228 1156 251 1143 q 185 1187 204 1169 q 147 1217 165 1204 q 108 1231 129 1231 q 71 1208 86 1231 q 50 1143 56 1185 l -33 1143 m 126 1042 l 257 1042 l 257 0 l 126 0 l 126 1042 z "},"Ḭ":{"ha":382,"x_min":-33,"x_max":415,"o":"m -33 -240 q 7 -110 -28 -158 q 100 -61 42 -61 q 155 -74 131 -61 q 199 -105 179 -87 q 236 -135 218 -122 q 275 -149 254 -149 q 313 -126 299 -149 q 333 -61 328 -103 l 415 -61 q 376 -191 410 -142 q 283 -240 342 -240 q 228 -227 251 -240 q 185 -197 204 -214 q 147 -166 165 -179 q 108 -153 129 -153 q 71 -176 86 -153 q 50 -240 56 -199 l -33 -240 m 126 1042 l 257 1042 l 257 0 l 126 0 l 126 1042 z "},"J":{"ha":1063,"x_min":40,"x_max":949,"o":"m 40 492 l 168 492 l 168 440 q 245 191 168 282 q 493 100 322 100 q 741 189 664 100 q 818 435 818 278 l 818 1042 l 949 1042 l 949 432 q 891 178 949 278 q 731 31 833 79 q 493 -18 628 -18 q 257 31 360 -18 q 97 180 154 79 q 40 435 40 281 l 40 492 z "},"Ĵ":{"ha":1063,"x_min":40,"x_max":1114,"o":"m 811 1331 l 956 1331 l 1114 1131 l 1001 1131 l 868 1272 l 900 1272 l 767 1131 l 654 1131 l 811 1331 m 40 492 l 168 492 l 168 440 q 245 191 168 282 q 493 100 322 100 q 741 189 664 100 q 818 435 818 278 l 818 1042 l 949 1042 l 949 432 q 891 178 949 278 q 731 31 833 79 q 493 -18 628 -18 q 257 31 360 -18 q 97 180 154 79 q 40 435 40 281 l 40 492 z "},"Ʝ":{"ha":1133,"x_min":26,"x_max":1078,"o":"m 942 432 q 888 194 942 296 q 726 38 835 93 q 449 -18 617 -18 q 217 19 311 -18 q 75 117 124 57 q 26 249 26 178 q 56 356 26 308 q 140 437 85 403 q 277 490 196 471 q 463 508 358 508 q 706 476 590 508 q 917 392 821 444 q 1078 276 1014 339 l 1078 144 q 963 240 1029 194 q 817 322 896 286 q 648 379 738 358 q 464 400 558 400 q 233 356 307 400 q 160 247 160 313 q 190 174 160 208 q 285 118 221 139 q 449 97 349 97 q 724 184 636 97 q 811 433 811 271 l 811 1042 l 942 1042 l 942 432 z "},"Ɉ":{"ha":1107,"x_min":40,"x_max":1085,"o":"m 492 663 l 1085 663 l 1085 560 l 492 560 l 492 663 m 40 492 l 168 492 l 168 440 q 245 191 168 282 q 493 100 322 100 q 741 189 664 100 q 818 435 818 278 l 818 1042 l 949 1042 l 949 432 q 891 178 949 278 q 731 31 833 79 q 493 -18 628 -18 q 257 31 360 -18 q 97 180 154 79 q 40 435 40 281 l 40 492 z "},"K":{"ha":1131,"x_min":126,"x_max":1125,"o":"m 126 0 l 126 1042 l 257 1042 l 257 117 l 211 138 l 964 1042 l 1108 1042 l 240 0 l 126 0 m 621 538 l 708 639 l 1125 0 l 974 0 l 621 538 z "},"Ḱ":{"ha":1131,"x_min":126,"x_max":1125,"o":"m 126 0 l 126 1042 l 257 1042 l 257 117 l 211 138 l 964 1042 l 1108 1042 l 240 0 l 126 0 m 621 538 l 708 639 l 1125 0 l 974 0 l 621 538 m 699 1331 l 857 1331 l 636 1131 l 497 1131 l 699 1331 z "},"Ǩ":{"ha":1131,"x_min":126,"x_max":1125,"o":"m 126 0 l 126 1042 l 257 1042 l 257 117 l 211 138 l 964 1042 l 1108 1042 l 240 0 l 126 0 m 621 538 l 708 639 l 1125 0 l 974 0 l 621 538 m 675 1131 l 526 1131 l 324 1331 l 449 1331 l 625 1186 l 575 1186 l 753 1331 l 876 1331 l 675 1131 z "},"Ķ":{"ha":1131,"x_min":126,"x_max":1125,"o":"m 126 0 l 126 1042 l 257 1042 l 257 117 l 211 138 l 964 1042 l 1108 1042 l 240 0 l 126 0 m 621 538 l 708 639 l 1125 0 l 974 0 l 621 538 m 517 -332 l 593 -181 l 599 -218 q 537 -197 561 -218 q 513 -144 513 -175 q 535 -89 513 -111 q 599 -67 558 -67 q 665 -90 642 -67 q 688 -147 688 -114 q 676 -195 688 -172 q 638 -264 665 -218 l 594 -332 l 517 -332 z "},"Ḳ":{"ha":1131,"x_min":126,"x_max":1125,"o":"m 126 0 l 126 1042 l 257 1042 l 257 117 l 211 138 l 964 1042 l 1108 1042 l 240 0 l 126 0 m 621 538 l 708 639 l 1125 0 l 974 0 l 621 538 m 597 -257 q 531 -233 558 -257 q 504 -171 504 -208 q 531 -110 504 -135 q 597 -86 558 -86 q 665 -110 639 -86 q 692 -171 692 -135 q 665 -233 692 -208 q 597 -257 639 -257 z "},"Ƙ":{"ha":1144,"x_min":126,"x_max":1125,"o":"m 592 551 l 678 653 l 1125 0 l 974 0 l 592 551 m 126 0 l 126 1042 l 257 1042 l 257 117 l 210 138 l 829 961 q 876 1012 851 989 q 935 1047 901 1035 q 1013 1060 968 1060 q 1072 1053 1046 1060 q 1119 1040 1099 1047 l 1119 931 q 1071 944 1092 939 q 1025 949 1050 949 q 957 929 983 949 q 910 882 931 910 l 240 0 l 126 0 z "},"Ḵ":{"ha":1131,"x_min":126,"x_max":1125,"o":"m 126 0 l 126 1042 l 257 1042 l 257 117 l 211 138 l 964 1042 l 1108 1042 l 240 0 l 126 0 m 621 538 l 708 639 l 1125 0 l 974 0 l 621 538 m 314 -192 l 314 -99 l 883 -99 l 883 -192 l 314 -192 z "},"L":{"ha":1006,"x_min":126,"x_max":986,"o":"m 257 1042 l 257 58 l 199 115 l 986 115 l 986 0 l 126 0 l 126 1042 l 257 1042 z "},"Ǉ":{"ha":2036,"x_min":126,"x_max":1922,"o":"m 257 1042 l 257 58 l 199 115 l 986 115 l 986 0 l 126 0 l 126 1042 l 257 1042 m 1014 492 l 1142 492 l 1142 440 q 1219 191 1142 282 q 1467 100 1296 100 q 1715 189 1638 100 q 1792 435 1792 278 l 1792 1042 l 1922 1042 l 1922 432 q 1865 178 1922 278 q 1704 31 1807 79 q 1467 -18 1601 -18 q 1231 31 1333 -18 q 1071 180 1128 79 q 1014 435 1014 281 l 1014 492 z "},"Ĺ":{"ha":1006,"x_min":88,"x_max":986,"o":"m 257 1042 l 257 58 l 199 115 l 986 115 l 986 0 l 126 0 l 126 1042 l 257 1042 m 290 1331 l 449 1331 l 228 1131 l 89 1131 l 290 1331 z "},"Ƚ":{"ha":1038,"x_min":22,"x_max":1017,"o":"m 22 615 l 681 615 l 681 513 l 22 513 l 22 615 m 288 1042 l 288 58 l 229 115 l 1017 115 l 1017 0 l 157 0 l 157 1042 l 288 1042 z "},"Ɬ":{"ha":1176,"x_min":18,"x_max":1157,"o":"m 189 726 q 293 700 250 726 q 360 626 336 674 q 383 513 383 578 l 383 357 l 321 357 l 321 490 q 285 599 321 564 q 200 633 250 633 q 144 616 163 633 q 125 571 125 599 q 153 517 125 539 q 251 494 181 494 q 297 497 275 494 q 344 504 318 500 l 392 519 q 546 582 468 539 q 710 690 624 625 l 710 576 q 560 481 643 525 q 393 417 476 438 l 349 407 q 296 400 325 403 q 240 397 267 397 q 77 444 136 397 q 18 569 18 490 q 63 682 18 638 q 189 726 108 726 m 428 1042 l 428 58 l 369 115 l 1157 115 l 1157 0 l 297 0 l 297 1042 l 428 1042 z "},"Ľ":{"ha":1006,"x_min":126,"x_max":986,"o":"m 257 1042 l 257 58 l 199 115 l 986 115 l 986 0 l 126 0 l 126 1042 l 257 1042 m 563 1042 l 685 1042 l 626 744 l 526 744 l 563 1042 z "},"Ḽ":{"ha":1006,"x_min":126,"x_max":986,"o":"m 257 1042 l 257 58 l 199 115 l 986 115 l 986 0 l 126 0 l 126 1042 l 257 1042 m 504 -57 l 649 -57 l 847 -285 l 729 -285 l 551 -108 l 601 -108 l 425 -285 l 306 -285 l 504 -57 z "},"Ļ":{"ha":1006,"x_min":126,"x_max":986,"o":"m 257 1042 l 257 58 l 199 115 l 986 115 l 986 0 l 126 0 l 126 1042 l 257 1042 m 496 -332 l 572 -181 l 578 -218 q 516 -197 540 -218 q 492 -144 492 -175 q 515 -89 492 -111 q 578 -67 538 -67 q 644 -90 621 -67 q 667 -147 667 -114 q 656 -195 667 -172 q 617 -264 644 -218 l 574 -332 l 496 -332 z "},"Ŀ":{"ha":1006,"x_min":126,"x_max":986,"o":"m 257 1042 l 257 58 l 199 115 l 986 115 l 986 0 l 126 0 l 126 1042 l 257 1042 m 694 500 q 642 513 665 500 q 606 549 619 526 q 593 601 593 572 q 606 653 593 631 q 642 690 619 676 q 694 703 665 703 q 747 689 724 703 q 783 652 769 675 q 796 601 796 629 q 782 549 796 572 q 745 513 768 526 q 694 500 722 500 z "},"Ḷ":{"ha":1006,"x_min":126,"x_max":986,"o":"m 257 1042 l 257 58 l 199 115 l 986 115 l 986 0 l 126 0 l 126 1042 l 257 1042 m 576 -257 q 510 -233 538 -257 q 483 -171 483 -208 q 510 -110 483 -135 q 576 -86 538 -86 q 644 -110 618 -86 q 671 -171 671 -135 q 644 -233 671 -208 q 576 -257 618 -257 z "},"Ḹ":{"ha":1006,"x_min":-93,"x_max":986,"o":"m 257 1042 l 257 58 l 199 115 l 986 115 l 986 0 l 126 0 l 126 1042 l 257 1042 m 576 -257 q 510 -233 538 -257 q 483 -171 483 -208 q 510 -110 483 -135 q 576 -86 538 -86 q 644 -110 618 -86 q 671 -171 671 -135 q 644 -233 671 -208 q 576 -257 618 -257 m -93 1175 l -93 1268 l 476 1268 l 476 1175 l -93 1175 z "},"ǈ":{"ha":1340,"x_min":126,"x_max":1267,"o":"m 257 1042 l 257 58 l 199 115 l 986 115 l 986 0 l 126 0 l 126 1042 l 257 1042 m 1110 785 l 1174 774 l 1238 785 l 1238 -229 l 1110 -229 l 1110 785 m 1172 900 q 1106 924 1133 900 q 1079 986 1079 949 q 1106 1047 1079 1022 q 1172 1071 1133 1071 q 1240 1047 1214 1071 q 1267 986 1267 1022 q 1240 924 1267 949 q 1172 900 1214 900 z "},"Ḻ":{"ha":1006,"x_min":126,"x_max":986,"o":"m 257 1042 l 257 58 l 199 115 l 986 115 l 986 0 l 126 0 l 126 1042 l 257 1042 m 292 -192 l 292 -99 l 861 -99 l 861 -192 l 292 -192 z "},"Ł":{"ha":1071,"x_min":47,"x_max":1050,"o":"m 47 550 l 700 726 l 700 622 l 47 446 l 47 550 m 321 1042 l 321 58 l 263 115 l 1050 115 l 1050 0 l 190 0 l 190 1042 l 321 1042 z "},"M":{"ha":1592,"x_min":126,"x_max":1465,"o":"m 1465 1042 l 1465 0 l 1340 0 l 1340 1011 l 1392 1010 l 865 0 l 726 0 l 200 1008 l 251 1010 l 251 0 l 126 0 l 126 1042 l 324 1042 l 838 44 l 756 44 l 1268 1042 l 1465 1042 z "},"Ḿ":{"ha":1592,"x_min":126,"x_max":1465,"o":"m 1465 1042 l 1465 0 l 1340 0 l 1340 1011 l 1392 1010 l 865 0 l 726 0 l 200 1008 l 251 1010 l 251 0 l 126 0 l 126 1042 l 324 1042 l 838 44 l 756 44 l 1268 1042 l 1465 1042 m 894 1331 l 1053 1331 l 832 1131 l 693 1131 l 894 1331 z "},"Ṁ":{"ha":1592,"x_min":126,"x_max":1465,"o":"m 1465 1042 l 1465 0 l 1340 0 l 1340 1011 l 1392 1010 l 865 0 l 726 0 l 200 1008 l 251 1010 l 251 0 l 126 0 l 126 1042 l 324 1042 l 838 44 l 756 44 l 1268 1042 l 1465 1042 m 796 1160 q 730 1184 757 1160 q 703 1246 703 1208 q 730 1307 703 1282 q 796 1332 757 1332 q 864 1307 838 1332 q 890 1246 890 1282 q 864 1184 890 1208 q 796 1160 838 1160 z "},"Ṃ":{"ha":1592,"x_min":126,"x_max":1465,"o":"m 1465 1042 l 1465 0 l 1340 0 l 1340 1011 l 1392 1010 l 865 0 l 726 0 l 200 1008 l 251 1010 l 251 0 l 126 0 l 126 1042 l 324 1042 l 838 44 l 756 44 l 1268 1042 l 1465 1042 m 796 -257 q 730 -233 757 -257 q 703 -171 703 -208 q 730 -110 703 -135 q 796 -86 757 -86 q 864 -110 838 -86 q 890 -171 890 -135 q 864 -233 890 -208 q 796 -257 838 -257 z "},"Ɱ":{"ha":1592,"x_min":126,"x_max":1465,"o":"m 1340 51 l 1340 1011 l 1392 1010 l 865 0 l 726 0 l 200 1008 l 251 1010 l 251 0 l 126 0 l 126 1042 l 324 1042 l 838 44 l 756 44 l 1268 1042 l 1465 1042 l 1465 33 q 1399 -172 1465 -96 q 1200 -247 1333 -247 q 1113 -237 1156 -247 q 1038 -211 1071 -226 l 1038 -100 q 1100 -125 1064 -114 q 1176 -136 1136 -136 q 1299 -90 1258 -136 q 1340 51 1340 -44 z "},"Ɯ":{"ha":1613,"x_min":118,"x_max":1525,"o":"m 1525 0 l 1394 0 l 1350 267 l 1350 1042 l 1481 1042 l 1481 247 l 1525 0 m 1051 -18 q 879 26 950 -18 q 771 153 808 69 q 733 353 733 236 l 733 1042 l 864 1042 l 864 374 q 922 169 864 239 q 1090 99 981 99 q 1227 137 1169 99 q 1317 242 1285 175 q 1350 399 1350 310 l 1401 363 q 1345 160 1392 246 q 1223 28 1299 75 q 1051 -18 1147 -18 m 438 -18 q 265 26 336 -18 q 156 153 193 69 q 118 353 118 236 l 118 1042 l 249 1042 l 249 374 q 306 169 249 239 q 474 99 364 99 q 611 137 553 99 q 701 242 669 175 q 733 399 733 310 l 788 363 q 732 160 779 246 q 609 28 685 75 q 438 -18 533 -18 z "},"N":{"ha":1275,"x_min":126,"x_max":1150,"o":"m 1088 65 l 1024 61 l 1024 1042 l 1150 1042 l 1150 0 l 982 0 l 189 981 l 253 985 l 253 0 l 126 0 l 126 1042 l 296 1042 l 1088 65 z "},"Ǌ":{"ha":2338,"x_min":126,"x_max":2224,"o":"m 1088 65 l 1024 61 l 1024 1042 l 1150 1042 l 1150 0 l 982 0 l 189 981 l 253 985 l 253 0 l 126 0 l 126 1042 l 296 1042 l 1088 65 m 1315 492 l 1443 492 l 1443 440 q 1520 191 1443 282 q 1768 100 1597 100 q 2016 189 1939 100 q 2093 435 2093 278 l 2093 1042 l 2224 1042 l 2224 432 q 2166 178 2224 278 q 2006 31 2108 79 q 1768 -18 1903 -18 q 1532 31 1635 -18 q 1372 180 1429 79 q 1315 435 1315 281 l 1315 492 z "},"Ń":{"ha":1275,"x_min":126,"x_max":1150,"o":"m 1088 65 l 1024 61 l 1024 1042 l 1150 1042 l 1150 0 l 982 0 l 189 981 l 253 985 l 253 0 l 126 0 l 126 1042 l 296 1042 l 1088 65 m 754 1331 l 913 1331 l 692 1131 l 553 1131 l 754 1331 z "},"Ň":{"ha":1275,"x_min":126,"x_max":1150,"o":"m 1088 65 l 1024 61 l 1024 1042 l 1150 1042 l 1150 0 l 982 0 l 189 981 l 253 985 l 253 0 l 126 0 l 126 1042 l 296 1042 l 1088 65 m 729 1131 l 581 1131 l 379 1331 l 503 1331 l 681 1186 l 631 1186 l 807 1331 l 931 1331 l 729 1131 z "},"Ṋ":{"ha":1275,"x_min":126,"x_max":1150,"o":"m 1088 65 l 1024 61 l 1024 1042 l 1150 1042 l 1150 0 l 982 0 l 189 981 l 253 985 l 253 0 l 126 0 l 126 1042 l 296 1042 l 1088 65 m 567 -57 l 711 -57 l 910 -285 l 792 -285 l 614 -108 l 664 -108 l 488 -285 l 368 -285 l 567 -57 z "},"Ņ":{"ha":1275,"x_min":126,"x_max":1150,"o":"m 1088 65 l 1024 61 l 1024 1042 l 1150 1042 l 1150 0 l 982 0 l 189 981 l 253 985 l 253 0 l 126 0 l 126 1042 l 296 1042 l 1088 65 m 557 -332 l 633 -181 l 639 -218 q 577 -197 601 -218 q 553 -144 553 -175 q 576 -89 553 -111 q 639 -67 599 -67 q 705 -90 682 -67 q 728 -147 728 -114 q 717 -195 728 -172 q 678 -264 706 -218 l 635 -332 l 557 -332 z "},"Ṅ":{"ha":1275,"x_min":126,"x_max":1150,"o":"m 1088 65 l 1024 61 l 1024 1042 l 1150 1042 l 1150 0 l 982 0 l 189 981 l 253 985 l 253 0 l 126 0 l 126 1042 l 296 1042 l 1088 65 m 654 1160 q 588 1184 615 1160 q 561 1246 561 1208 q 588 1307 561 1282 q 654 1332 615 1332 q 722 1307 696 1332 q 749 1246 749 1282 q 722 1184 749 1208 q 654 1160 696 1160 z "},"Ṇ":{"ha":1275,"x_min":126,"x_max":1150,"o":"m 1088 65 l 1024 61 l 1024 1042 l 1150 1042 l 1150 0 l 982 0 l 189 981 l 253 985 l 253 0 l 126 0 l 126 1042 l 296 1042 l 1088 65 m 638 -257 q 572 -233 599 -257 q 544 -171 544 -208 q 572 -110 544 -135 q 638 -86 599 -86 q 706 -110 679 -86 q 732 -171 732 -135 q 706 -233 732 -208 q 638 -257 679 -257 z "},"Ǹ":{"ha":1275,"x_min":126,"x_max":1150,"o":"m 1088 65 l 1024 61 l 1024 1042 l 1150 1042 l 1150 0 l 982 0 l 189 981 l 253 985 l 253 0 l 126 0 l 126 1042 l 296 1042 l 1088 65 m 538 1331 l 739 1131 l 600 1131 l 379 1331 l 538 1331 z "},"Ɲ":{"ha":1275,"x_min":-176,"x_max":1150,"o":"m 126 1042 l 296 1042 l 1088 65 l 1024 61 l 1024 1042 l 1150 1042 l 1150 0 l 982 0 l 189 981 l 253 985 l 253 39 q 183 -171 253 -94 q -24 -247 114 -247 q -106 -237 -67 -247 q -176 -214 -144 -228 l -176 -103 q -115 -125 -150 -115 q -43 -135 -79 -135 q 85 -89 43 -135 q 126 53 126 -43 l 126 1042 z "},"ǋ":{"ha":1610,"x_min":126,"x_max":1536,"o":"m 1088 65 l 1024 61 l 1024 1042 l 1150 1042 l 1150 0 l 982 0 l 189 981 l 253 985 l 253 0 l 126 0 l 126 1042 l 296 1042 l 1088 65 m 1379 785 l 1443 774 l 1507 785 l 1507 -229 l 1379 -229 l 1379 785 m 1442 900 q 1376 924 1403 900 q 1349 986 1349 949 q 1376 1047 1349 1022 q 1442 1071 1403 1071 q 1510 1047 1483 1071 q 1536 986 1536 1022 q 1510 924 1536 949 q 1442 900 1483 900 z "},"Ṉ":{"ha":1275,"x_min":126,"x_max":1150,"o":"m 1088 65 l 1024 61 l 1024 1042 l 1150 1042 l 1150 0 l 982 0 l 189 981 l 253 985 l 253 0 l 126 0 l 126 1042 l 296 1042 l 1088 65 m 354 -192 l 354 -99 l 924 -99 l 924 -192 l 354 -192 z "},"Ƞ":{"ha":1182,"x_min":126,"x_max":1067,"o":"m 126 1042 l 257 1042 l 257 0 l 126 0 l 126 1042 m 658 1060 q 878 1011 788 1060 q 1018 871 969 963 q 1067 649 1067 779 l 1067 -229 l 936 -229 l 936 619 q 854 860 936 778 q 617 942 772 942 q 426 903 507 942 q 301 793 344 864 q 257 629 257 722 l 203 658 q 274 876 214 786 q 432 1013 333 965 q 658 1060 531 1060 z "},"Ñ":{"ha":1275,"x_min":126,"x_max":1150,"o":"m 1088 65 l 1024 61 l 1024 1042 l 1150 1042 l 1150 0 l 982 0 l 189 981 l 253 985 l 253 0 l 126 0 l 126 1042 l 296 1042 l 1088 65 m 350 1142 q 401 1272 357 1222 q 521 1322 444 1322 q 594 1309 557 1322 q 665 1279 631 1296 q 730 1249 699 1263 q 786 1236 761 1236 q 840 1258 819 1236 q 865 1319 860 1281 l 960 1319 q 908 1189 953 1239 q 789 1139 864 1139 q 716 1152 753 1139 q 645 1182 679 1165 q 580 1212 611 1199 q 524 1225 549 1225 q 471 1203 492 1225 q 444 1142 450 1181 l 350 1142 z "},"Ŋ":{"ha":1213,"x_min":126,"x_max":1097,"o":"m 126 1042 l 257 1042 l 257 0 l 126 0 l 126 1042 m 1097 653 l 1097 19 q 1067 -117 1097 -57 q 972 -212 1038 -178 q 797 -247 906 -247 q 665 -231 725 -247 q 572 -197 604 -214 l 572 -87 q 674 -126 618 -112 q 786 -139 729 -139 q 924 -99 882 -139 q 967 42 967 -58 l 967 624 q 881 861 967 781 q 632 942 796 942 q 433 901 517 942 q 303 787 349 860 q 257 615 257 714 l 197 651 q 273 873 211 782 q 438 1012 335 964 q 675 1060 542 1060 q 903 1012 808 1060 q 1047 873 997 964 q 1097 653 1097 782 z "},"O":{"ha":1304,"x_min":67,"x_max":1238,"o":"m 653 -18 q 347 50 479 -18 q 140 240 214 118 q 67 521 67 361 q 140 803 67 682 q 347 992 214 924 q 653 1060 479 1060 q 958 992 826 1060 q 1164 803 1090 924 q 1238 521 1238 682 q 1164 240 1238 361 q 958 50 1090 118 q 653 -18 826 -18 m 653 100 q 892 152 790 100 q 1049 299 993 204 q 1104 521 1104 393 q 1049 744 1104 650 q 892 890 993 839 q 653 942 790 942 q 414 890 515 942 q 256 744 313 839 q 200 521 200 650 q 256 299 200 393 q 414 152 313 204 q 653 100 515 100 z "},"Ó":{"ha":1304,"x_min":67,"x_max":1238,"o":"m 653 -18 q 347 50 479 -18 q 140 240 214 118 q 67 521 67 361 q 140 803 67 682 q 347 992 214 924 q 653 1060 479 1060 q 958 992 826 1060 q 1164 803 1090 924 q 1238 521 1238 682 q 1164 240 1238 361 q 958 50 1090 118 q 653 -18 826 -18 m 653 100 q 892 152 790 100 q 1049 299 993 204 q 1104 521 1104 393 q 1049 744 1104 650 q 892 890 993 839 q 653 942 790 942 q 414 890 515 942 q 256 744 313 839 q 200 521 200 650 q 256 299 200 393 q 414 152 313 204 q 653 100 515 100 m 751 1331 l 910 1331 l 689 1131 l 550 1131 l 751 1331 z "},"Ŏ":{"ha":1304,"x_min":67,"x_max":1238,"o":"m 653 -18 q 347 50 479 -18 q 140 240 214 118 q 67 521 67 361 q 140 803 67 682 q 347 992 214 924 q 653 1060 479 1060 q 958 992 826 1060 q 1164 803 1090 924 q 1238 521 1238 682 q 1164 240 1238 361 q 958 50 1090 118 q 653 -18 826 -18 m 653 100 q 892 152 790 100 q 1049 299 993 204 q 1104 521 1104 393 q 1049 744 1104 650 q 892 890 993 839 q 653 942 790 942 q 414 890 515 942 q 256 744 313 839 q 200 521 200 650 q 256 299 200 393 q 414 152 313 204 q 653 100 515 100 m 381 1332 l 488 1332 q 544 1246 503 1276 q 651 1215 585 1215 q 760 1246 719 1215 q 817 1332 801 1276 l 924 1332 q 831 1178 903 1232 q 651 1125 758 1125 q 474 1178 546 1125 q 381 1332 401 1232 z "},"Ǒ":{"ha":1304,"x_min":67,"x_max":1238,"o":"m 653 -18 q 347 50 479 -18 q 140 240 214 118 q 67 521 67 361 q 140 803 67 682 q 347 992 214 924 q 653 1060 479 1060 q 958 992 826 1060 q 1164 803 1090 924 q 1238 521 1238 682 q 1164 240 1238 361 q 958 50 1090 118 q 653 -18 826 -18 m 653 100 q 892 152 790 100 q 1049 299 993 204 q 1104 521 1104 393 q 1049 744 1104 650 q 892 890 993 839 q 653 942 790 942 q 414 890 515 942 q 256 744 313 839 q 200 521 200 650 q 256 299 200 393 q 414 152 313 204 q 653 100 515 100 m 726 1131 l 578 1131 l 376 1331 l 500 1331 l 678 1186 l 628 1186 l 804 1331 l 928 1331 l 726 1131 z "},"Ɵ":{"ha":1304,"x_min":67,"x_max":1238,"o":"m 124 579 l 1171 579 l 1171 464 l 124 464 l 124 579 m 653 -18 q 347 50 479 -18 q 140 240 214 118 q 67 521 67 361 q 140 803 67 682 q 347 992 214 924 q 653 1060 479 1060 q 958 992 826 1060 q 1164 803 1090 924 q 1238 521 1238 682 q 1164 240 1238 361 q 958 50 1090 118 q 653 -18 826 -18 m 653 100 q 892 152 790 100 q 1049 299 993 204 q 1104 521 1104 393 q 1049 744 1104 650 q 892 890 993 839 q 653 942 790 942 q 414 890 515 942 q 256 744 313 839 q 200 521 200 650 q 256 299 200 393 q 414 152 313 204 q 653 100 515 100 z "},"Ô":{"ha":1304,"x_min":67,"x_max":1238,"o":"m 653 -18 q 347 50 479 -18 q 140 240 214 118 q 67 521 67 361 q 140 803 67 682 q 347 992 214 924 q 653 1060 479 1060 q 958 992 826 1060 q 1164 803 1090 924 q 1238 521 1238 682 q 1164 240 1238 361 q 958 50 1090 118 q 653 -18 826 -18 m 653 100 q 892 152 790 100 q 1049 299 993 204 q 1104 521 1104 393 q 1049 744 1104 650 q 892 890 993 839 q 653 942 790 942 q 414 890 515 942 q 256 744 313 839 q 200 521 200 650 q 256 299 200 393 q 414 152 313 204 q 653 100 515 100 m 578 1331 l 726 1331 l 929 1131 l 804 1131 l 628 1275 l 678 1275 l 500 1131 l 376 1131 l 578 1331 z "},"Ố":{"ha":1304,"x_min":67,"x_max":1238,"o":"m 653 -18 q 347 50 479 -18 q 140 240 214 118 q 67 521 67 361 q 140 803 67 682 q 347 992 214 924 q 653 1060 479 1060 q 958 992 826 1060 q 1164 803 1090 924 q 1238 521 1238 682 q 1164 240 1238 361 q 958 50 1090 118 q 653 -18 826 -18 m 653 100 q 892 152 790 100 q 1049 299 993 204 q 1104 521 1104 393 q 1049 744 1104 650 q 892 890 993 839 q 653 942 790 942 q 414 890 515 942 q 256 744 313 839 q 200 521 200 650 q 256 299 200 393 q 414 152 313 204 q 653 100 515 100 m 921 1472 l 1053 1472 l 921 1296 l 813 1296 l 921 1472 m 578 1331 l 726 1331 l 929 1131 l 804 1131 l 628 1275 l 678 1275 l 500 1131 l 376 1131 l 578 1331 z "},"Ộ":{"ha":1304,"x_min":67,"x_max":1238,"o":"m 653 -18 q 347 50 479 -18 q 140 240 214 118 q 67 521 67 361 q 140 803 67 682 q 347 992 214 924 q 653 1060 479 1060 q 958 992 826 1060 q 1164 803 1090 924 q 1238 521 1238 682 q 1164 240 1238 361 q 958 50 1090 118 q 653 -18 826 -18 m 653 100 q 892 152 790 100 q 1049 299 993 204 q 1104 521 1104 393 q 1049 744 1104 650 q 892 890 993 839 q 653 942 790 942 q 414 890 515 942 q 256 744 313 839 q 200 521 200 650 q 256 299 200 393 q 414 152 313 204 q 653 100 515 100 m 651 -257 q 585 -233 613 -257 q 558 -171 558 -208 q 585 -110 558 -135 q 651 -86 613 -86 q 719 -110 693 -86 q 746 -171 746 -135 q 719 -233 746 -208 q 651 -257 693 -257 m 578 1331 l 726 1331 l 929 1131 l 804 1131 l 628 1275 l 678 1275 l 500 1131 l 376 1131 l 578 1331 z "},"Ồ":{"ha":1304,"x_min":67,"x_max":1238,"o":"m 653 -18 q 347 50 479 -18 q 140 240 214 118 q 67 521 67 361 q 140 803 67 682 q 347 992 214 924 q 653 1060 479 1060 q 958 992 826 1060 q 1164 803 1090 924 q 1238 521 1238 682 q 1164 240 1238 361 q 958 50 1090 118 q 653 -18 826 -18 m 653 100 q 892 152 790 100 q 1049 299 993 204 q 1104 521 1104 393 q 1049 744 1104 650 q 892 890 993 839 q 653 942 790 942 q 414 890 515 942 q 256 744 313 839 q 200 521 200 650 q 256 299 200 393 q 414 152 313 204 q 653 100 515 100 m 840 1472 l 949 1296 l 840 1296 l 708 1472 l 840 1472 m 578 1331 l 726 1331 l 929 1131 l 804 1131 l 628 1275 l 678 1275 l 500 1131 l 376 1131 l 578 1331 z "},"Ổ":{"ha":1304,"x_min":67,"x_max":1238,"o":"m 653 -18 q 347 50 479 -18 q 140 240 214 118 q 67 521 67 361 q 140 803 67 682 q 347 992 214 924 q 653 1060 479 1060 q 958 992 826 1060 q 1164 803 1090 924 q 1238 521 1238 682 q 1164 240 1238 361 q 958 50 1090 118 q 653 -18 826 -18 m 653 100 q 892 152 790 100 q 1049 299 993 204 q 1104 521 1104 393 q 1049 744 1104 650 q 892 890 993 839 q 653 942 790 942 q 414 890 515 942 q 256 744 313 839 q 200 521 200 650 q 256 299 200 393 q 414 152 313 204 q 653 100 515 100 m 881 1268 l 847 1319 q 922 1354 900 1336 q 943 1392 943 1372 q 851 1442 943 1442 q 808 1438 831 1442 q 767 1431 786 1435 l 767 1511 q 815 1522 786 1518 q 876 1526 844 1526 q 1006 1494 960 1526 q 1053 1406 1053 1463 q 1012 1324 1053 1358 q 881 1268 971 1289 m 578 1331 l 726 1331 l 929 1131 l 804 1131 l 628 1275 l 678 1275 l 500 1131 l 376 1131 l 578 1331 z "},"Ỗ":{"ha":1304,"x_min":67,"x_max":1238,"o":"m 653 -18 q 347 50 479 -18 q 140 240 214 118 q 67 521 67 361 q 140 803 67 682 q 347 992 214 924 q 653 1060 479 1060 q 958 992 826 1060 q 1164 803 1090 924 q 1238 521 1238 682 q 1164 240 1238 361 q 958 50 1090 118 q 653 -18 826 -18 m 653 100 q 892 152 790 100 q 1049 299 993 204 q 1104 521 1104 393 q 1049 744 1104 650 q 892 890 993 839 q 653 942 790 942 q 414 890 515 942 q 256 744 313 839 q 200 521 200 650 q 256 299 200 393 q 414 152 313 204 q 653 100 515 100 m 393 1375 q 438 1506 399 1456 q 540 1556 476 1556 q 604 1542 575 1556 q 658 1513 633 1529 q 703 1484 682 1497 q 746 1471 725 1471 q 789 1493 771 1471 q 813 1554 807 1515 l 901 1554 q 858 1424 896 1474 q 754 1375 819 1375 q 691 1388 719 1375 q 638 1417 663 1401 q 592 1446 614 1433 q 549 1458 569 1458 q 508 1437 525 1458 q 483 1375 490 1415 l 393 1375 m 578 1331 l 726 1331 l 929 1131 l 804 1131 l 628 1275 l 678 1275 l 500 1131 l 376 1131 l 578 1331 z "},"Ȍ":{"ha":1304,"x_min":67,"x_max":1238,"o":"m 653 -18 q 347 50 479 -18 q 140 240 214 118 q 67 521 67 361 q 140 803 67 682 q 347 992 214 924 q 653 1060 479 1060 q 958 992 826 1060 q 1164 803 1090 924 q 1238 521 1238 682 q 1164 240 1238 361 q 958 50 1090 118 q 653 -18 826 -18 m 653 100 q 892 152 790 100 q 1049 299 993 204 q 1104 521 1104 393 q 1049 744 1104 650 q 892 890 993 839 q 653 942 790 942 q 414 890 515 942 q 256 744 313 839 q 200 521 200 650 q 256 299 200 393 q 414 152 313 204 q 653 100 515 100 m 696 1331 l 861 1131 l 735 1131 l 560 1331 l 696 1331 m 422 1331 l 588 1131 l 460 1131 l 285 1331 l 422 1331 z "},"Ö":{"ha":1304,"x_min":67,"x_max":1238,"o":"m 653 -18 q 347 50 479 -18 q 140 240 214 118 q 67 521 67 361 q 140 803 67 682 q 347 992 214 924 q 653 1060 479 1060 q 958 992 826 1060 q 1164 803 1090 924 q 1238 521 1238 682 q 1164 240 1238 361 q 958 50 1090 118 q 653 -18 826 -18 m 653 100 q 892 152 790 100 q 1049 299 993 204 q 1104 521 1104 393 q 1049 744 1104 650 q 892 890 993 839 q 653 942 790 942 q 414 890 515 942 q 256 744 313 839 q 200 521 200 650 q 256 299 200 393 q 414 152 313 204 q 653 100 515 100 m 446 1160 q 381 1184 407 1160 q 356 1244 356 1208 q 381 1304 356 1281 q 446 1328 407 1328 q 512 1304 486 1328 q 538 1244 538 1281 q 512 1184 538 1208 q 446 1160 486 1160 m 860 1160 q 794 1184 819 1160 q 768 1244 768 1208 q 794 1304 768 1281 q 860 1328 819 1328 q 924 1304 899 1328 q 950 1244 950 1281 q 924 1184 950 1208 q 860 1160 899 1160 z "},"Ȫ":{"ha":1304,"x_min":67,"x_max":1238,"o":"m 653 -18 q 347 50 479 -18 q 140 240 214 118 q 67 521 67 361 q 140 803 67 682 q 347 992 214 924 q 653 1060 479 1060 q 958 992 826 1060 q 1164 803 1090 924 q 1238 521 1238 682 q 1164 240 1238 361 q 958 50 1090 118 q 653 -18 826 -18 m 653 100 q 892 152 790 100 q 1049 299 993 204 q 1104 521 1104 393 q 1049 744 1104 650 q 892 890 993 839 q 653 942 790 942 q 414 890 515 942 q 256 744 313 839 q 200 521 200 650 q 256 299 200 393 q 414 152 313 204 q 653 100 515 100 m 446 1160 q 381 1184 407 1160 q 356 1244 356 1208 q 381 1304 356 1281 q 446 1328 407 1328 q 512 1304 486 1328 q 538 1244 538 1281 q 512 1184 538 1208 q 446 1160 486 1160 m 860 1160 q 794 1184 819 1160 q 768 1244 768 1208 q 794 1304 768 1281 q 860 1328 819 1328 q 924 1304 899 1328 q 950 1244 950 1281 q 924 1184 950 1208 q 860 1160 899 1160 m 368 1417 l 368 1510 l 938 1510 l 938 1417 l 368 1417 z "},"Ȯ":{"ha":1304,"x_min":67,"x_max":1238,"o":"m 653 -18 q 347 50 479 -18 q 140 240 214 118 q 67 521 67 361 q 140 803 67 682 q 347 992 214 924 q 653 1060 479 1060 q 958 992 826 1060 q 1164 803 1090 924 q 1238 521 1238 682 q 1164 240 1238 361 q 958 50 1090 118 q 653 -18 826 -18 m 653 100 q 892 152 790 100 q 1049 299 993 204 q 1104 521 1104 393 q 1049 744 1104 650 q 892 890 993 839 q 653 942 790 942 q 414 890 515 942 q 256 744 313 839 q 200 521 200 650 q 256 299 200 393 q 414 152 313 204 q 653 100 515 100 m 651 1160 q 585 1184 613 1160 q 558 1246 558 1208 q 585 1307 558 1282 q 651 1332 613 1332 q 719 1307 693 1332 q 746 1246 746 1282 q 719 1184 746 1208 q 651 1160 693 1160 z "},"Ȱ":{"ha":1304,"x_min":67,"x_max":1238,"o":"m 653 -18 q 347 50 479 -18 q 140 240 214 118 q 67 521 67 361 q 140 803 67 682 q 347 992 214 924 q 653 1060 479 1060 q 958 992 826 1060 q 1164 803 1090 924 q 1238 521 1238 682 q 1164 240 1238 361 q 958 50 1090 118 q 653 -18 826 -18 m 653 100 q 892 152 790 100 q 1049 299 993 204 q 1104 521 1104 393 q 1049 744 1104 650 q 892 890 993 839 q 653 942 790 942 q 414 890 515 942 q 256 744 313 839 q 200 521 200 650 q 256 299 200 393 q 414 152 313 204 q 653 100 515 100 m 653 1160 q 587 1184 614 1160 q 560 1246 560 1208 q 587 1307 560 1282 q 653 1332 614 1332 q 721 1307 694 1332 q 747 1246 747 1282 q 721 1184 747 1208 q 653 1160 694 1160 m 368 1417 l 368 1510 l 938 1510 l 938 1417 l 368 1417 z "},"Ọ":{"ha":1304,"x_min":67,"x_max":1238,"o":"m 653 -18 q 347 50 479 -18 q 140 240 214 118 q 67 521 67 361 q 140 803 67 682 q 347 992 214 924 q 653 1060 479 1060 q 958 992 826 1060 q 1164 803 1090 924 q 1238 521 1238 682 q 1164 240 1238 361 q 958 50 1090 118 q 653 -18 826 -18 m 653 100 q 892 152 790 100 q 1049 299 993 204 q 1104 521 1104 393 q 1049 744 1104 650 q 892 890 993 839 q 653 942 790 942 q 414 890 515 942 q 256 744 313 839 q 200 521 200 650 q 256 299 200 393 q 414 152 313 204 q 653 100 515 100 m 651 -257 q 585 -233 613 -257 q 558 -171 558 -208 q 585 -110 558 -135 q 651 -86 613 -86 q 719 -110 693 -86 q 746 -171 746 -135 q 719 -233 746 -208 q 651 -257 693 -257 z "},"Ò":{"ha":1304,"x_min":67,"x_max":1238,"o":"m 653 -18 q 347 50 479 -18 q 140 240 214 118 q 67 521 67 361 q 140 803 67 682 q 347 992 214 924 q 653 1060 479 1060 q 958 992 826 1060 q 1164 803 1090 924 q 1238 521 1238 682 q 1164 240 1238 361 q 958 50 1090 118 q 653 -18 826 -18 m 653 100 q 892 152 790 100 q 1049 299 993 204 q 1104 521 1104 393 q 1049 744 1104 650 q 892 890 993 839 q 653 942 790 942 q 414 890 515 942 q 256 744 313 839 q 200 521 200 650 q 256 299 200 393 q 414 152 313 204 q 653 100 515 100 m 535 1331 l 736 1131 l 597 1131 l 376 1331 l 535 1331 z "},"Ỏ":{"ha":1304,"x_min":67,"x_max":1238,"o":"m 653 -18 q 347 50 479 -18 q 140 240 214 118 q 67 521 67 361 q 140 803 67 682 q 347 992 214 924 q 653 1060 479 1060 q 958 992 826 1060 q 1164 803 1090 924 q 1238 521 1238 682 q 1164 240 1238 361 q 958 50 1090 118 q 653 -18 826 -18 m 653 100 q 892 152 790 100 q 1049 299 993 204 q 1104 521 1104 393 q 1049 744 1104 650 q 892 890 993 839 q 653 942 790 942 q 414 890 515 942 q 256 744 313 839 q 200 521 200 650 q 256 299 200 393 q 414 152 313 204 q 653 100 515 100 m 613 1111 l 578 1174 q 676 1203 644 1185 q 708 1244 708 1221 q 683 1277 708 1267 q 610 1288 657 1288 q 546 1283 575 1288 q 488 1271 517 1278 l 488 1357 q 550 1370 513 1364 q 631 1376 588 1376 q 773 1346 722 1376 q 824 1257 824 1315 q 773 1166 824 1203 q 613 1111 722 1129 z "},"Ơ":{"ha":1299,"x_min":67,"x_max":1236,"o":"m 651 -18 q 346 50 478 -18 q 140 240 214 118 q 67 521 67 361 q 140 803 67 682 q 346 992 214 924 q 651 1060 478 1060 q 740 1055 699 1060 q 818 1042 782 1050 q 883 1030 850 1035 q 951 1025 917 1025 q 1068 1053 1033 1025 q 1103 1126 1103 1082 q 1094 1176 1103 1150 q 1071 1224 1086 1203 l 1188 1224 q 1210 1169 1201 1199 q 1219 1110 1219 1139 q 1171 1000 1219 1043 q 1025 947 1122 957 q 1181 768 1125 878 q 1236 521 1236 658 q 1163 240 1236 361 q 958 50 1089 118 q 651 -18 826 -18 m 651 100 q 892 152 790 100 q 1048 299 993 204 q 1103 521 1103 393 q 1048 744 1103 650 q 892 890 993 839 q 651 942 790 942 q 413 890 514 942 q 256 744 311 839 q 200 521 200 650 q 256 299 200 393 q 413 152 311 204 q 651 100 514 100 z "},"Ớ":{"ha":1299,"x_min":67,"x_max":1236,"o":"m 651 -18 q 346 50 478 -18 q 140 240 214 118 q 67 521 67 361 q 140 803 67 682 q 346 992 214 924 q 651 1060 478 1060 q 740 1055 699 1060 q 818 1042 782 1050 q 883 1030 850 1035 q 951 1025 917 1025 q 1068 1053 1033 1025 q 1103 1126 1103 1082 q 1094 1176 1103 1150 q 1071 1224 1086 1203 l 1188 1224 q 1210 1169 1201 1199 q 1219 1110 1219 1139 q 1171 1000 1219 1043 q 1025 947 1122 957 q 1181 768 1125 878 q 1236 521 1236 658 q 1163 240 1236 361 q 958 50 1089 118 q 651 -18 826 -18 m 651 100 q 892 152 790 100 q 1048 299 993 204 q 1103 521 1103 393 q 1048 744 1103 650 q 892 890 993 839 q 651 942 790 942 q 413 890 514 942 q 256 744 311 839 q 200 521 200 650 q 256 299 200 393 q 413 152 311 204 q 651 100 514 100 m 749 1331 l 907 1331 l 686 1131 l 547 1131 l 749 1331 z "},"Ợ":{"ha":1299,"x_min":67,"x_max":1236,"o":"m 651 -18 q 346 50 478 -18 q 140 240 214 118 q 67 521 67 361 q 140 803 67 682 q 346 992 214 924 q 651 1060 478 1060 q 740 1055 699 1060 q 818 1042 782 1050 q 883 1030 850 1035 q 951 1025 917 1025 q 1068 1053 1033 1025 q 1103 1126 1103 1082 q 1094 1176 1103 1150 q 1071 1224 1086 1203 l 1188 1224 q 1210 1169 1201 1199 q 1219 1110 1219 1139 q 1171 1000 1219 1043 q 1025 947 1122 957 q 1181 768 1125 878 q 1236 521 1236 658 q 1163 240 1236 361 q 958 50 1089 118 q 651 -18 826 -18 m 651 100 q 892 152 790 100 q 1048 299 993 204 q 1103 521 1103 393 q 1048 744 1103 650 q 892 890 993 839 q 651 942 790 942 q 413 890 514 942 q 256 744 311 839 q 200 521 200 650 q 256 299 200 393 q 413 152 311 204 q 651 100 514 100 m 649 -257 q 583 -233 610 -257 q 556 -171 556 -208 q 583 -110 556 -135 q 649 -86 610 -86 q 717 -110 690 -86 q 743 -171 743 -135 q 717 -233 743 -208 q 649 -257 690 -257 z "},"Ờ":{"ha":1299,"x_min":67,"x_max":1236,"o":"m 651 -18 q 346 50 478 -18 q 140 240 214 118 q 67 521 67 361 q 140 803 67 682 q 346 992 214 924 q 651 1060 478 1060 q 740 1055 699 1060 q 818 1042 782 1050 q 883 1030 850 1035 q 951 1025 917 1025 q 1068 1053 1033 1025 q 1103 1126 1103 1082 q 1094 1176 1103 1150 q 1071 1224 1086 1203 l 1188 1224 q 1210 1169 1201 1199 q 1219 1110 1219 1139 q 1171 1000 1219 1043 q 1025 947 1122 957 q 1181 768 1125 878 q 1236 521 1236 658 q 1163 240 1236 361 q 958 50 1089 118 q 651 -18 826 -18 m 651 100 q 892 152 790 100 q 1048 299 993 204 q 1103 521 1103 393 q 1048 744 1103 650 q 892 890 993 839 q 651 942 790 942 q 413 890 514 942 q 256 744 311 839 q 200 521 200 650 q 256 299 200 393 q 413 152 311 204 q 651 100 514 100 m 532 1331 l 733 1131 l 594 1131 l 374 1331 l 532 1331 z "},"Ở":{"ha":1299,"x_min":67,"x_max":1236,"o":"m 651 -18 q 346 50 478 -18 q 140 240 214 118 q 67 521 67 361 q 140 803 67 682 q 346 992 214 924 q 651 1060 478 1060 q 740 1055 699 1060 q 818 1042 782 1050 q 883 1030 850 1035 q 951 1025 917 1025 q 1068 1053 1033 1025 q 1103 1126 1103 1082 q 1094 1176 1103 1150 q 1071 1224 1086 1203 l 1188 1224 q 1210 1169 1201 1199 q 1219 1110 1219 1139 q 1171 1000 1219 1043 q 1025 947 1122 957 q 1181 768 1125 878 q 1236 521 1236 658 q 1163 240 1236 361 q 958 50 1089 118 q 651 -18 826 -18 m 651 100 q 892 152 790 100 q 1048 299 993 204 q 1103 521 1103 393 q 1048 744 1103 650 q 892 890 993 839 q 651 942 790 942 q 413 890 514 942 q 256 744 311 839 q 200 521 200 650 q 256 299 200 393 q 413 152 311 204 q 651 100 514 100 m 610 1111 l 575 1174 q 674 1203 642 1185 q 706 1244 706 1221 q 680 1277 706 1267 q 607 1288 654 1288 q 543 1283 572 1288 q 485 1271 514 1278 l 485 1357 q 547 1370 510 1364 q 628 1376 585 1376 q 770 1346 719 1376 q 821 1257 821 1315 q 770 1166 821 1203 q 610 1111 719 1129 z "},"Ỡ":{"ha":1299,"x_min":67,"x_max":1236,"o":"m 651 -18 q 346 50 478 -18 q 140 240 214 118 q 67 521 67 361 q 140 803 67 682 q 346 992 214 924 q 651 1060 478 1060 q 740 1055 699 1060 q 818 1042 782 1050 q 883 1030 850 1035 q 951 1025 917 1025 q 1068 1053 1033 1025 q 1103 1126 1103 1082 q 1094 1176 1103 1150 q 1071 1224 1086 1203 l 1188 1224 q 1210 1169 1201 1199 q 1219 1110 1219 1139 q 1171 1000 1219 1043 q 1025 947 1122 957 q 1181 768 1125 878 q 1236 521 1236 658 q 1163 240 1236 361 q 958 50 1089 118 q 651 -18 826 -18 m 651 100 q 892 152 790 100 q 1048 299 993 204 q 1103 521 1103 393 q 1048 744 1103 650 q 892 890 993 839 q 651 942 790 942 q 413 890 514 942 q 256 744 311 839 q 200 521 200 650 q 256 299 200 393 q 413 152 311 204 q 651 100 514 100 m 344 1142 q 395 1272 351 1222 q 515 1322 439 1322 q 588 1309 551 1322 q 659 1279 625 1296 q 724 1249 693 1263 q 781 1236 756 1236 q 834 1258 814 1236 q 860 1319 854 1281 l 954 1319 q 903 1189 947 1239 q 783 1139 858 1139 q 710 1152 747 1139 q 640 1182 674 1165 q 574 1212 606 1199 q 518 1225 543 1225 q 465 1203 486 1225 q 439 1142 444 1181 l 344 1142 z "},"Ő":{"ha":1304,"x_min":67,"x_max":1238,"o":"m 653 -18 q 347 50 479 -18 q 140 240 214 118 q 67 521 67 361 q 140 803 67 682 q 347 992 214 924 q 653 1060 479 1060 q 958 992 826 1060 q 1164 803 1090 924 q 1238 521 1238 682 q 1164 240 1238 361 q 958 50 1090 118 q 653 -18 826 -18 m 653 100 q 892 152 790 100 q 1049 299 993 204 q 1104 521 1104 393 q 1049 744 1104 650 q 892 890 993 839 q 653 942 790 942 q 414 890 515 942 q 256 744 313 839 q 200 521 200 650 q 256 299 200 393 q 414 152 313 204 q 653 100 515 100 m 617 1331 l 753 1331 l 578 1131 l 450 1131 l 617 1331 m 890 1331 l 1026 1331 l 851 1131 l 725 1131 l 890 1331 z "},"Ȏ":{"ha":1304,"x_min":67,"x_max":1238,"o":"m 653 -18 q 347 50 479 -18 q 140 240 214 118 q 67 521 67 361 q 140 803 67 682 q 347 992 214 924 q 653 1060 479 1060 q 958 992 826 1060 q 1164 803 1090 924 q 1238 521 1238 682 q 1164 240 1238 361 q 958 50 1090 118 q 653 -18 826 -18 m 653 100 q 892 152 790 100 q 1049 299 993 204 q 1104 521 1104 393 q 1049 744 1104 650 q 892 890 993 839 q 653 942 790 942 q 414 890 515 942 q 256 744 313 839 q 200 521 200 650 q 256 299 200 393 q 414 152 313 204 q 653 100 515 100 m 924 1129 l 817 1129 q 760 1214 801 1183 q 653 1244 719 1244 q 544 1214 585 1244 q 488 1129 503 1183 l 381 1129 q 474 1281 401 1228 q 653 1335 547 1335 q 831 1281 758 1335 q 924 1129 903 1228 z "},"Ō":{"ha":1304,"x_min":67,"x_max":1238,"o":"m 653 -18 q 347 50 479 -18 q 140 240 214 118 q 67 521 67 361 q 140 803 67 682 q 347 992 214 924 q 653 1060 479 1060 q 958 992 826 1060 q 1164 803 1090 924 q 1238 521 1238 682 q 1164 240 1238 361 q 958 50 1090 118 q 653 -18 826 -18 m 653 100 q 892 152 790 100 q 1049 299 993 204 q 1104 521 1104 393 q 1049 744 1104 650 q 892 890 993 839 q 653 942 790 942 q 414 890 515 942 q 256 744 313 839 q 200 521 200 650 q 256 299 200 393 q 414 152 313 204 q 653 100 515 100 m 368 1175 l 368 1268 l 938 1268 l 938 1175 l 368 1175 z "},"Ṓ":{"ha":1304,"x_min":67,"x_max":1238,"o":"m 653 -18 q 347 50 479 -18 q 140 240 214 118 q 67 521 67 361 q 140 803 67 682 q 347 992 214 924 q 653 1060 479 1060 q 958 992 826 1060 q 1164 803 1090 924 q 1238 521 1238 682 q 1164 240 1238 361 q 958 50 1090 118 q 653 -18 826 -18 m 653 100 q 892 152 790 100 q 1049 299 993 204 q 1104 521 1104 393 q 1049 744 1104 650 q 892 890 993 839 q 653 942 790 942 q 414 890 515 942 q 256 744 313 839 q 200 521 200 650 q 256 299 200 393 q 414 152 313 204 q 653 100 515 100 m 368 1175 l 368 1268 l 938 1268 l 938 1175 l 368 1175 m 751 1553 l 910 1553 l 689 1353 l 550 1353 l 751 1553 z "},"Ṑ":{"ha":1304,"x_min":67,"x_max":1238,"o":"m 653 -18 q 347 50 479 -18 q 140 240 214 118 q 67 521 67 361 q 140 803 67 682 q 347 992 214 924 q 653 1060 479 1060 q 958 992 826 1060 q 1164 803 1090 924 q 1238 521 1238 682 q 1164 240 1238 361 q 958 50 1090 118 q 653 -18 826 -18 m 653 100 q 892 152 790 100 q 1049 299 993 204 q 1104 521 1104 393 q 1049 744 1104 650 q 892 890 993 839 q 653 942 790 942 q 414 890 515 942 q 256 744 313 839 q 200 521 200 650 q 256 299 200 393 q 414 152 313 204 q 653 100 515 100 m 368 1175 l 368 1268 l 936 1268 l 936 1175 l 368 1175 m 535 1551 l 736 1353 l 597 1353 l 376 1551 l 535 1551 z "},"Ꞷ":{"ha":1546,"x_min":72,"x_max":1474,"o":"m 72 499 q 126 776 72 656 q 283 967 181 896 q 531 1047 386 1039 l 531 922 q 349 854 421 911 q 241 706 276 797 q 206 499 206 614 q 278 203 206 307 q 476 99 351 99 q 602 135 549 99 q 685 251 656 172 q 714 457 714 331 l 714 671 l 832 671 l 832 457 q 861 251 832 331 q 944 135 890 172 q 1069 99 997 99 q 1268 203 1196 99 q 1340 499 1340 307 q 1305 706 1340 614 q 1198 854 1269 797 q 1015 922 1126 911 l 1015 1047 q 1263 967 1161 1039 q 1419 776 1365 896 q 1474 499 1474 656 q 1426 226 1474 342 q 1291 46 1378 110 q 1083 -18 1204 -18 q 835 97 922 -18 q 761 425 747 211 l 785 425 q 712 97 800 211 q 463 -18 624 -18 q 256 46 343 -18 q 120 226 168 110 q 72 499 72 342 z "},"Ǫ":{"ha":1304,"x_min":67,"x_max":1238,"o":"m 815 -247 q 766 -258 797 -253 q 701 -262 735 -262 q 569 -231 619 -262 q 519 -144 519 -199 q 555 -65 519 -101 q 669 4 590 -28 l 660 -18 q 419 19 528 -19 q 231 130 310 58 q 110 301 153 201 q 67 521 67 400 q 140 803 67 682 q 347 992 214 924 q 653 1060 479 1060 q 958 992 826 1060 q 1164 803 1090 924 q 1238 521 1238 682 q 1185 281 1238 388 q 1038 103 1133 175 q 815 0 943 32 q 677 -53 726 -22 q 628 -119 628 -83 q 729 -169 628 -169 q 774 -167 750 -169 q 815 -161 797 -165 l 815 -247 m 200 521 q 256 299 200 393 q 414 152 313 204 q 653 100 515 100 q 892 152 790 100 q 1049 299 993 204 q 1104 521 1104 393 q 1049 744 1104 650 q 892 890 993 839 q 653 942 790 942 q 414 890 515 942 q 256 744 313 839 q 200 521 200 650 z "},"Ǭ":{"ha":1304,"x_min":67,"x_max":1238,"o":"m 815 -247 q 766 -258 797 -253 q 701 -262 735 -262 q 569 -231 619 -262 q 519 -144 519 -199 q 555 -65 519 -101 q 669 4 590 -28 l 660 -18 q 419 19 528 -19 q 231 130 310 58 q 110 301 153 201 q 67 521 67 400 q 140 803 67 682 q 347 992 214 924 q 653 1060 479 1060 q 958 992 826 1060 q 1164 803 1090 924 q 1238 521 1238 682 q 1185 281 1238 388 q 1038 103 1133 175 q 815 0 943 32 q 677 -53 726 -22 q 628 -119 628 -83 q 729 -169 628 -169 q 774 -167 750 -169 q 815 -161 797 -165 l 815 -247 m 200 521 q 256 299 200 393 q 414 152 313 204 q 653 100 515 100 q 892 152 790 100 q 1049 299 993 204 q 1104 521 1104 393 q 1049 744 1104 650 q 892 890 993 839 q 653 942 790 942 q 414 890 515 942 q 256 744 313 839 q 200 521 200 650 m 368 1175 l 368 1268 l 938 1268 l 938 1175 l 368 1175 z "},"Ɔ":{"ha":1253,"x_min":57,"x_max":1185,"o":"m 57 401 l 190 401 q 262 241 206 308 q 407 137 318 174 q 611 100 496 100 q 844 152 746 100 q 997 299 943 204 q 1051 521 1051 393 q 997 744 1051 650 q 844 890 943 839 q 611 942 746 942 q 407 905 496 942 q 262 801 318 868 q 190 642 206 733 l 57 642 q 145 860 72 767 q 338 1007 218 954 q 608 1060 457 1060 q 911 992 782 1060 q 1113 803 1040 924 q 1185 521 1185 682 q 1113 240 1185 361 q 911 50 1040 118 q 608 -18 782 -18 q 338 35 457 -18 q 145 183 218 88 q 57 401 72 278 z "},"Ø":{"ha":1304,"x_min":67,"x_max":1238,"o":"m 1069 1058 l 1210 1058 l 235 -17 l 94 -17 l 1069 1058 m 651 -18 q 346 50 478 -18 q 140 240 214 118 q 67 521 67 361 q 140 803 67 682 q 346 992 214 924 q 651 1060 478 1060 q 886 1021 779 1060 q 1072 910 993 982 q 1194 740 1150 839 q 1238 521 1238 642 q 1164 240 1238 361 q 958 50 1090 118 q 651 -18 826 -18 m 651 100 q 892 152 790 100 q 1049 299 993 204 q 1104 521 1104 393 q 1049 744 1104 650 q 892 890 993 839 q 651 942 790 942 q 413 890 514 942 q 256 744 311 839 q 200 521 200 650 q 256 299 200 393 q 413 152 311 204 q 651 100 514 100 z "},"Ǿ":{"ha":1304,"x_min":67,"x_max":1238,"o":"m 1069 1058 l 1210 1058 l 235 -17 l 94 -17 l 1069 1058 m 651 -18 q 346 50 478 -18 q 140 240 214 118 q 67 521 67 361 q 140 803 67 682 q 346 992 214 924 q 651 1060 478 1060 q 886 1021 779 1060 q 1072 910 993 982 q 1194 740 1150 839 q 1238 521 1238 642 q 1164 240 1238 361 q 958 50 1090 118 q 651 -18 826 -18 m 651 100 q 892 152 790 100 q 1049 299 993 204 q 1104 521 1104 393 q 1049 744 1104 650 q 892 890 993 839 q 651 942 790 942 q 413 890 514 942 q 256 744 311 839 q 200 521 200 650 q 256 299 200 393 q 413 152 311 204 q 651 100 514 100 m 750 1331 l 908 1331 l 688 1131 l 549 1131 l 750 1331 z "},"Õ":{"ha":1304,"x_min":67,"x_max":1238,"o":"m 653 -18 q 347 50 479 -18 q 140 240 214 118 q 67 521 67 361 q 140 803 67 682 q 347 992 214 924 q 653 1060 479 1060 q 958 992 826 1060 q 1164 803 1090 924 q 1238 521 1238 682 q 1164 240 1238 361 q 958 50 1090 118 q 653 -18 826 -18 m 653 100 q 892 152 790 100 q 1049 299 993 204 q 1104 521 1104 393 q 1049 744 1104 650 q 892 890 993 839 q 653 942 790 942 q 414 890 515 942 q 256 744 313 839 q 200 521 200 650 q 256 299 200 393 q 414 152 313 204 q 653 100 515 100 m 347 1142 q 398 1272 354 1222 q 518 1322 442 1322 q 591 1309 554 1322 q 662 1279 628 1296 q 727 1249 696 1263 q 783 1236 758 1236 q 837 1258 817 1236 q 863 1319 857 1281 l 957 1319 q 906 1189 950 1239 q 786 1139 861 1139 q 713 1152 750 1139 q 642 1182 676 1165 q 577 1212 608 1199 q 521 1225 546 1225 q 468 1203 489 1225 q 442 1142 447 1181 l 347 1142 z "},"Ṍ":{"ha":1304,"x_min":67,"x_max":1238,"o":"m 653 -18 q 347 50 479 -18 q 140 240 214 118 q 67 521 67 361 q 140 803 67 682 q 347 992 214 924 q 653 1060 479 1060 q 958 992 826 1060 q 1164 803 1090 924 q 1238 521 1238 682 q 1164 240 1238 361 q 958 50 1090 118 q 653 -18 826 -18 m 653 100 q 892 152 790 100 q 1049 299 993 204 q 1104 521 1104 393 q 1049 744 1104 650 q 892 890 993 839 q 653 942 790 942 q 414 890 515 942 q 256 744 313 839 q 200 521 200 650 q 256 299 200 393 q 414 152 313 204 q 653 100 515 100 m 347 1142 q 398 1272 354 1222 q 518 1322 442 1322 q 591 1309 554 1322 q 662 1279 628 1296 q 727 1249 696 1263 q 783 1236 758 1236 q 837 1258 817 1236 q 863 1319 857 1281 l 957 1319 q 906 1189 950 1239 q 786 1139 861 1139 q 713 1152 750 1139 q 642 1182 676 1165 q 577 1212 608 1199 q 521 1225 546 1225 q 468 1203 489 1225 q 442 1142 447 1181 l 347 1142 m 751 1560 l 910 1560 l 689 1360 l 550 1360 l 751 1560 z "},"Ṏ":{"ha":1304,"x_min":67,"x_max":1238,"o":"m 653 -18 q 347 50 479 -18 q 140 240 214 118 q 67 521 67 361 q 140 803 67 682 q 347 992 214 924 q 653 1060 479 1060 q 958 992 826 1060 q 1164 803 1090 924 q 1238 521 1238 682 q 1164 240 1238 361 q 958 50 1090 118 q 653 -18 826 -18 m 653 100 q 892 152 790 100 q 1049 299 993 204 q 1104 521 1104 393 q 1049 744 1104 650 q 892 890 993 839 q 653 942 790 942 q 414 890 515 942 q 256 744 313 839 q 200 521 200 650 q 256 299 200 393 q 414 152 313 204 q 653 100 515 100 m 347 1142 q 398 1272 354 1222 q 518 1322 442 1322 q 591 1309 554 1322 q 662 1279 628 1296 q 727 1249 696 1263 q 783 1236 758 1236 q 837 1258 817 1236 q 863 1319 857 1281 l 957 1319 q 906 1189 950 1239 q 786 1139 861 1139 q 713 1152 750 1139 q 642 1182 676 1165 q 577 1212 608 1199 q 521 1225 546 1225 q 468 1203 489 1225 q 442 1142 447 1181 l 347 1142 m 446 1389 q 381 1413 407 1389 q 356 1474 356 1438 q 381 1533 356 1510 q 446 1557 407 1557 q 512 1533 486 1557 q 538 1474 538 1510 q 512 1413 538 1438 q 446 1389 486 1389 m 860 1389 q 794 1413 819 1389 q 768 1474 768 1438 q 794 1533 768 1510 q 860 1557 819 1557 q 924 1533 899 1557 q 950 1474 950 1510 q 924 1413 950 1438 q 860 1389 899 1389 z "},"Ȭ":{"ha":1304,"x_min":67,"x_max":1238,"o":"m 653 -18 q 347 50 479 -18 q 140 240 214 118 q 67 521 67 361 q 140 803 67 682 q 347 992 214 924 q 653 1060 479 1060 q 958 992 826 1060 q 1164 803 1090 924 q 1238 521 1238 682 q 1164 240 1238 361 q 958 50 1090 118 q 653 -18 826 -18 m 653 100 q 892 152 790 100 q 1049 299 993 204 q 1104 521 1104 393 q 1049 744 1104 650 q 892 890 993 839 q 653 942 790 942 q 414 890 515 942 q 256 744 313 839 q 200 521 200 650 q 256 299 200 393 q 414 152 313 204 q 653 100 515 100 m 347 1142 q 398 1272 354 1222 q 518 1322 442 1322 q 591 1309 554 1322 q 662 1279 628 1296 q 727 1249 696 1263 q 783 1236 758 1236 q 837 1258 817 1236 q 863 1319 857 1281 l 957 1319 q 906 1189 950 1239 q 786 1139 861 1139 q 713 1152 750 1139 q 642 1182 676 1165 q 577 1212 608 1199 q 521 1225 546 1225 q 468 1203 489 1225 q 442 1142 447 1181 l 347 1142 m 368 1404 l 368 1497 l 938 1497 l 938 1404 l 368 1404 z "},"Œ":{"ha":1875,"x_min":67,"x_max":1799,"o":"m 651 0 q 346 66 478 0 q 140 249 214 132 q 67 521 67 367 q 138 794 67 676 q 338 976 208 911 q 640 1042 467 1042 l 1792 1042 l 1792 928 l 1088 928 l 1088 578 l 1761 578 l 1761 467 l 1088 467 l 1088 114 l 1799 114 l 1799 0 l 651 0 m 647 115 l 958 115 l 958 928 l 647 928 q 413 876 514 928 q 256 734 313 825 q 200 521 200 643 q 256 310 200 401 q 413 167 313 218 q 647 115 514 115 z "},"P":{"ha":1056,"x_min":126,"x_max":1019,"o":"m 660 1042 q 850 1003 769 1042 q 975 894 931 964 q 1019 732 1019 824 q 975 570 1019 640 q 850 460 931 500 q 660 421 769 421 l 185 421 l 185 535 l 657 535 q 824 588 763 535 q 886 732 886 642 q 824 875 886 822 q 657 928 763 928 l 199 928 l 257 992 l 257 0 l 126 0 l 126 1042 l 660 1042 z "},"Ṕ":{"ha":1056,"x_min":126,"x_max":1019,"o":"m 660 1042 q 850 1003 769 1042 q 975 894 931 964 q 1019 732 1019 824 q 975 570 1019 640 q 850 460 931 500 q 660 421 769 421 l 185 421 l 185 535 l 657 535 q 824 588 763 535 q 886 732 886 642 q 824 875 886 822 q 657 928 763 928 l 199 928 l 257 992 l 257 0 l 126 0 l 126 1042 l 660 1042 m 646 1331 l 804 1331 l 583 1131 l 444 1131 l 646 1331 z "},"Ṗ":{"ha":1056,"x_min":126,"x_max":1019,"o":"m 660 1042 q 850 1003 769 1042 q 975 894 931 964 q 1019 732 1019 824 q 975 570 1019 640 q 850 460 931 500 q 660 421 769 421 l 185 421 l 185 535 l 657 535 q 824 588 763 535 q 886 732 886 642 q 824 875 886 822 q 657 928 763 928 l 199 928 l 257 992 l 257 0 l 126 0 l 126 1042 l 660 1042 m 546 1160 q 480 1184 507 1160 q 453 1246 453 1208 q 480 1307 453 1282 q 546 1332 507 1332 q 614 1307 588 1332 q 640 1246 640 1282 q 614 1184 640 1208 q 546 1160 588 1160 z "},"Ƥ":{"ha":1301,"x_min":33,"x_max":1265,"o":"m 257 1042 l 906 1042 q 1096 1003 1015 1042 q 1221 894 1176 964 q 1265 732 1265 824 q 1221 570 1265 640 q 1096 460 1176 500 q 906 421 1015 421 l 431 421 l 431 535 l 903 535 q 1070 588 1008 535 q 1132 732 1132 642 q 1070 875 1132 822 q 903 928 1008 928 l 444 928 l 503 992 l 503 0 l 372 0 l 372 992 l 422 931 l 285 931 q 190 903 225 931 q 154 811 154 876 q 166 726 154 767 q 194 643 178 686 l 82 643 q 49 731 65 681 q 33 833 33 782 q 93 989 33 936 q 257 1042 153 1042 z "},"Þ":{"ha":1076,"x_min":126,"x_max":1019,"o":"m 126 1042 l 257 1042 l 257 0 l 126 0 l 126 1042 m 660 218 l 214 218 l 214 332 l 657 332 q 824 385 763 332 q 886 528 886 438 q 824 672 886 618 q 657 725 763 725 l 215 725 l 215 839 l 660 839 q 850 800 769 839 q 975 691 931 761 q 1019 528 1019 621 q 975 366 1019 436 q 850 257 931 296 q 660 218 769 218 z "},"Ᵽ":{"ha":1093,"x_min":28,"x_max":1057,"o":"m 28 783 l 638 783 l 638 681 l 28 681 l 28 783 m 697 1042 q 888 1003 807 1042 q 1013 894 968 964 q 1057 732 1057 824 q 1013 570 1057 640 q 888 460 968 500 q 697 421 807 421 l 222 421 l 222 535 l 694 535 q 862 588 800 535 q 924 732 924 642 q 862 875 924 822 q 694 928 800 928 l 236 928 l 294 992 l 294 0 l 164 0 l 164 1042 l 697 1042 z "},"Q":{"ha":1304,"x_min":67,"x_max":1238,"o":"m 557 378 l 718 378 l 1185 -82 l 1021 -82 l 557 378 m 653 -18 q 347 50 479 -18 q 140 240 214 118 q 67 521 67 361 q 140 803 67 682 q 347 992 214 924 q 653 1060 479 1060 q 958 992 826 1060 q 1164 803 1090 924 q 1238 521 1238 682 q 1164 240 1238 361 q 958 50 1090 118 q 653 -18 826 -18 m 653 100 q 892 152 790 100 q 1049 299 993 204 q 1104 521 1104 393 q 1049 744 1104 650 q 892 890 993 839 q 653 942 790 942 q 414 890 515 942 q 256 744 313 839 q 200 521 200 650 q 256 299 200 393 q 414 152 313 204 q 653 100 515 100 z "},"Ɋ":{"ha":1325,"x_min":69,"x_max":1497,"o":"m 1358 -136 q 1435 -125 1399 -136 q 1497 -100 1471 -114 l 1497 -211 q 1423 -237 1465 -226 q 1335 -247 1381 -247 q 1135 -172 1203 -247 q 1068 33 1068 -96 l 1068 397 l 1099 522 l 1068 649 l 1068 1042 l 1199 1042 l 1199 49 q 1238 -91 1199 -46 q 1358 -136 1278 -136 m 1142 522 q 1024 238 1103 360 q 833 49 946 117 q 579 -18 721 -18 q 313 50 428 -18 q 133 240 197 118 q 69 521 69 361 q 133 803 69 682 q 313 992 197 924 q 579 1060 428 1060 q 833 994 721 1060 q 1024 807 946 928 q 1142 522 1103 686 m 203 522 q 253 303 203 399 q 392 153 303 207 q 601 99 482 99 q 803 153 713 99 q 962 302 893 207 q 1076 522 1031 397 q 962 742 1031 647 q 803 890 893 836 q 601 943 714 943 q 394 890 483 943 q 253 742 304 836 q 203 522 203 647 z "},"R":{"ha":1094,"x_min":126,"x_max":1043,"o":"m 217 550 l 664 550 q 828 601 767 550 q 890 739 890 653 q 828 877 890 826 q 664 928 767 928 l 199 928 l 257 997 l 257 0 l 126 0 l 126 1042 l 668 1042 q 853 1003 774 1042 q 977 897 932 965 q 1022 739 1022 829 q 977 582 1022 650 q 853 476 932 514 q 668 438 774 438 l 217 438 l 217 550 m 447 488 l 608 488 l 1043 0 l 881 0 l 447 488 z "},"Ŕ":{"ha":1094,"x_min":126,"x_max":1043,"o":"m 217 550 l 664 550 q 828 601 767 550 q 890 739 890 653 q 828 877 890 826 q 664 928 767 928 l 199 928 l 257 997 l 257 0 l 126 0 l 126 1042 l 668 1042 q 853 1003 774 1042 q 977 897 932 965 q 1022 739 1022 829 q 977 582 1022 650 q 853 476 932 514 q 668 438 774 438 l 217 438 l 217 550 m 447 488 l 608 488 l 1043 0 l 881 0 l 447 488 m 640 1331 l 799 1331 l 578 1131 l 439 1131 l 640 1331 z "},"Ř":{"ha":1094,"x_min":126,"x_max":1043,"o":"m 217 550 l 664 550 q 828 601 767 550 q 890 739 890 653 q 828 877 890 826 q 664 928 767 928 l 199 928 l 257 997 l 257 0 l 126 0 l 126 1042 l 668 1042 q 853 1003 774 1042 q 977 897 932 965 q 1022 739 1022 829 q 977 582 1022 650 q 853 476 932 514 q 668 438 774 438 l 217 438 l 217 550 m 447 488 l 608 488 l 1043 0 l 881 0 l 447 488 m 615 1131 l 467 1131 l 265 1331 l 389 1331 l 567 1186 l 517 1186 l 693 1331 l 817 1331 l 615 1131 z "},"Ŗ":{"ha":1094,"x_min":126,"x_max":1043,"o":"m 217 550 l 664 550 q 828 601 767 550 q 890 739 890 653 q 828 877 890 826 q 664 928 767 928 l 199 928 l 257 997 l 257 0 l 126 0 l 126 1042 l 668 1042 q 853 1003 774 1042 q 977 897 932 965 q 1022 739 1022 829 q 977 582 1022 650 q 853 476 932 514 q 668 438 774 438 l 217 438 l 217 550 m 447 488 l 608 488 l 1043 0 l 881 0 l 447 488 m 481 -332 l 557 -181 l 563 -218 q 501 -197 525 -218 q 476 -144 476 -175 q 499 -89 476 -111 q 563 -67 522 -67 q 628 -90 606 -67 q 651 -147 651 -114 q 640 -195 651 -172 q 601 -264 629 -218 l 558 -332 l 481 -332 z "},"Ȑ":{"ha":1094,"x_min":126,"x_max":1043,"o":"m 217 550 l 664 550 q 828 601 767 550 q 890 739 890 653 q 828 877 890 826 q 664 928 767 928 l 199 928 l 257 997 l 257 0 l 126 0 l 126 1042 l 668 1042 q 853 1003 774 1042 q 977 897 932 965 q 1022 739 1022 829 q 977 582 1022 650 q 853 476 932 514 q 668 438 774 438 l 217 438 l 217 550 m 447 488 l 608 488 l 1043 0 l 881 0 l 447 488 m 585 1331 l 750 1131 l 624 1131 l 449 1331 l 585 1331 m 311 1331 l 476 1131 l 349 1131 l 174 1331 l 311 1331 z "},"Ṙ":{"ha":1094,"x_min":126,"x_max":1043,"o":"m 217 550 l 664 550 q 828 601 767 550 q 890 739 890 653 q 828 877 890 826 q 664 928 767 928 l 199 928 l 257 997 l 257 0 l 126 0 l 126 1042 l 668 1042 q 853 1003 774 1042 q 977 897 932 965 q 1022 739 1022 829 q 977 582 1022 650 q 853 476 932 514 q 668 438 774 438 l 217 438 l 217 550 m 447 488 l 608 488 l 1043 0 l 881 0 l 447 488 m 540 1160 q 474 1184 501 1160 q 447 1246 447 1208 q 474 1307 447 1282 q 540 1332 501 1332 q 608 1307 582 1332 q 635 1246 635 1282 q 608 1184 635 1208 q 540 1160 582 1160 z "},"Ṛ":{"ha":1094,"x_min":126,"x_max":1043,"o":"m 217 550 l 664 550 q 828 601 767 550 q 890 739 890 653 q 828 877 890 826 q 664 928 767 928 l 199 928 l 257 997 l 257 0 l 126 0 l 126 1042 l 668 1042 q 853 1003 774 1042 q 977 897 932 965 q 1022 739 1022 829 q 977 582 1022 650 q 853 476 932 514 q 668 438 774 438 l 217 438 l 217 550 m 447 488 l 608 488 l 1043 0 l 881 0 l 447 488 m 561 -257 q 495 -233 522 -257 q 468 -171 468 -208 q 495 -110 468 -135 q 561 -86 522 -86 q 629 -110 603 -86 q 656 -171 656 -135 q 629 -233 656 -208 q 561 -257 603 -257 z "},"Ṝ":{"ha":1094,"x_min":126,"x_max":1043,"o":"m 217 550 l 664 550 q 828 601 767 550 q 890 739 890 653 q 828 877 890 826 q 664 928 767 928 l 199 928 l 257 997 l 257 0 l 126 0 l 126 1042 l 668 1042 q 853 1003 774 1042 q 977 897 932 965 q 1022 739 1022 829 q 977 582 1022 650 q 853 476 932 514 q 668 438 774 438 l 217 438 l 217 550 m 447 488 l 608 488 l 1043 0 l 881 0 l 447 488 m 561 -257 q 495 -233 522 -257 q 468 -171 468 -208 q 495 -110 468 -135 q 561 -86 522 -86 q 629 -110 603 -86 q 656 -171 656 -135 q 629 -233 656 -208 q 561 -257 603 -257 m 257 1175 l 257 1268 l 826 1268 l 826 1175 l 257 1175 z "},"Ȓ":{"ha":1094,"x_min":126,"x_max":1043,"o":"m 217 550 l 664 550 q 828 601 767 550 q 890 739 890 653 q 828 877 890 826 q 664 928 767 928 l 199 928 l 257 997 l 257 0 l 126 0 l 126 1042 l 668 1042 q 853 1003 774 1042 q 977 897 932 965 q 1022 739 1022 829 q 977 582 1022 650 q 853 476 932 514 q 668 438 774 438 l 217 438 l 217 550 m 447 488 l 608 488 l 1043 0 l 881 0 l 447 488 m 813 1129 l 706 1129 q 649 1214 690 1183 q 542 1244 608 1244 q 433 1214 474 1244 q 376 1129 392 1183 l 269 1129 q 363 1281 290 1228 q 542 1335 436 1335 q 719 1281 647 1335 q 813 1129 792 1228 z "},"Ṟ":{"ha":1094,"x_min":126,"x_max":1043,"o":"m 217 550 l 664 550 q 828 601 767 550 q 890 739 890 653 q 828 877 890 826 q 664 928 767 928 l 199 928 l 257 997 l 257 0 l 126 0 l 126 1042 l 668 1042 q 853 1003 774 1042 q 977 897 932 965 q 1022 739 1022 829 q 977 582 1022 650 q 853 476 932 514 q 668 438 774 438 l 217 438 l 217 550 m 447 488 l 608 488 l 1043 0 l 881 0 l 447 488 m 278 -192 l 278 -99 l 847 -99 l 847 -192 l 278 -192 z "},"Ɍ":{"ha":1133,"x_min":22,"x_max":1082,"o":"m 22 540 l 324 540 l 324 438 l 22 438 l 22 540 m 256 550 l 701 550 q 867 601 806 550 q 928 739 928 653 q 867 877 928 826 q 701 928 806 928 l 236 928 l 294 997 l 294 0 l 164 0 l 164 1042 l 707 1042 q 892 1003 813 1042 q 1015 897 971 965 q 1060 739 1060 829 q 1015 582 1060 650 q 892 476 971 514 q 707 438 813 438 l 256 438 l 256 550 m 486 488 l 646 488 l 1082 0 l 919 0 l 486 488 z "},"Ɽ":{"ha":1094,"x_min":126,"x_max":1043,"o":"m 447 488 l 608 488 l 1043 0 l 881 0 l 447 488 m 126 1042 l 668 1042 q 853 1003 774 1042 q 977 897 932 965 q 1022 739 1022 829 q 977 582 1022 650 q 853 476 932 514 q 668 438 774 438 l 257 438 l 257 49 q 296 -91 257 -46 q 417 -136 335 -136 q 493 -125 457 -136 q 556 -100 529 -114 l 556 -211 q 481 -237 524 -226 q 393 -247 439 -247 q 194 -172 261 -247 q 126 33 126 -96 l 126 1042 m 257 550 l 664 550 q 828 601 767 550 q 890 739 890 653 q 828 877 890 826 q 664 928 767 928 l 257 928 l 257 550 z "},"S":{"ha":1092,"x_min":57,"x_max":1032,"o":"m 57 338 l 189 338 q 247 208 199 264 q 376 123 296 153 q 560 93 456 93 q 809 147 717 93 q 901 292 901 200 q 844 400 901 363 q 643 454 786 438 l 442 479 q 168 570 251 501 q 85 756 85 639 q 140 917 85 849 q 297 1023 196 986 q 532 1060 397 1060 q 772 1019 667 1060 q 938 905 876 978 q 1006 733 1000 832 l 874 733 q 821 848 865 800 q 702 923 776 896 q 529 950 628 950 q 301 899 386 950 q 215 758 215 849 q 272 652 215 689 q 463 599 328 615 l 660 572 q 878 524 797 556 q 996 438 960 492 q 1032 303 1032 385 q 973 132 1032 204 q 807 21 914 60 q 558 -18 700 -18 q 304 27 415 -18 q 128 152 193 72 q 57 338 63 232 z "},"Ś":{"ha":1092,"x_min":57,"x_max":1032,"o":"m 57 338 l 189 338 q 247 208 199 264 q 376 123 296 153 q 560 93 456 93 q 809 147 717 93 q 901 292 901 200 q 844 400 901 363 q 643 454 786 438 l 442 479 q 168 570 251 501 q 85 756 85 639 q 140 917 85 849 q 297 1023 196 986 q 532 1060 397 1060 q 772 1019 667 1060 q 938 905 876 978 q 1006 733 1000 832 l 874 733 q 821 848 865 800 q 702 923 776 896 q 529 950 628 950 q 301 899 386 950 q 215 758 215 849 q 272 652 215 689 q 463 599 328 615 l 660 572 q 878 524 797 556 q 996 438 960 492 q 1032 303 1032 385 q 973 132 1032 204 q 807 21 914 60 q 558 -18 700 -18 q 304 27 415 -18 q 128 152 193 72 q 57 338 63 232 m 643 1331 l 801 1331 l 581 1131 l 442 1131 l 643 1331 z "},"Ṥ":{"ha":1092,"x_min":57,"x_max":1032,"o":"m 57 338 l 189 338 q 247 208 199 264 q 376 123 296 153 q 560 93 456 93 q 809 147 717 93 q 901 292 901 200 q 844 400 901 363 q 643 454 786 438 l 442 479 q 168 570 251 501 q 85 756 85 639 q 140 917 85 849 q 297 1023 196 986 q 532 1060 397 1060 q 772 1019 667 1060 q 938 905 876 978 q 1006 733 1000 832 l 874 733 q 821 848 865 800 q 702 923 776 896 q 529 950 628 950 q 301 899 386 950 q 215 758 215 849 q 272 652 215 689 q 463 599 328 615 l 660 572 q 878 524 797 556 q 996 438 960 492 q 1032 303 1032 385 q 973 132 1032 204 q 807 21 914 60 q 558 -18 700 -18 q 304 27 415 -18 q 128 152 193 72 q 57 338 63 232 m 643 1331 l 801 1331 l 581 1131 l 442 1131 l 643 1331 m 550 1368 q 484 1392 511 1368 q 457 1454 457 1417 q 484 1515 457 1490 q 550 1540 511 1540 q 618 1515 592 1540 q 644 1454 644 1490 q 618 1392 644 1417 q 550 1368 592 1368 z "},"Š":{"ha":1092,"x_min":57,"x_max":1032,"o":"m 57 338 l 189 338 q 247 208 199 264 q 376 123 296 153 q 560 93 456 93 q 809 147 717 93 q 901 292 901 200 q 844 400 901 363 q 643 454 786 438 l 442 479 q 168 570 251 501 q 85 756 85 639 q 140 917 85 849 q 297 1023 196 986 q 532 1060 397 1060 q 772 1019 667 1060 q 938 905 876 978 q 1006 733 1000 832 l 874 733 q 821 848 865 800 q 702 923 776 896 q 529 950 628 950 q 301 899 386 950 q 215 758 215 849 q 272 652 215 689 q 463 599 328 615 l 660 572 q 878 524 797 556 q 996 438 960 492 q 1032 303 1032 385 q 973 132 1032 204 q 807 21 914 60 q 558 -18 700 -18 q 304 27 415 -18 q 128 152 193 72 q 57 338 63 232 m 619 1131 l 471 1131 l 268 1331 l 393 1331 l 569 1186 l 519 1186 l 697 1331 l 821 1331 l 619 1131 z "},"Ṧ":{"ha":1092,"x_min":57,"x_max":1032,"o":"m 57 338 l 189 338 q 247 208 199 264 q 376 123 296 153 q 560 93 456 93 q 809 147 717 93 q 901 292 901 200 q 844 400 901 363 q 643 454 786 438 l 442 479 q 168 570 251 501 q 85 756 85 639 q 140 917 85 849 q 297 1023 196 986 q 532 1060 397 1060 q 772 1019 667 1060 q 938 905 876 978 q 1006 733 1000 832 l 874 733 q 821 848 865 800 q 702 923 776 896 q 529 950 628 950 q 301 899 386 950 q 215 758 215 849 q 272 652 215 689 q 463 599 328 615 l 660 572 q 878 524 797 556 q 996 438 960 492 q 1032 303 1032 385 q 973 132 1032 204 q 807 21 914 60 q 558 -18 700 -18 q 304 27 415 -18 q 128 152 193 72 q 57 338 63 232 m 619 1131 l 471 1131 l 268 1331 l 393 1331 l 569 1186 l 519 1186 l 697 1331 l 821 1331 l 619 1131 m 544 1379 q 478 1403 504 1379 q 451 1464 451 1428 q 478 1526 451 1501 q 544 1550 504 1550 q 613 1526 586 1550 q 639 1464 639 1501 q 613 1403 639 1428 q 544 1379 586 1379 z "},"Ş":{"ha":1092,"x_min":57,"x_max":1032,"o":"m 57 338 l 189 338 q 247 208 199 264 q 376 123 296 153 q 560 93 456 93 q 809 147 717 93 q 901 292 901 200 q 844 400 901 363 q 643 454 786 438 l 442 479 q 168 570 251 501 q 85 756 85 639 q 140 917 85 849 q 297 1023 196 986 q 532 1060 397 1060 q 772 1019 667 1060 q 938 905 876 978 q 1006 733 1000 832 l 874 733 q 821 848 865 800 q 702 923 776 896 q 529 950 628 950 q 301 899 386 950 q 215 758 215 849 q 272 652 215 689 q 463 599 328 615 l 660 572 q 878 524 797 556 q 996 438 960 492 q 1032 303 1032 385 q 973 132 1032 204 q 807 21 914 60 q 558 -18 700 -18 q 304 27 415 -18 q 128 152 193 72 q 57 338 63 232 m 508 11 l 593 11 l 522 -101 l 488 -99 q 544 -71 515 -79 q 618 -62 574 -62 q 735 -94 692 -62 q 778 -179 778 -125 q 723 -274 778 -237 q 572 -310 668 -310 q 425 -276 488 -310 q 343 -187 363 -243 l 446 -187 q 494 -222 463 -210 q 572 -235 525 -235 q 651 -218 626 -235 q 675 -178 675 -201 q 653 -141 675 -154 q 589 -128 631 -128 q 534 -133 557 -128 q 496 -144 511 -137 l 410 -144 l 508 11 z "},"Ŝ":{"ha":1092,"x_min":57,"x_max":1032,"o":"m 57 338 l 189 338 q 247 208 199 264 q 376 123 296 153 q 560 93 456 93 q 809 147 717 93 q 901 292 901 200 q 844 400 901 363 q 643 454 786 438 l 442 479 q 168 570 251 501 q 85 756 85 639 q 140 917 85 849 q 297 1023 196 986 q 532 1060 397 1060 q 772 1019 667 1060 q 938 905 876 978 q 1006 733 1000 832 l 874 733 q 821 848 865 800 q 702 923 776 896 q 529 950 628 950 q 301 899 386 950 q 215 758 215 849 q 272 652 215 689 q 463 599 328 615 l 660 572 q 878 524 797 556 q 996 438 960 492 q 1032 303 1032 385 q 973 132 1032 204 q 807 21 914 60 q 558 -18 700 -18 q 304 27 415 -18 q 128 152 193 72 q 57 338 63 232 m 469 1331 l 618 1331 l 821 1131 l 696 1131 l 519 1275 l 569 1275 l 392 1131 l 268 1131 l 469 1331 z "},"Ș":{"ha":1092,"x_min":57,"x_max":1032,"o":"m 57 338 l 189 338 q 247 208 199 264 q 376 123 296 153 q 560 93 456 93 q 809 147 717 93 q 901 292 901 200 q 844 400 901 363 q 643 454 786 438 l 442 479 q 168 570 251 501 q 85 756 85 639 q 140 917 85 849 q 297 1023 196 986 q 532 1060 397 1060 q 772 1019 667 1060 q 938 905 876 978 q 1006 733 1000 832 l 874 733 q 821 848 865 800 q 702 923 776 896 q 529 950 628 950 q 301 899 386 950 q 215 758 215 849 q 272 652 215 689 q 463 599 328 615 l 660 572 q 878 524 797 556 q 996 438 960 492 q 1032 303 1032 385 q 973 132 1032 204 q 807 21 914 60 q 558 -18 700 -18 q 304 27 415 -18 q 128 152 193 72 q 57 338 63 232 m 464 -332 l 540 -181 l 546 -218 q 484 -197 508 -218 q 460 -144 460 -175 q 483 -89 460 -111 q 546 -67 506 -67 q 612 -90 589 -67 q 635 -147 635 -114 q 624 -195 635 -172 q 585 -264 613 -218 l 542 -332 l 464 -332 z "},"Ṡ":{"ha":1092,"x_min":57,"x_max":1032,"o":"m 57 338 l 189 338 q 247 208 199 264 q 376 123 296 153 q 560 93 456 93 q 809 147 717 93 q 901 292 901 200 q 844 400 901 363 q 643 454 786 438 l 442 479 q 168 570 251 501 q 85 756 85 639 q 140 917 85 849 q 297 1023 196 986 q 532 1060 397 1060 q 772 1019 667 1060 q 938 905 876 978 q 1006 733 1000 832 l 874 733 q 821 848 865 800 q 702 923 776 896 q 529 950 628 950 q 301 899 386 950 q 215 758 215 849 q 272 652 215 689 q 463 599 328 615 l 660 572 q 878 524 797 556 q 996 438 960 492 q 1032 303 1032 385 q 973 132 1032 204 q 807 21 914 60 q 558 -18 700 -18 q 304 27 415 -18 q 128 152 193 72 q 57 338 63 232 m 544 1160 q 478 1184 506 1160 q 451 1246 451 1208 q 478 1307 451 1282 q 544 1332 506 1332 q 613 1307 586 1332 q 639 1246 639 1282 q 613 1184 639 1208 q 544 1160 586 1160 z "},"Ṣ":{"ha":1092,"x_min":57,"x_max":1032,"o":"m 57 338 l 189 338 q 247 208 199 264 q 376 123 296 153 q 560 93 456 93 q 809 147 717 93 q 901 292 901 200 q 844 400 901 363 q 643 454 786 438 l 442 479 q 168 570 251 501 q 85 756 85 639 q 140 917 85 849 q 297 1023 196 986 q 532 1060 397 1060 q 772 1019 667 1060 q 938 905 876 978 q 1006 733 1000 832 l 874 733 q 821 848 865 800 q 702 923 776 896 q 529 950 628 950 q 301 899 386 950 q 215 758 215 849 q 272 652 215 689 q 463 599 328 615 l 660 572 q 878 524 797 556 q 996 438 960 492 q 1032 303 1032 385 q 973 132 1032 204 q 807 21 914 60 q 558 -18 700 -18 q 304 27 415 -18 q 128 152 193 72 q 57 338 63 232 m 544 -257 q 478 -233 506 -257 q 451 -171 451 -208 q 478 -110 451 -135 q 544 -86 506 -86 q 613 -110 586 -86 q 639 -171 639 -135 q 613 -233 639 -208 q 544 -257 586 -257 z "},"Ṩ":{"ha":1092,"x_min":57,"x_max":1032,"o":"m 57 338 l 189 338 q 247 208 199 264 q 376 123 296 153 q 560 93 456 93 q 809 147 717 93 q 901 292 901 200 q 844 400 901 363 q 643 454 786 438 l 442 479 q 168 570 251 501 q 85 756 85 639 q 140 917 85 849 q 297 1023 196 986 q 532 1060 397 1060 q 772 1019 667 1060 q 938 905 876 978 q 1006 733 1000 832 l 874 733 q 821 848 865 800 q 702 923 776 896 q 529 950 628 950 q 301 899 386 950 q 215 758 215 849 q 272 652 215 689 q 463 599 328 615 l 660 572 q 878 524 797 556 q 996 438 960 492 q 1032 303 1032 385 q 973 132 1032 204 q 807 21 914 60 q 558 -18 700 -18 q 304 27 415 -18 q 128 152 193 72 q 57 338 63 232 m 544 -257 q 478 -233 506 -257 q 451 -171 451 -208 q 478 -110 451 -135 q 544 -86 506 -86 q 613 -110 586 -86 q 639 -171 639 -135 q 613 -233 639 -208 q 544 -257 586 -257 m 544 1160 q 478 1184 506 1160 q 451 1246 451 1208 q 478 1307 451 1282 q 544 1332 506 1332 q 613 1307 586 1332 q 639 1246 639 1282 q 613 1184 639 1208 q 544 1160 586 1160 z "},"ẞ":{"ha":1192,"x_min":114,"x_max":1135,"o":"m 704 -18 q 593 -12 647 -18 q 486 7 539 -6 q 379 38 433 19 l 379 157 q 545 110 467 125 q 701 96 624 96 q 858 117 790 96 q 963 181 925 138 q 1001 290 1001 224 q 974 381 1001 344 q 882 440 947 417 q 701 475 817 463 l 613 486 l 613 586 l 988 944 l 994 860 q 822 922 913 900 q 622 943 732 943 q 342 863 439 943 q 244 635 244 783 l 244 0 l 114 0 l 114 631 q 168 849 114 753 q 335 1003 222 946 q 624 1060 447 1060 q 867 1032 756 1060 q 1058 958 979 1004 l 1058 863 l 707 525 l 658 583 l 732 575 q 926 539 849 563 q 1049 481 1003 515 q 1115 399 1094 446 q 1135 294 1135 353 q 1082 125 1135 194 q 933 19 1029 56 q 704 -18 836 -18 z "},"T":{"ha":1065,"x_min":21,"x_max":1046,"o":"m 468 979 l 599 979 l 599 0 l 468 0 l 468 979 m 21 1042 l 1046 1042 l 1046 926 l 21 926 l 21 1042 z "},"Ŧ":{"ha":1089,"x_min":32,"x_max":1057,"o":"m 178 550 l 911 550 l 911 447 l 178 447 l 178 550 m 479 979 l 610 979 l 610 0 l 479 0 l 479 979 m 32 1042 l 1057 1042 l 1057 926 l 32 926 l 32 1042 z "},"Ť":{"ha":1065,"x_min":21,"x_max":1046,"o":"m 468 979 l 599 979 l 599 0 l 468 0 l 468 979 m 21 1042 l 1046 1042 l 1046 926 l 21 926 l 21 1042 m 607 1131 l 458 1131 l 257 1331 l 381 1331 l 558 1186 l 508 1186 l 685 1331 l 808 1331 l 607 1131 z "},"Ţ":{"ha":1065,"x_min":21,"x_max":1046,"o":"m 468 979 l 599 979 l 599 0 l 468 0 l 468 979 m 21 1042 l 1046 1042 l 1046 926 l 21 926 l 21 1042 m 496 11 l 581 11 l 510 -101 l 475 -99 q 532 -71 503 -79 q 606 -62 561 -62 q 722 -94 679 -62 q 765 -179 765 -125 q 710 -274 765 -237 q 560 -310 656 -310 q 413 -276 475 -310 q 331 -187 350 -243 l 433 -187 q 481 -222 450 -210 q 560 -235 513 -235 q 638 -218 614 -235 q 663 -178 663 -201 q 640 -141 663 -154 q 576 -128 618 -128 q 522 -133 544 -128 q 483 -144 499 -137 l 397 -144 l 496 11 z "},"Ṱ":{"ha":1065,"x_min":21,"x_max":1046,"o":"m 468 979 l 599 979 l 599 0 l 468 0 l 468 979 m 21 1042 l 1046 1042 l 1046 926 l 21 926 l 21 1042 m 461 -57 l 606 -57 l 804 -285 l 686 -285 l 508 -108 l 558 -108 l 382 -285 l 263 -285 l 461 -57 z "},"Ț":{"ha":1065,"x_min":21,"x_max":1046,"o":"m 468 979 l 599 979 l 599 0 l 468 0 l 468 979 m 21 1042 l 1046 1042 l 1046 926 l 21 926 l 21 1042 m 451 -332 l 528 -181 l 533 -218 q 472 -197 496 -218 q 447 -144 447 -175 q 470 -89 447 -111 q 533 -67 493 -67 q 599 -90 576 -67 q 622 -147 622 -114 q 611 -195 622 -172 q 572 -264 600 -218 l 529 -332 l 451 -332 z "},"Ⱦ":{"ha":1068,"x_min":21,"x_max":1063,"o":"m 947 1211 l 1063 1211 l 392 -169 l 276 -169 l 947 1211 m 468 979 l 599 979 l 599 0 l 468 0 l 468 979 m 21 1042 l 1046 1042 l 1046 926 l 21 926 l 21 1042 z "},"Ṫ":{"ha":1065,"x_min":21,"x_max":1046,"o":"m 468 979 l 599 979 l 599 0 l 468 0 l 468 979 m 21 1042 l 1046 1042 l 1046 926 l 21 926 l 21 1042 m 532 1160 q 466 1184 493 1160 q 439 1246 439 1208 q 466 1307 439 1282 q 532 1332 493 1332 q 600 1307 574 1332 q 626 1246 626 1282 q 600 1184 626 1208 q 532 1160 574 1160 z "},"Ṭ":{"ha":1065,"x_min":21,"x_max":1046,"o":"m 468 979 l 599 979 l 599 0 l 468 0 l 468 979 m 21 1042 l 1046 1042 l 1046 926 l 21 926 l 21 1042 m 532 -257 q 466 -233 493 -257 q 439 -171 439 -208 q 466 -110 439 -135 q 532 -86 493 -86 q 600 -110 574 -86 q 626 -171 626 -135 q 600 -233 626 -208 q 532 -257 574 -257 z "},"Ƭ":{"ha":1158,"x_min":35,"x_max":1139,"o":"m 561 979 l 692 979 l 692 0 l 561 0 l 561 979 m 1139 1042 l 1139 926 l 286 926 q 190 900 225 926 q 156 808 156 874 q 167 726 156 765 q 194 643 178 686 l 83 643 q 50 731 65 681 q 35 833 35 782 q 94 989 35 936 q 258 1042 153 1042 l 1139 1042 z "},"Ṯ":{"ha":1065,"x_min":21,"x_max":1046,"o":"m 468 979 l 599 979 l 599 0 l 468 0 l 468 979 m 21 1042 l 1046 1042 l 1046 926 l 21 926 l 21 1042 m 249 -192 l 249 -99 l 818 -99 l 818 -192 l 249 -192 z "},"Ʈ":{"ha":1065,"x_min":21,"x_max":1046,"o":"m 21 1042 l 1046 1042 l 1046 926 l 21 926 l 21 1042 m 758 -136 q 834 -125 799 -136 q 896 -100 869 -114 l 896 -211 q 822 -237 864 -226 q 735 -247 781 -247 q 535 -172 603 -247 q 468 33 468 -96 l 468 979 l 599 979 l 599 49 q 638 -91 599 -46 q 758 -136 676 -136 z "},"U":{"ha":1185,"x_min":113,"x_max":1074,"o":"m 243 438 q 285 259 243 335 q 407 142 328 183 q 593 100 486 100 q 779 142 701 100 q 900 259 857 183 q 943 438 943 335 l 943 1042 l 1074 1042 l 1074 435 q 1013 198 1074 300 q 844 39 951 96 q 593 -18 736 -18 q 342 39 450 -18 q 173 198 233 96 q 113 435 113 300 l 113 1042 l 243 1042 l 243 438 z "},"Ú":{"ha":1185,"x_min":113,"x_max":1074,"o":"m 243 438 q 285 259 243 335 q 407 142 328 183 q 593 100 486 100 q 779 142 701 100 q 900 259 857 183 q 943 438 943 335 l 943 1042 l 1074 1042 l 1074 435 q 1013 198 1074 300 q 844 39 951 96 q 593 -18 736 -18 q 342 39 450 -18 q 173 198 233 96 q 113 435 113 300 l 113 1042 l 243 1042 l 243 438 m 692 1331 l 850 1331 l 629 1131 l 490 1131 l 692 1331 z "},"Ʉ":{"ha":1265,"x_min":21,"x_max":1246,"o":"m 21 618 l 1246 618 l 1246 515 l 21 515 l 21 618 m 283 438 q 326 259 283 335 q 447 142 368 183 q 633 100 526 100 q 819 142 742 100 q 940 259 897 183 q 983 438 983 335 l 983 1042 l 1114 1042 l 1114 435 q 1053 198 1114 300 q 884 39 992 96 q 633 -18 776 -18 q 382 39 490 -18 q 213 198 274 96 q 153 435 153 300 l 153 1042 l 283 1042 l 283 438 z "},"Ŭ":{"ha":1185,"x_min":113,"x_max":1074,"o":"m 243 438 q 285 259 243 335 q 407 142 328 183 q 593 100 486 100 q 779 142 701 100 q 900 259 857 183 q 943 438 943 335 l 943 1042 l 1074 1042 l 1074 435 q 1013 198 1074 300 q 844 39 951 96 q 593 -18 736 -18 q 342 39 450 -18 q 173 198 233 96 q 113 435 113 300 l 113 1042 l 243 1042 l 243 438 m 321 1332 l 428 1332 q 484 1246 443 1276 q 592 1215 525 1215 q 701 1246 660 1215 q 757 1332 742 1276 l 864 1332 q 771 1178 843 1232 q 592 1125 699 1125 q 414 1178 486 1125 q 321 1332 342 1232 z "},"Ǔ":{"ha":1185,"x_min":113,"x_max":1074,"o":"m 243 438 q 285 259 243 335 q 407 142 328 183 q 593 100 486 100 q 779 142 701 100 q 900 259 857 183 q 943 438 943 335 l 943 1042 l 1074 1042 l 1074 435 q 1013 198 1074 300 q 844 39 951 96 q 593 -18 736 -18 q 342 39 450 -18 q 173 198 233 96 q 113 435 113 300 l 113 1042 l 243 1042 l 243 438 m 667 1131 l 518 1131 l 317 1331 l 440 1331 l 618 1186 l 568 1186 l 744 1331 l 868 1331 l 667 1131 z "},"Û":{"ha":1185,"x_min":113,"x_max":1074,"o":"m 243 438 q 285 259 243 335 q 407 142 328 183 q 593 100 486 100 q 779 142 701 100 q 900 259 857 183 q 943 438 943 335 l 943 1042 l 1074 1042 l 1074 435 q 1013 198 1074 300 q 844 39 951 96 q 593 -18 736 -18 q 342 39 450 -18 q 173 198 233 96 q 113 435 113 300 l 113 1042 l 243 1042 l 243 438 m 518 1331 l 667 1331 l 869 1131 l 744 1131 l 568 1275 l 618 1275 l 440 1131 l 317 1131 l 518 1331 z "},"Ṷ":{"ha":1185,"x_min":113,"x_max":1074,"o":"m 243 438 q 285 259 243 335 q 407 142 328 183 q 593 100 486 100 q 779 142 701 100 q 900 259 857 183 q 943 438 943 335 l 943 1042 l 1074 1042 l 1074 435 q 1013 198 1074 300 q 844 39 951 96 q 593 -18 736 -18 q 342 39 450 -18 q 173 198 233 96 q 113 435 113 300 l 113 1042 l 243 1042 l 243 438 m 521 -57 l 665 -57 l 864 -285 l 746 -285 l 568 -108 l 618 -108 l 442 -285 l 322 -285 l 521 -57 z "},"Ȕ":{"ha":1185,"x_min":113,"x_max":1074,"o":"m 243 438 q 285 259 243 335 q 407 142 328 183 q 593 100 486 100 q 779 142 701 100 q 900 259 857 183 q 943 438 943 335 l 943 1042 l 1074 1042 l 1074 435 q 1013 198 1074 300 q 844 39 951 96 q 593 -18 736 -18 q 342 39 450 -18 q 173 198 233 96 q 113 435 113 300 l 113 1042 l 243 1042 l 243 438 m 636 1331 l 801 1131 l 675 1131 l 500 1331 l 636 1331 m 363 1331 l 528 1131 l 400 1131 l 225 1331 l 363 1331 z "},"Ü":{"ha":1185,"x_min":113,"x_max":1074,"o":"m 243 438 q 285 259 243 335 q 407 142 328 183 q 593 100 486 100 q 779 142 701 100 q 900 259 857 183 q 943 438 943 335 l 943 1042 l 1074 1042 l 1074 435 q 1013 198 1074 300 q 844 39 951 96 q 593 -18 736 -18 q 342 39 450 -18 q 173 198 233 96 q 113 435 113 300 l 113 1042 l 243 1042 l 243 438 m 386 1160 q 322 1184 347 1160 q 296 1244 296 1208 q 322 1304 296 1281 q 386 1328 347 1328 q 452 1304 426 1328 q 478 1244 478 1281 q 452 1184 478 1208 q 386 1160 426 1160 m 800 1160 q 734 1184 760 1160 q 708 1244 708 1208 q 734 1304 708 1281 q 800 1328 760 1328 q 865 1304 839 1328 q 890 1244 890 1281 q 865 1184 890 1208 q 800 1160 839 1160 z "},"Ǘ":{"ha":1185,"x_min":113,"x_max":1074,"o":"m 243 438 q 285 259 243 335 q 407 142 328 183 q 593 100 486 100 q 779 142 701 100 q 900 259 857 183 q 943 438 943 335 l 943 1042 l 1074 1042 l 1074 435 q 1013 198 1074 300 q 844 39 951 96 q 593 -18 736 -18 q 342 39 450 -18 q 173 198 233 96 q 113 435 113 300 l 113 1042 l 243 1042 l 243 438 m 386 1160 q 322 1184 347 1160 q 296 1244 296 1208 q 322 1304 296 1281 q 386 1328 347 1328 q 452 1304 426 1328 q 478 1244 478 1281 q 452 1184 478 1208 q 386 1160 426 1160 m 800 1160 q 734 1184 760 1160 q 708 1244 708 1208 q 734 1304 708 1281 q 800 1328 760 1328 q 865 1304 839 1328 q 890 1244 890 1281 q 865 1184 890 1208 q 800 1160 839 1160 m 692 1586 l 850 1586 l 629 1386 l 490 1386 l 692 1586 z "},"Ṳ":{"ha":1185,"x_min":113,"x_max":1074,"o":"m 243 438 q 285 259 243 335 q 407 142 328 183 q 593 100 486 100 q 779 142 701 100 q 900 259 857 183 q 943 438 943 335 l 943 1042 l 1074 1042 l 1074 435 q 1013 198 1074 300 q 844 39 951 96 q 593 -18 736 -18 q 342 39 450 -18 q 173 198 233 96 q 113 435 113 300 l 113 1042 l 243 1042 l 243 438 m 388 -254 q 323 -231 349 -254 q 297 -169 297 -207 q 323 -110 297 -133 q 388 -86 349 -86 q 453 -110 428 -86 q 479 -169 479 -133 q 453 -231 479 -207 q 388 -254 428 -254 m 799 -254 q 733 -231 758 -254 q 707 -169 707 -207 q 733 -110 707 -133 q 799 -86 758 -86 q 863 -110 838 -86 q 889 -169 889 -133 q 863 -231 889 -207 q 799 -254 838 -254 z "},"Ǚ":{"ha":1185,"x_min":113,"x_max":1074,"o":"m 243 438 q 285 259 243 335 q 407 142 328 183 q 593 100 486 100 q 779 142 701 100 q 900 259 857 183 q 943 438 943 335 l 943 1042 l 1074 1042 l 1074 435 q 1013 198 1074 300 q 844 39 951 96 q 593 -18 736 -18 q 342 39 450 -18 q 173 198 233 96 q 113 435 113 300 l 113 1042 l 243 1042 l 243 438 m 386 1160 q 320 1184 346 1160 q 294 1244 294 1208 q 320 1304 294 1281 q 386 1328 346 1328 q 451 1304 425 1328 q 476 1244 476 1281 q 451 1184 476 1208 q 386 1160 425 1160 m 799 1160 q 734 1184 760 1160 q 708 1244 708 1208 q 734 1304 708 1281 q 799 1328 760 1328 q 865 1304 839 1328 q 890 1244 890 1281 q 865 1184 890 1208 q 799 1160 839 1160 m 667 1386 l 518 1386 l 317 1586 l 440 1586 l 618 1442 l 568 1442 l 744 1586 l 868 1586 l 667 1386 z "},"Ǜ":{"ha":1185,"x_min":113,"x_max":1074,"o":"m 243 438 q 285 259 243 335 q 407 142 328 183 q 593 100 486 100 q 779 142 701 100 q 900 259 857 183 q 943 438 943 335 l 943 1042 l 1074 1042 l 1074 435 q 1013 198 1074 300 q 844 39 951 96 q 593 -18 736 -18 q 342 39 450 -18 q 173 198 233 96 q 113 435 113 300 l 113 1042 l 243 1042 l 243 438 m 386 1160 q 320 1184 346 1160 q 294 1244 294 1208 q 320 1304 294 1281 q 386 1328 346 1328 q 451 1304 425 1328 q 476 1244 476 1281 q 451 1184 476 1208 q 386 1160 425 1160 m 799 1160 q 734 1184 760 1160 q 708 1244 708 1208 q 734 1304 708 1281 q 799 1328 760 1328 q 865 1304 839 1328 q 890 1244 890 1281 q 865 1184 890 1208 q 799 1160 839 1160 m 475 1586 l 676 1386 l 538 1386 l 317 1586 l 475 1586 z "},"Ǖ":{"ha":1185,"x_min":113,"x_max":1074,"o":"m 243 438 q 285 259 243 335 q 407 142 328 183 q 593 100 486 100 q 779 142 701 100 q 900 259 857 183 q 943 438 943 335 l 943 1042 l 1074 1042 l 1074 435 q 1013 198 1074 300 q 844 39 951 96 q 593 -18 736 -18 q 342 39 450 -18 q 173 198 233 96 q 113 435 113 300 l 113 1042 l 243 1042 l 243 438 m 386 1160 q 322 1184 347 1160 q 296 1244 296 1208 q 322 1304 296 1281 q 386 1328 347 1328 q 452 1304 426 1328 q 478 1244 478 1281 q 452 1184 478 1208 q 386 1160 426 1160 m 800 1160 q 734 1184 760 1160 q 708 1244 708 1208 q 734 1304 708 1281 q 800 1328 760 1328 q 865 1304 839 1328 q 890 1244 890 1281 q 865 1184 890 1208 q 800 1160 839 1160 m 308 1417 l 308 1510 l 878 1510 l 878 1417 l 308 1417 z "},"Ụ":{"ha":1185,"x_min":113,"x_max":1074,"o":"m 243 438 q 285 259 243 335 q 407 142 328 183 q 593 100 486 100 q 779 142 701 100 q 900 259 857 183 q 943 438 943 335 l 943 1042 l 1074 1042 l 1074 435 q 1013 198 1074 300 q 844 39 951 96 q 593 -18 736 -18 q 342 39 450 -18 q 173 198 233 96 q 113 435 113 300 l 113 1042 l 243 1042 l 243 438 m 592 -257 q 526 -233 553 -257 q 499 -171 499 -208 q 526 -110 499 -135 q 592 -86 553 -86 q 660 -110 633 -86 q 686 -171 686 -135 q 660 -233 686 -208 q 592 -257 633 -257 z "},"Ù":{"ha":1185,"x_min":113,"x_max":1074,"o":"m 243 438 q 285 259 243 335 q 407 142 328 183 q 593 100 486 100 q 779 142 701 100 q 900 259 857 183 q 943 438 943 335 l 943 1042 l 1074 1042 l 1074 435 q 1013 198 1074 300 q 844 39 951 96 q 593 -18 736 -18 q 342 39 450 -18 q 173 198 233 96 q 113 435 113 300 l 113 1042 l 243 1042 l 243 438 m 475 1331 l 676 1131 l 538 1131 l 317 1331 l 475 1331 z "},"Ủ":{"ha":1185,"x_min":113,"x_max":1074,"o":"m 243 438 q 285 259 243 335 q 407 142 328 183 q 593 100 486 100 q 779 142 701 100 q 900 259 857 183 q 943 438 943 335 l 943 1042 l 1074 1042 l 1074 435 q 1013 198 1074 300 q 844 39 951 96 q 593 -18 736 -18 q 342 39 450 -18 q 173 198 233 96 q 113 435 113 300 l 113 1042 l 243 1042 l 243 438 m 553 1111 l 518 1174 q 617 1203 585 1185 q 649 1244 649 1221 q 623 1277 649 1267 q 550 1288 597 1288 q 486 1283 515 1288 q 428 1271 457 1278 l 428 1357 q 490 1370 453 1364 q 571 1376 528 1376 q 713 1346 663 1376 q 764 1257 764 1315 q 713 1166 764 1203 q 553 1111 663 1129 z "},"Ư":{"ha":1207,"x_min":113,"x_max":1267,"o":"m 243 438 q 285 259 243 335 q 407 142 328 183 q 593 100 486 100 q 779 142 701 100 q 900 259 857 183 q 943 438 943 335 l 943 1042 l 1074 1042 l 1074 435 q 1013 198 1074 300 q 844 39 951 96 q 593 -18 736 -18 q 342 39 450 -18 q 173 198 233 96 q 113 435 113 300 l 113 1042 l 243 1042 l 243 438 m 1267 1117 q 1211 1001 1267 1044 q 1061 958 1156 958 q 1054 958 1058 958 q 1047 958 1050 958 l 1047 1043 q 1050 1043 1050 1043 q 1051 1043 1050 1043 q 1128 1065 1100 1043 q 1156 1128 1156 1088 q 1147 1176 1156 1149 q 1124 1225 1139 1204 l 1236 1225 q 1267 1117 1267 1174 z "},"Ứ":{"ha":1207,"x_min":113,"x_max":1267,"o":"m 243 438 q 285 259 243 335 q 407 142 328 183 q 593 100 486 100 q 779 142 701 100 q 900 259 857 183 q 943 438 943 335 l 943 1042 l 1074 1042 l 1074 435 q 1013 198 1074 300 q 844 39 951 96 q 593 -18 736 -18 q 342 39 450 -18 q 173 198 233 96 q 113 435 113 300 l 113 1042 l 243 1042 l 243 438 m 1267 1117 q 1211 1001 1267 1044 q 1061 958 1156 958 q 1054 958 1058 958 q 1047 958 1050 958 l 1047 1043 q 1050 1043 1050 1043 q 1051 1043 1050 1043 q 1128 1065 1100 1043 q 1156 1128 1156 1088 q 1147 1176 1156 1149 q 1124 1225 1139 1204 l 1236 1225 q 1267 1117 1267 1174 m 693 1331 l 851 1331 l 631 1131 l 492 1131 l 693 1331 z "},"Ự":{"ha":1207,"x_min":113,"x_max":1267,"o":"m 243 438 q 285 259 243 335 q 407 142 328 183 q 593 100 486 100 q 779 142 701 100 q 900 259 857 183 q 943 438 943 335 l 943 1042 l 1074 1042 l 1074 435 q 1013 198 1074 300 q 844 39 951 96 q 593 -18 736 -18 q 342 39 450 -18 q 173 198 233 96 q 113 435 113 300 l 113 1042 l 243 1042 l 243 438 m 1267 1117 q 1211 1001 1267 1044 q 1061 958 1156 958 q 1054 958 1058 958 q 1047 958 1050 958 l 1047 1043 q 1050 1043 1050 1043 q 1051 1043 1050 1043 q 1128 1065 1100 1043 q 1156 1128 1156 1088 q 1147 1176 1156 1149 q 1124 1225 1139 1204 l 1236 1225 q 1267 1117 1267 1174 m 593 -257 q 527 -233 554 -257 q 500 -171 500 -208 q 527 -110 500 -135 q 593 -86 554 -86 q 661 -110 635 -86 q 688 -171 688 -135 q 661 -233 688 -208 q 593 -257 635 -257 z "},"Ừ":{"ha":1207,"x_min":113,"x_max":1267,"o":"m 243 438 q 285 259 243 335 q 407 142 328 183 q 593 100 486 100 q 779 142 701 100 q 900 259 857 183 q 943 438 943 335 l 943 1042 l 1074 1042 l 1074 435 q 1013 198 1074 300 q 844 39 951 96 q 593 -18 736 -18 q 342 39 450 -18 q 173 198 233 96 q 113 435 113 300 l 113 1042 l 243 1042 l 243 438 m 1267 1117 q 1210 1001 1267 1044 q 1061 957 1154 957 q 1053 957 1057 957 q 1047 957 1049 957 l 1047 1042 q 1049 1042 1049 1042 q 1051 1042 1050 1042 q 1128 1065 1100 1042 q 1156 1126 1156 1088 q 1147 1175 1156 1147 q 1124 1224 1139 1203 l 1235 1224 q 1267 1117 1267 1172 m 476 1331 l 678 1131 l 539 1131 l 318 1331 l 476 1331 z "},"Ử":{"ha":1207,"x_min":113,"x_max":1267,"o":"m 243 438 q 285 259 243 335 q 407 142 328 183 q 593 100 486 100 q 779 142 701 100 q 900 259 857 183 q 943 438 943 335 l 943 1042 l 1074 1042 l 1074 435 q 1013 198 1074 300 q 844 39 951 96 q 593 -18 736 -18 q 342 39 450 -18 q 173 198 233 96 q 113 435 113 300 l 113 1042 l 243 1042 l 243 438 m 1267 1117 q 1211 1001 1267 1044 q 1061 958 1156 958 q 1054 958 1058 958 q 1047 958 1050 958 l 1047 1043 q 1050 1043 1050 1043 q 1051 1043 1050 1043 q 1128 1065 1100 1043 q 1156 1128 1156 1088 q 1147 1176 1156 1149 q 1124 1225 1139 1204 l 1236 1225 q 1267 1117 1267 1174 m 554 1111 l 519 1174 q 618 1203 586 1185 q 650 1244 650 1221 q 624 1277 650 1267 q 551 1288 599 1288 q 488 1283 517 1288 q 429 1271 458 1278 l 429 1357 q 492 1370 454 1364 q 572 1376 529 1376 q 715 1346 664 1376 q 765 1257 765 1315 q 715 1166 765 1203 q 554 1111 664 1129 z "},"Ữ":{"ha":1207,"x_min":113,"x_max":1267,"o":"m 243 438 q 285 259 243 335 q 407 142 328 183 q 593 100 486 100 q 779 142 701 100 q 900 259 857 183 q 943 438 943 335 l 943 1042 l 1074 1042 l 1074 435 q 1013 198 1074 300 q 844 39 951 96 q 593 -18 736 -18 q 342 39 450 -18 q 173 198 233 96 q 113 435 113 300 l 113 1042 l 243 1042 l 243 438 m 1267 1117 q 1211 1001 1267 1044 q 1061 958 1156 958 q 1054 958 1058 958 q 1047 958 1050 958 l 1047 1043 q 1050 1043 1050 1043 q 1051 1043 1050 1043 q 1128 1065 1100 1043 q 1156 1128 1156 1088 q 1147 1176 1156 1149 q 1124 1225 1139 1204 l 1236 1225 q 1267 1117 1267 1174 m 289 1142 q 340 1272 296 1222 q 460 1322 383 1322 q 533 1309 496 1322 q 603 1279 569 1296 q 669 1249 638 1263 q 725 1236 700 1236 q 778 1258 758 1236 q 804 1319 799 1281 l 899 1319 q 847 1189 892 1239 q 728 1139 803 1139 q 655 1152 692 1139 q 584 1182 618 1165 q 519 1212 550 1199 q 463 1225 488 1225 q 410 1203 431 1225 q 383 1142 389 1181 l 289 1142 z "},"Ű":{"ha":1185,"x_min":113,"x_max":1074,"o":"m 243 438 q 285 259 243 335 q 407 142 328 183 q 593 100 486 100 q 779 142 701 100 q 900 259 857 183 q 943 438 943 335 l 943 1042 l 1074 1042 l 1074 435 q 1013 198 1074 300 q 844 39 951 96 q 593 -18 736 -18 q 342 39 450 -18 q 173 198 233 96 q 113 435 113 300 l 113 1042 l 243 1042 l 243 438 m 557 1331 l 693 1331 l 518 1131 l 390 1131 l 557 1331 m 831 1331 l 967 1331 l 792 1131 l 665 1131 l 831 1331 z "},"Ȗ":{"ha":1185,"x_min":113,"x_max":1074,"o":"m 243 438 q 285 259 243 335 q 407 142 328 183 q 593 100 486 100 q 779 142 701 100 q 900 259 857 183 q 943 438 943 335 l 943 1042 l 1074 1042 l 1074 435 q 1013 198 1074 300 q 844 39 951 96 q 593 -18 736 -18 q 342 39 450 -18 q 173 198 233 96 q 113 435 113 300 l 113 1042 l 243 1042 l 243 438 m 864 1129 l 757 1129 q 701 1214 742 1183 q 593 1244 660 1244 q 484 1214 525 1244 q 428 1129 443 1183 l 321 1129 q 415 1281 342 1228 q 593 1335 488 1335 q 771 1281 699 1335 q 864 1129 843 1228 z "},"Ū":{"ha":1185,"x_min":113,"x_max":1074,"o":"m 243 438 q 285 259 243 335 q 407 142 328 183 q 593 100 486 100 q 779 142 701 100 q 900 259 857 183 q 943 438 943 335 l 943 1042 l 1074 1042 l 1074 435 q 1013 198 1074 300 q 844 39 951 96 q 593 -18 736 -18 q 342 39 450 -18 q 173 198 233 96 q 113 435 113 300 l 113 1042 l 243 1042 l 243 438 m 308 1175 l 308 1268 l 878 1268 l 878 1175 l 308 1175 z "},"Ṻ":{"ha":1185,"x_min":113,"x_max":1074,"o":"m 243 438 q 285 259 243 335 q 407 142 328 183 q 593 100 486 100 q 779 142 701 100 q 900 259 857 183 q 943 438 943 335 l 943 1042 l 1074 1042 l 1074 435 q 1013 198 1074 300 q 844 39 951 96 q 593 -18 736 -18 q 342 39 450 -18 q 173 198 233 96 q 113 435 113 300 l 113 1042 l 243 1042 l 243 438 m 308 1175 l 308 1268 l 878 1268 l 878 1175 l 308 1175 m 386 1382 q 322 1406 347 1382 q 296 1467 296 1431 q 322 1526 296 1503 q 386 1550 347 1550 q 452 1526 426 1550 q 478 1467 478 1503 q 452 1406 478 1431 q 386 1382 426 1382 m 800 1382 q 734 1406 760 1382 q 708 1467 708 1431 q 734 1526 708 1503 q 800 1550 760 1550 q 865 1526 839 1550 q 890 1467 890 1503 q 865 1406 890 1431 q 800 1382 839 1382 z "},"Ų":{"ha":1185,"x_min":113,"x_max":1074,"o":"m 943 440 l 943 1042 l 1074 1042 l 1074 436 q 987 160 1074 269 q 756 6 900 50 q 613 -53 664 -22 q 561 -118 561 -83 q 672 -169 561 -169 q 718 -167 694 -169 q 760 -161 742 -165 l 760 -247 q 710 -258 742 -253 q 646 -262 678 -262 q 509 -231 561 -262 q 457 -147 457 -200 q 492 -65 457 -103 q 606 3 526 -28 l 608 -15 q 350 38 463 -18 q 175 196 238 93 q 113 436 113 299 l 113 1042 l 243 1042 l 243 440 q 285 260 243 336 q 407 142 328 183 q 593 100 486 100 q 779 142 701 100 q 900 260 857 183 q 943 440 943 336 z "},"Ʊ":{"ha":1289,"x_min":64,"x_max":1226,"o":"m 644 -18 q 344 49 467 -18 q 158 232 221 117 q 94 489 94 347 q 184 781 94 653 q 433 978 274 908 l 425 931 l 64 931 l 64 1042 l 515 1042 l 515 936 q 297 756 369 861 q 225 511 225 651 q 275 294 225 386 q 419 151 325 201 q 644 101 513 101 q 872 151 778 101 q 1015 294 965 201 q 1065 511 1065 386 q 993 756 1065 651 q 775 936 921 861 l 775 1042 l 1226 1042 l 1226 931 l 864 931 l 856 979 q 1105 781 1014 910 q 1196 489 1196 653 q 1133 232 1196 347 q 947 49 1069 117 q 644 -18 824 -18 z "},"Ů":{"ha":1185,"x_min":113,"x_max":1074,"o":"m 243 438 q 285 259 243 335 q 407 142 328 183 q 593 100 486 100 q 779 142 701 100 q 900 259 857 183 q 943 438 943 335 l 943 1042 l 1074 1042 l 1074 435 q 1013 198 1074 300 q 844 39 951 96 q 593 -18 736 -18 q 342 39 450 -18 q 173 198 233 96 q 113 435 113 300 l 113 1042 l 243 1042 l 243 438 m 593 1115 q 446 1155 500 1115 q 392 1260 392 1194 q 446 1367 392 1328 q 593 1407 500 1407 q 741 1367 688 1407 q 794 1260 794 1328 q 741 1155 794 1194 q 593 1115 688 1115 m 593 1189 q 680 1208 650 1189 q 710 1261 710 1226 q 680 1315 710 1296 q 593 1333 650 1333 q 507 1315 536 1333 q 478 1260 478 1296 q 507 1208 478 1226 q 593 1189 536 1189 z "},"Ũ":{"ha":1185,"x_min":113,"x_max":1074,"o":"m 243 438 q 285 259 243 335 q 407 142 328 183 q 593 100 486 100 q 779 142 701 100 q 900 259 857 183 q 943 438 943 335 l 943 1042 l 1074 1042 l 1074 435 q 1013 198 1074 300 q 844 39 951 96 q 593 -18 736 -18 q 342 39 450 -18 q 173 198 233 96 q 113 435 113 300 l 113 1042 l 243 1042 l 243 438 m 288 1142 q 338 1272 294 1222 q 458 1322 382 1322 q 531 1309 494 1322 q 602 1279 568 1296 q 667 1249 636 1263 q 724 1236 699 1236 q 777 1258 757 1236 q 803 1319 797 1281 l 897 1319 q 846 1189 890 1239 q 726 1139 801 1139 q 653 1152 690 1139 q 583 1182 617 1165 q 517 1212 549 1199 q 461 1225 486 1225 q 408 1203 429 1225 q 382 1142 388 1181 l 288 1142 z "},"Ṹ":{"ha":1185,"x_min":113,"x_max":1074,"o":"m 243 438 q 285 259 243 335 q 407 142 328 183 q 593 100 486 100 q 779 142 701 100 q 900 259 857 183 q 943 438 943 335 l 943 1042 l 1074 1042 l 1074 435 q 1013 198 1074 300 q 844 39 951 96 q 593 -18 736 -18 q 342 39 450 -18 q 173 198 233 96 q 113 435 113 300 l 113 1042 l 243 1042 l 243 438 m 288 1142 q 338 1272 294 1222 q 458 1322 382 1322 q 531 1309 494 1322 q 602 1279 568 1296 q 667 1249 636 1263 q 724 1236 699 1236 q 777 1258 757 1236 q 803 1319 797 1281 l 897 1319 q 846 1189 890 1239 q 726 1139 801 1139 q 653 1152 690 1139 q 583 1182 617 1165 q 517 1212 549 1199 q 461 1225 486 1225 q 408 1203 429 1225 q 382 1142 388 1181 l 288 1142 m 692 1560 l 850 1560 l 629 1360 l 490 1360 l 692 1560 z "},"Ṵ":{"ha":1185,"x_min":113,"x_max":1074,"o":"m 243 438 q 285 259 243 335 q 407 142 328 183 q 593 100 486 100 q 779 142 701 100 q 900 259 857 183 q 943 438 943 335 l 943 1042 l 1074 1042 l 1074 435 q 1013 198 1074 300 q 844 39 951 96 q 593 -18 736 -18 q 342 39 450 -18 q 173 198 233 96 q 113 435 113 300 l 113 1042 l 243 1042 l 243 438 m 301 -254 q 350 -115 308 -167 q 465 -62 392 -62 q 533 -76 500 -62 q 598 -107 567 -90 q 658 -137 629 -124 q 710 -150 686 -150 q 763 -127 742 -150 q 789 -64 783 -104 l 883 -64 q 836 -201 878 -147 q 719 -254 794 -254 q 651 -240 685 -254 q 587 -210 618 -226 q 528 -180 556 -193 q 476 -167 500 -167 q 424 -190 444 -167 q 397 -254 404 -212 l 301 -254 z "},"V":{"ha":1197,"x_min":15,"x_max":1182,"o":"m 635 51 l 567 51 l 1040 1042 l 1182 1042 l 669 0 l 528 0 l 15 1042 l 157 1042 l 635 51 z "},"Ɣ":{"ha":1190,"x_min":13,"x_max":1178,"o":"m 354 99 l 842 99 l 817 29 l 560 351 l 632 351 l 378 28 l 354 99 m 208 0 l 546 429 l 538 367 l 13 1042 l 164 1042 l 625 446 l 569 451 l 1036 1042 l 1178 1042 l 650 365 l 640 435 l 988 0 l 208 0 z "},"Ṿ":{"ha":1197,"x_min":15,"x_max":1182,"o":"m 635 51 l 567 51 l 1040 1042 l 1182 1042 l 669 0 l 528 0 l 15 1042 l 157 1042 l 635 51 m 599 -257 q 533 -233 560 -257 q 506 -171 506 -208 q 533 -110 506 -135 q 599 -86 560 -86 q 667 -110 640 -86 q 693 -171 693 -135 q 667 -233 693 -208 q 599 -257 640 -257 z "},"Ʋ":{"ha":1186,"x_min":115,"x_max":1115,"o":"m 115 417 l 115 1042 l 246 1042 l 246 418 q 274 258 246 331 q 366 143 303 186 q 532 100 429 100 q 701 140 621 100 q 845 256 782 181 q 945 441 908 332 q 982 688 982 550 q 923 879 982 814 q 763 944 864 944 q 674 933 715 944 q 597 903 632 921 l 597 1017 q 679 1047 628 1033 q 788 1060 731 1060 q 1030 967 944 1060 q 1115 689 1115 875 q 1072 407 1115 536 q 951 183 1029 278 q 765 35 874 88 q 525 -18 657 -18 q 292 40 383 -18 q 158 195 201 97 q 115 417 115 293 z "},"Ṽ":{"ha":1197,"x_min":15,"x_max":1182,"o":"m 635 51 l 567 51 l 1040 1042 l 1182 1042 l 669 0 l 528 0 l 15 1042 l 157 1042 l 635 51 m 294 1142 q 345 1272 301 1222 q 465 1322 389 1322 q 538 1309 501 1322 q 609 1279 575 1296 q 674 1249 643 1263 q 731 1236 706 1236 q 784 1258 764 1236 q 810 1319 804 1281 l 904 1319 q 853 1189 897 1239 q 733 1139 808 1139 q 660 1152 697 1139 q 590 1182 624 1165 q 524 1212 556 1199 q 468 1225 493 1225 q 415 1203 436 1225 q 389 1142 394 1181 l 294 1142 z "},"Ʌ":{"ha":1192,"x_min":15,"x_max":1176,"o":"m 15 0 l 525 1042 l 668 1042 l 1176 0 l 1038 0 l 564 990 l 631 990 l 156 0 l 15 0 z "},"W":{"ha":1807,"x_min":28,"x_max":1781,"o":"m 1354 43 l 1294 43 l 1644 1042 l 1781 1042 l 1408 0 l 1246 0 l 869 988 l 939 988 l 563 0 l 399 0 l 28 1042 l 164 1042 l 513 43 l 456 43 l 832 1042 l 976 1042 l 1354 43 z "},"Ẃ":{"ha":1807,"x_min":28,"x_max":1781,"o":"m 1354 43 l 1294 43 l 1644 1042 l 1781 1042 l 1408 0 l 1246 0 l 869 988 l 939 988 l 563 0 l 399 0 l 28 1042 l 164 1042 l 513 43 l 456 43 l 832 1042 l 976 1042 l 1354 43 m 1003 1331 l 1161 1331 l 940 1131 l 801 1131 l 1003 1331 z "},"Ŵ":{"ha":1807,"x_min":28,"x_max":1781,"o":"m 1354 43 l 1294 43 l 1644 1042 l 1781 1042 l 1408 0 l 1246 0 l 869 988 l 939 988 l 563 0 l 399 0 l 28 1042 l 164 1042 l 513 43 l 456 43 l 832 1042 l 976 1042 l 1354 43 m 829 1331 l 978 1331 l 1181 1131 l 1056 1131 l 879 1275 l 929 1275 l 751 1131 l 628 1131 l 829 1331 z "},"Ẅ":{"ha":1807,"x_min":28,"x_max":1781,"o":"m 1354 43 l 1294 43 l 1644 1042 l 1781 1042 l 1408 0 l 1246 0 l 869 988 l 939 988 l 563 0 l 399 0 l 28 1042 l 164 1042 l 513 43 l 456 43 l 832 1042 l 976 1042 l 1354 43 m 697 1160 q 633 1184 658 1160 q 607 1244 607 1208 q 633 1304 607 1281 q 697 1328 658 1328 q 763 1304 738 1328 q 789 1244 789 1281 q 763 1184 789 1208 q 697 1160 738 1160 m 1111 1160 q 1045 1184 1071 1160 q 1019 1244 1019 1208 q 1045 1304 1019 1281 q 1111 1328 1071 1328 q 1176 1304 1150 1328 q 1201 1244 1201 1281 q 1176 1184 1201 1208 q 1111 1160 1150 1160 z "},"Ẇ":{"ha":1807,"x_min":28,"x_max":1781,"o":"m 1354 43 l 1294 43 l 1644 1042 l 1781 1042 l 1408 0 l 1246 0 l 869 988 l 939 988 l 563 0 l 399 0 l 28 1042 l 164 1042 l 513 43 l 456 43 l 832 1042 l 976 1042 l 1354 43 m 903 1160 q 837 1184 864 1160 q 810 1246 810 1208 q 837 1307 810 1282 q 903 1332 864 1332 q 971 1307 944 1332 q 997 1246 997 1282 q 971 1184 997 1208 q 903 1160 944 1160 z "},"Ẉ":{"ha":1807,"x_min":28,"x_max":1781,"o":"m 1354 43 l 1294 43 l 1644 1042 l 1781 1042 l 1408 0 l 1246 0 l 869 988 l 939 988 l 563 0 l 399 0 l 28 1042 l 164 1042 l 513 43 l 456 43 l 832 1042 l 976 1042 l 1354 43 m 903 -257 q 837 -233 864 -257 q 810 -171 810 -208 q 837 -110 810 -135 q 903 -86 864 -86 q 971 -110 944 -86 q 997 -171 997 -135 q 971 -233 997 -208 q 903 -257 944 -257 z "},"Ẁ":{"ha":1807,"x_min":28,"x_max":1781,"o":"m 1354 43 l 1294 43 l 1644 1042 l 1781 1042 l 1408 0 l 1246 0 l 869 988 l 939 988 l 563 0 l 399 0 l 28 1042 l 164 1042 l 513 43 l 456 43 l 832 1042 l 976 1042 l 1354 43 m 786 1331 l 988 1131 l 849 1131 l 628 1331 l 786 1331 z "},"Ⱳ":{"ha":1903,"x_min":29,"x_max":1854,"o":"m 1340 43 l 1282 43 l 1582 917 q 1647 1024 1607 989 q 1758 1060 1686 1060 q 1808 1055 1783 1060 q 1854 1042 1833 1050 l 1854 932 q 1820 944 1838 939 q 1783 949 1803 949 q 1735 933 1754 949 q 1701 874 1717 917 l 1394 0 l 1232 0 l 861 988 l 931 988 l 554 0 l 390 0 l 29 1042 l 165 1042 l 504 43 l 447 43 l 824 1042 l 969 1042 l 1340 43 z "},"X":{"ha":1049,"x_min":-4,"x_max":1053,"o":"m 579 508 l 579 579 l 1053 0 l 890 0 l 496 492 l 551 492 l 156 0 l -4 0 l 469 576 l 469 513 l 33 1042 l 194 1042 l 557 596 l 497 596 l 858 1042 l 1015 1042 l 579 508 z "},"Ẍ":{"ha":1049,"x_min":-4,"x_max":1053,"o":"m 579 508 l 579 579 l 1053 0 l 890 0 l 496 492 l 551 492 l 156 0 l -4 0 l 469 576 l 469 513 l 33 1042 l 194 1042 l 557 596 l 497 596 l 858 1042 l 1015 1042 l 579 508 m 318 1160 q 253 1184 279 1160 q 228 1244 228 1208 q 253 1304 228 1281 q 318 1328 279 1328 q 384 1304 358 1328 q 410 1244 410 1281 q 384 1184 410 1208 q 318 1160 358 1160 m 732 1160 q 666 1184 692 1160 q 640 1244 640 1208 q 666 1304 640 1281 q 732 1328 692 1328 q 797 1304 771 1328 q 822 1244 822 1281 q 797 1184 822 1208 q 732 1160 771 1160 z "},"Ẋ":{"ha":1049,"x_min":-4,"x_max":1053,"o":"m 579 508 l 579 579 l 1053 0 l 890 0 l 496 492 l 551 492 l 156 0 l -4 0 l 469 576 l 469 513 l 33 1042 l 194 1042 l 557 596 l 497 596 l 858 1042 l 1015 1042 l 579 508 m 524 1160 q 458 1184 485 1160 q 431 1246 431 1208 q 458 1307 431 1282 q 524 1332 485 1332 q 592 1307 565 1332 q 618 1246 618 1282 q 592 1184 618 1208 q 524 1160 565 1160 z "},"Y":{"ha":1175,"x_min":29,"x_max":1144,"o":"m 522 0 l 522 493 l 653 493 l 653 0 l 522 0 m 29 1042 l 179 1042 l 631 482 l 546 482 l 994 1042 l 1144 1042 l 629 400 l 547 399 l 29 1042 z "},"Ý":{"ha":1175,"x_min":29,"x_max":1144,"o":"m 522 0 l 522 493 l 653 493 l 653 0 l 522 0 m 29 1042 l 179 1042 l 631 482 l 546 482 l 994 1042 l 1144 1042 l 629 400 l 547 399 l 29 1042 m 686 1331 l 844 1331 l 624 1131 l 485 1131 l 686 1331 z "},"Ŷ":{"ha":1175,"x_min":29,"x_max":1144,"o":"m 522 0 l 522 493 l 653 493 l 653 0 l 522 0 m 29 1042 l 179 1042 l 631 482 l 546 482 l 994 1042 l 1144 1042 l 629 400 l 547 399 l 29 1042 m 513 1331 l 661 1331 l 864 1131 l 739 1131 l 563 1275 l 613 1275 l 435 1131 l 311 1131 l 513 1331 z "},"Ÿ":{"ha":1175,"x_min":29,"x_max":1144,"o":"m 522 0 l 522 493 l 653 493 l 653 0 l 522 0 m 29 1042 l 179 1042 l 631 482 l 546 482 l 994 1042 l 1144 1042 l 629 400 l 547 399 l 29 1042 m 381 1160 q 316 1184 342 1160 q 290 1244 290 1208 q 316 1304 290 1281 q 381 1328 342 1328 q 447 1304 421 1328 q 472 1244 472 1281 q 447 1184 472 1208 q 381 1160 421 1160 m 794 1160 q 728 1184 754 1160 q 703 1244 703 1208 q 728 1304 703 1281 q 794 1328 754 1328 q 859 1304 833 1328 q 885 1244 885 1281 q 859 1184 885 1208 q 794 1160 833 1160 z "},"Ẏ":{"ha":1175,"x_min":29,"x_max":1144,"o":"m 522 0 l 522 493 l 653 493 l 653 0 l 522 0 m 29 1042 l 179 1042 l 631 482 l 546 482 l 994 1042 l 1144 1042 l 629 400 l 547 399 l 29 1042 m 586 1160 q 520 1184 547 1160 q 493 1246 493 1208 q 520 1307 493 1282 q 586 1332 547 1332 q 654 1307 628 1332 q 681 1246 681 1282 q 654 1184 681 1208 q 586 1160 628 1160 z "},"Ỵ":{"ha":1175,"x_min":29,"x_max":1144,"o":"m 522 0 l 522 493 l 653 493 l 653 0 l 522 0 m 29 1042 l 179 1042 l 631 482 l 546 482 l 994 1042 l 1144 1042 l 629 400 l 547 399 l 29 1042 m 586 -257 q 520 -233 547 -257 q 493 -171 493 -208 q 520 -110 493 -135 q 586 -86 547 -86 q 654 -110 628 -86 q 681 -171 681 -135 q 654 -233 681 -208 q 586 -257 628 -257 z "},"Ỳ":{"ha":1175,"x_min":29,"x_max":1144,"o":"m 522 0 l 522 493 l 653 493 l 653 0 l 522 0 m 29 1042 l 179 1042 l 631 482 l 546 482 l 994 1042 l 1144 1042 l 629 400 l 547 399 l 29 1042 m 469 1331 l 671 1131 l 532 1131 l 311 1331 l 469 1331 z "},"Ƴ":{"ha":1185,"x_min":24,"x_max":1147,"o":"m 518 0 l 518 493 l 649 493 l 649 0 l 518 0 m 626 399 l 542 399 l 24 1042 l 174 1042 l 625 482 l 547 482 l 872 947 q 926 1012 900 988 q 981 1048 951 1036 q 1049 1060 1010 1060 q 1100 1055 1075 1060 q 1147 1042 1125 1050 l 1147 932 q 1104 944 1124 940 q 1064 949 1085 949 q 1010 935 1029 949 q 971 892 990 921 l 626 399 z "},"Ỷ":{"ha":1175,"x_min":29,"x_max":1144,"o":"m 522 0 l 522 493 l 653 493 l 653 0 l 522 0 m 29 1042 l 179 1042 l 631 482 l 546 482 l 994 1042 l 1144 1042 l 629 400 l 547 399 l 29 1042 m 547 1111 l 513 1174 q 611 1203 579 1185 q 643 1244 643 1221 q 617 1277 643 1267 q 544 1288 592 1288 q 481 1283 510 1288 q 422 1271 451 1278 l 422 1357 q 485 1370 447 1364 q 565 1376 522 1376 q 708 1346 657 1376 q 758 1257 758 1315 q 708 1166 758 1203 q 547 1111 657 1129 z "},"Ȳ":{"ha":1175,"x_min":29,"x_max":1144,"o":"m 522 0 l 522 493 l 653 493 l 653 0 l 522 0 m 29 1042 l 179 1042 l 631 482 l 546 482 l 994 1042 l 1144 1042 l 629 400 l 547 399 l 29 1042 m 303 1175 l 303 1268 l 872 1268 l 872 1175 l 303 1175 z "},"Ɏ":{"ha":1261,"x_min":39,"x_max":1221,"o":"m 39 867 l 1221 867 l 1221 764 l 39 764 l 39 867 m 565 0 l 565 493 l 696 493 l 696 0 l 565 0 m 71 1042 l 221 1042 l 672 482 l 588 482 l 1038 1042 l 1188 1042 l 671 400 l 589 399 l 71 1042 z "},"Ỹ":{"ha":1175,"x_min":29,"x_max":1144,"o":"m 522 0 l 522 493 l 653 493 l 653 0 l 522 0 m 29 1042 l 179 1042 l 631 482 l 546 482 l 994 1042 l 1144 1042 l 629 400 l 547 399 l 29 1042 m 282 1142 q 333 1272 289 1222 q 453 1322 376 1322 q 526 1309 489 1322 q 597 1279 563 1296 q 662 1249 631 1263 q 718 1236 693 1236 q 772 1258 751 1236 q 797 1319 792 1281 l 892 1319 q 840 1189 885 1239 q 721 1139 796 1139 q 648 1152 685 1139 q 577 1182 611 1165 q 512 1212 543 1199 q 456 1225 481 1225 q 403 1203 424 1225 q 376 1142 382 1181 l 282 1142 z "},"Z":{"ha":1046,"x_min":51,"x_max":994,"o":"m 51 0 l 51 106 l 868 986 l 938 931 l 57 931 l 57 1042 l 990 1042 l 990 938 l 174 56 l 111 111 l 994 111 l 994 0 l 51 0 z "},"Ź":{"ha":1046,"x_min":51,"x_max":994,"o":"m 51 0 l 51 106 l 868 986 l 938 931 l 57 931 l 57 1042 l 990 1042 l 990 938 l 174 56 l 111 111 l 994 111 l 994 0 l 51 0 m 622 1331 l 781 1331 l 560 1131 l 421 1131 l 622 1331 z "},"Ž":{"ha":1046,"x_min":51,"x_max":994,"o":"m 51 0 l 51 106 l 868 986 l 938 931 l 57 931 l 57 1042 l 990 1042 l 990 938 l 174 56 l 111 111 l 994 111 l 994 0 l 51 0 m 599 1131 l 450 1131 l 247 1331 l 372 1331 l 549 1186 l 499 1186 l 676 1331 l 800 1331 l 599 1131 z "},"Ẑ":{"ha":1046,"x_min":51,"x_max":994,"o":"m 51 0 l 51 106 l 868 986 l 938 931 l 57 931 l 57 1042 l 990 1042 l 990 938 l 174 56 l 111 111 l 994 111 l 994 0 l 51 0 m 449 1331 l 597 1331 l 800 1131 l 675 1131 l 499 1275 l 549 1275 l 371 1131 l 247 1131 l 449 1331 z "},"Ż":{"ha":1046,"x_min":51,"x_max":994,"o":"m 51 0 l 51 106 l 868 986 l 938 931 l 57 931 l 57 1042 l 990 1042 l 990 938 l 174 56 l 111 111 l 994 111 l 994 0 l 51 0 m 524 1160 q 458 1184 485 1160 q 431 1246 431 1208 q 458 1307 431 1282 q 524 1332 485 1332 q 592 1307 565 1332 q 618 1246 618 1282 q 592 1184 618 1208 q 524 1160 565 1160 z "},"Ẓ":{"ha":1046,"x_min":51,"x_max":994,"o":"m 51 0 l 51 106 l 868 986 l 938 931 l 57 931 l 57 1042 l 990 1042 l 990 938 l 174 56 l 111 111 l 994 111 l 994 0 l 51 0 m 522 -257 q 456 -233 483 -257 q 429 -171 429 -208 q 456 -110 429 -135 q 522 -86 483 -86 q 590 -110 564 -86 q 617 -171 617 -135 q 590 -233 617 -208 q 522 -257 564 -257 z "},"Ẕ":{"ha":1046,"x_min":51,"x_max":994,"o":"m 51 0 l 51 106 l 868 986 l 938 931 l 57 931 l 57 1042 l 990 1042 l 990 938 l 174 56 l 111 111 l 994 111 l 994 0 l 51 0 m 238 -192 l 238 -99 l 807 -99 l 807 -192 l 238 -192 z "},"Ƶ":{"ha":1060,"x_min":58,"x_max":1001,"o":"m 143 579 l 922 579 l 922 476 l 143 476 l 143 579 m 58 0 l 58 106 l 875 986 l 944 931 l 64 931 l 64 1042 l 997 1042 l 997 938 l 181 56 l 118 111 l 1001 111 l 1001 0 l 58 0 z "},"Ꞌ":{"ha":354,"x_min":108,"x_max":246,"o":"m 108 1042 l 246 1042 l 228 361 l 126 361 l 108 1042 z "},"ɪ":{"ha":749,"x_min":50,"x_max":700,"o":"m 310 0 l 310 714 l 438 714 l 438 0 l 310 0 m 50 0 l 50 90 l 700 90 l 700 0 l 50 0 m 50 692 l 50 782 l 700 782 l 700 692 l 50 692 z "},"a":{"ha":1065,"x_min":58,"x_max":978,"o":"m 847 0 l 819 296 l 854 392 l 819 486 l 847 782 l 978 782 l 942 392 l 978 0 l 847 0 m 897 392 q 803 177 867 269 q 651 33 740 85 q 453 -18 561 -18 q 249 34 338 -18 q 109 178 160 86 q 58 392 58 271 q 109 606 58 514 q 249 749 160 697 q 453 800 338 800 q 651 749 561 800 q 804 606 740 697 q 897 392 868 514 m 189 392 q 226 235 189 303 q 327 128 263 167 q 474 90 392 90 q 627 128 557 90 q 752 235 697 167 q 842 392 807 303 q 752 549 807 481 q 627 655 697 617 q 474 693 557 693 q 327 655 392 693 q 226 549 263 617 q 189 392 189 481 z "},"á":{"ha":1065,"x_min":58,"x_max":978,"o":"m 847 0 l 819 296 l 854 392 l 819 486 l 847 782 l 978 782 l 942 392 l 978 0 l 847 0 m 897 392 q 803 177 867 269 q 651 33 740 85 q 453 -18 561 -18 q 249 34 338 -18 q 109 178 160 86 q 58 392 58 271 q 109 606 58 514 q 249 749 160 697 q 453 800 338 800 q 651 749 561 800 q 804 606 740 697 q 897 392 868 514 m 189 392 q 226 235 189 303 q 327 128 263 167 q 474 90 392 90 q 627 128 557 90 q 752 235 697 167 q 842 392 807 303 q 752 549 807 481 q 627 655 697 617 q 474 693 557 693 q 327 655 392 693 q 226 549 263 617 q 189 392 189 481 m 600 1099 l 733 1099 l 563 871 l 435 871 l 600 1099 z "},"ă":{"ha":1065,"x_min":58,"x_max":978,"o":"m 847 0 l 819 296 l 854 392 l 819 486 l 847 782 l 978 782 l 942 392 l 978 0 l 847 0 m 897 392 q 803 177 867 269 q 651 33 740 85 q 453 -18 561 -18 q 249 34 338 -18 q 109 178 160 86 q 58 392 58 271 q 109 606 58 514 q 249 749 160 697 q 453 800 338 800 q 651 749 561 800 q 804 606 740 697 q 897 392 868 514 m 189 392 q 226 235 189 303 q 327 128 263 167 q 474 90 392 90 q 627 128 557 90 q 752 235 697 167 q 842 392 807 303 q 752 549 807 481 q 627 655 697 617 q 474 693 557 693 q 327 655 392 693 q 226 549 263 617 q 189 392 189 481 m 250 1096 l 357 1096 q 412 994 369 1031 q 518 957 454 957 q 626 994 583 957 q 681 1096 668 1031 l 786 1096 q 703 928 774 989 q 518 868 633 868 q 334 928 404 868 q 250 1096 264 989 z "},"ắ":{"ha":1065,"x_min":58,"x_max":978,"o":"m 847 0 l 819 296 l 854 392 l 819 486 l 847 782 l 978 782 l 942 392 l 978 0 l 847 0 m 897 392 q 803 177 867 269 q 651 33 740 85 q 453 -18 561 -18 q 249 34 338 -18 q 109 178 160 86 q 58 392 58 271 q 109 606 58 514 q 249 749 160 697 q 453 800 338 800 q 651 749 561 800 q 804 606 740 697 q 897 392 868 514 m 189 392 q 226 235 189 303 q 327 128 263 167 q 474 90 392 90 q 627 128 557 90 q 752 235 697 167 q 842 392 807 303 q 752 549 807 481 q 627 655 697 617 q 474 693 557 693 q 327 655 392 693 q 226 549 263 617 q 189 392 189 481 m 560 1311 l 692 1311 l 565 1104 l 460 1104 l 560 1311 m 250 1096 l 357 1096 q 412 994 369 1031 q 518 957 454 957 q 626 994 583 957 q 681 1096 668 1031 l 786 1096 q 703 928 774 989 q 518 868 633 868 q 334 928 404 868 q 250 1096 264 989 z "},"ặ":{"ha":1065,"x_min":58,"x_max":978,"o":"m 847 0 l 819 296 l 854 392 l 819 486 l 847 782 l 978 782 l 942 392 l 978 0 l 847 0 m 897 392 q 803 177 867 269 q 651 33 740 85 q 453 -18 561 -18 q 249 34 338 -18 q 109 178 160 86 q 58 392 58 271 q 109 606 58 514 q 249 749 160 697 q 453 800 338 800 q 651 749 561 800 q 804 606 740 697 q 897 392 868 514 m 189 392 q 226 235 189 303 q 327 128 263 167 q 474 90 392 90 q 627 128 557 90 q 752 235 697 167 q 842 392 807 303 q 752 549 807 481 q 627 655 697 617 q 474 693 557 693 q 327 655 392 693 q 226 549 263 617 q 189 392 189 481 m 519 -257 q 453 -233 481 -257 q 426 -171 426 -208 q 453 -110 426 -135 q 519 -86 481 -86 q 588 -110 561 -86 q 614 -171 614 -135 q 588 -233 614 -208 q 519 -257 561 -257 m 250 1096 l 357 1096 q 412 994 369 1031 q 518 957 454 957 q 626 994 583 957 q 681 1096 668 1031 l 786 1096 q 703 928 774 989 q 518 868 633 868 q 334 928 404 868 q 250 1096 264 989 z "},"ằ":{"ha":1065,"x_min":58,"x_max":978,"o":"m 847 0 l 819 296 l 854 392 l 819 486 l 847 782 l 978 782 l 942 392 l 978 0 l 847 0 m 897 392 q 803 177 867 269 q 651 33 740 85 q 453 -18 561 -18 q 249 34 338 -18 q 109 178 160 86 q 58 392 58 271 q 109 606 58 514 q 249 749 160 697 q 453 800 338 800 q 651 749 561 800 q 804 606 740 697 q 897 392 868 514 m 189 392 q 226 235 189 303 q 327 128 263 167 q 474 90 392 90 q 627 128 557 90 q 752 235 697 167 q 842 392 807 303 q 752 549 807 481 q 627 655 697 617 q 474 693 557 693 q 327 655 392 693 q 226 549 263 617 q 189 392 189 481 m 465 1310 l 567 1103 l 461 1103 l 333 1310 l 465 1310 m 250 1096 l 357 1096 q 412 994 369 1031 q 518 957 454 957 q 626 994 583 957 q 681 1096 668 1031 l 786 1096 q 703 928 774 989 q 518 868 633 868 q 334 928 404 868 q 250 1096 264 989 z "},"ẳ":{"ha":1065,"x_min":58,"x_max":978,"o":"m 847 0 l 819 296 l 854 392 l 819 486 l 847 782 l 978 782 l 942 392 l 978 0 l 847 0 m 897 392 q 803 177 867 269 q 651 33 740 85 q 453 -18 561 -18 q 249 34 338 -18 q 109 178 160 86 q 58 392 58 271 q 109 606 58 514 q 249 749 160 697 q 453 800 338 800 q 651 749 561 800 q 804 606 740 697 q 897 392 868 514 m 189 392 q 226 235 189 303 q 327 128 263 167 q 474 90 392 90 q 627 128 557 90 q 752 235 697 167 q 842 392 807 303 q 752 549 807 481 q 627 655 697 617 q 474 693 557 693 q 327 655 392 693 q 226 549 263 617 q 189 392 189 481 m 504 1085 l 471 1140 q 556 1219 556 1169 q 475 1269 556 1269 q 433 1267 456 1269 q 390 1258 410 1264 l 390 1340 q 440 1350 411 1346 q 500 1354 468 1354 q 622 1322 578 1354 q 665 1233 665 1290 q 624 1144 665 1182 q 504 1085 582 1107 m 250 1096 l 357 1096 q 412 994 369 1031 q 518 957 454 957 q 626 994 583 957 q 681 1096 668 1031 l 786 1096 q 703 928 774 989 q 518 868 633 868 q 334 928 404 868 q 250 1096 264 989 z "},"ẵ":{"ha":1065,"x_min":58,"x_max":978,"o":"m 847 0 l 819 296 l 854 392 l 819 486 l 847 782 l 978 782 l 942 392 l 978 0 l 847 0 m 897 392 q 803 177 867 269 q 651 33 740 85 q 453 -18 561 -18 q 249 34 338 -18 q 109 178 160 86 q 58 392 58 271 q 109 606 58 514 q 249 749 160 697 q 453 800 338 800 q 651 749 561 800 q 804 606 740 697 q 897 392 868 514 m 189 392 q 226 235 189 303 q 327 128 263 167 q 474 90 392 90 q 627 128 557 90 q 752 235 697 167 q 842 392 807 303 q 752 549 807 481 q 627 655 697 617 q 474 693 557 693 q 327 655 392 693 q 226 549 263 617 q 189 392 189 481 m 267 1142 q 311 1276 272 1225 q 421 1326 350 1326 q 479 1313 453 1326 q 528 1283 506 1300 q 572 1253 551 1267 q 614 1240 593 1240 q 658 1263 640 1240 q 682 1325 676 1286 l 771 1325 q 726 1191 765 1242 q 617 1140 686 1140 q 558 1153 585 1140 q 508 1184 531 1167 q 464 1215 485 1201 q 424 1228 443 1228 q 380 1205 397 1228 q 356 1142 363 1182 l 267 1142 m 250 1096 l 357 1096 q 412 994 369 1031 q 518 957 454 957 q 626 994 583 957 q 681 1096 668 1031 l 786 1096 q 703 928 774 989 q 518 868 633 868 q 334 928 404 868 q 250 1096 264 989 z "},"ǎ":{"ha":1065,"x_min":58,"x_max":978,"o":"m 847 0 l 819 296 l 854 392 l 819 486 l 847 782 l 978 782 l 942 392 l 978 0 l 847 0 m 897 392 q 803 177 867 269 q 651 33 740 85 q 453 -18 561 -18 q 249 34 338 -18 q 109 178 160 86 q 58 392 58 271 q 109 606 58 514 q 249 749 160 697 q 453 800 338 800 q 651 749 561 800 q 804 606 740 697 q 897 392 868 514 m 189 392 q 226 235 189 303 q 327 128 263 167 q 474 90 392 90 q 627 128 557 90 q 752 235 697 167 q 842 392 807 303 q 752 549 807 481 q 627 655 697 617 q 474 693 557 693 q 327 655 392 693 q 226 549 263 617 q 189 392 189 481 m 590 871 l 446 871 l 247 1099 l 367 1099 l 543 922 l 493 922 l 669 1099 l 789 1099 l 590 871 z "},"â":{"ha":1065,"x_min":58,"x_max":978,"o":"m 847 0 l 819 296 l 854 392 l 819 486 l 847 782 l 978 782 l 942 392 l 978 0 l 847 0 m 897 392 q 803 177 867 269 q 651 33 740 85 q 453 -18 561 -18 q 249 34 338 -18 q 109 178 160 86 q 58 392 58 271 q 109 606 58 514 q 249 749 160 697 q 453 800 338 800 q 651 749 561 800 q 804 606 740 697 q 897 392 868 514 m 189 392 q 226 235 189 303 q 327 128 263 167 q 474 90 392 90 q 627 128 557 90 q 752 235 697 167 q 842 392 807 303 q 752 549 807 481 q 627 655 697 617 q 474 693 557 693 q 327 655 392 693 q 226 549 263 617 q 189 392 189 481 m 446 1099 l 590 1099 l 789 871 l 671 871 l 493 1047 l 543 1047 l 367 871 l 247 871 l 446 1099 z "},"ấ":{"ha":1065,"x_min":58,"x_max":978,"o":"m 847 0 l 819 296 l 854 392 l 819 486 l 847 782 l 978 782 l 942 392 l 978 0 l 847 0 m 897 392 q 803 177 867 269 q 651 33 740 85 q 453 -18 561 -18 q 249 34 338 -18 q 109 178 160 86 q 58 392 58 271 q 109 606 58 514 q 249 749 160 697 q 453 800 338 800 q 651 749 561 800 q 804 606 740 697 q 897 392 868 514 m 189 392 q 226 235 189 303 q 327 128 263 167 q 474 90 392 90 q 627 128 557 90 q 752 235 697 167 q 842 392 807 303 q 752 549 807 481 q 627 655 697 617 q 474 693 557 693 q 327 655 392 693 q 226 549 263 617 q 189 392 189 481 m 799 1267 l 931 1267 l 804 1058 l 699 1058 l 799 1267 m 446 1099 l 590 1099 l 789 871 l 671 871 l 493 1047 l 543 1047 l 367 871 l 247 871 l 446 1099 z "},"ậ":{"ha":1065,"x_min":58,"x_max":978,"o":"m 847 0 l 819 296 l 854 392 l 819 486 l 847 782 l 978 782 l 942 392 l 978 0 l 847 0 m 897 392 q 803 177 867 269 q 651 33 740 85 q 453 -18 561 -18 q 249 34 338 -18 q 109 178 160 86 q 58 392 58 271 q 109 606 58 514 q 249 749 160 697 q 453 800 338 800 q 651 749 561 800 q 804 606 740 697 q 897 392 868 514 m 189 392 q 226 235 189 303 q 327 128 263 167 q 474 90 392 90 q 627 128 557 90 q 752 235 697 167 q 842 392 807 303 q 752 549 807 481 q 627 655 697 617 q 474 693 557 693 q 327 655 392 693 q 226 549 263 617 q 189 392 189 481 m 519 -257 q 453 -233 481 -257 q 426 -171 426 -208 q 453 -110 426 -135 q 519 -86 481 -86 q 588 -110 561 -86 q 614 -171 614 -135 q 588 -233 614 -208 q 519 -257 561 -257 m 446 1099 l 590 1099 l 789 871 l 671 871 l 493 1047 l 543 1047 l 367 871 l 247 871 l 446 1099 z "},"ầ":{"ha":1065,"x_min":58,"x_max":978,"o":"m 847 0 l 819 296 l 854 392 l 819 486 l 847 782 l 978 782 l 942 392 l 978 0 l 847 0 m 897 392 q 803 177 867 269 q 651 33 740 85 q 453 -18 561 -18 q 249 34 338 -18 q 109 178 160 86 q 58 392 58 271 q 109 606 58 514 q 249 749 160 697 q 453 800 338 800 q 651 749 561 800 q 804 606 740 697 q 897 392 868 514 m 189 392 q 226 235 189 303 q 327 128 263 167 q 474 90 392 90 q 627 128 557 90 q 752 235 697 167 q 842 392 807 303 q 752 549 807 481 q 627 655 697 617 q 474 693 557 693 q 327 655 392 693 q 226 549 263 617 q 189 392 189 481 m 735 1267 l 836 1058 l 731 1058 l 603 1267 l 735 1267 m 446 1099 l 590 1099 l 789 871 l 671 871 l 493 1047 l 543 1047 l 367 871 l 247 871 l 446 1099 z "},"ẩ":{"ha":1065,"x_min":58,"x_max":978,"o":"m 847 0 l 819 296 l 854 392 l 819 486 l 847 782 l 978 782 l 942 392 l 978 0 l 847 0 m 897 392 q 803 177 867 269 q 651 33 740 85 q 453 -18 561 -18 q 249 34 338 -18 q 109 178 160 86 q 58 392 58 271 q 109 606 58 514 q 249 749 160 697 q 453 800 338 800 q 651 749 561 800 q 804 606 740 697 q 897 392 868 514 m 189 392 q 226 235 189 303 q 327 128 263 167 q 474 90 392 90 q 627 128 557 90 q 752 235 697 167 q 842 392 807 303 q 752 549 807 481 q 627 655 697 617 q 474 693 557 693 q 327 655 392 693 q 226 549 263 617 q 189 392 189 481 m 747 1044 l 714 1100 q 799 1178 799 1129 q 718 1229 799 1229 q 676 1226 699 1229 q 633 1218 653 1222 l 633 1299 q 683 1310 654 1306 q 743 1314 711 1314 q 865 1282 821 1314 q 908 1192 908 1250 q 867 1103 908 1142 q 747 1044 825 1065 m 446 1099 l 590 1099 l 789 871 l 671 871 l 493 1047 l 543 1047 l 367 871 l 247 871 l 446 1099 z "},"ẫ":{"ha":1065,"x_min":58,"x_max":978,"o":"m 847 0 l 819 296 l 854 392 l 819 486 l 847 782 l 978 782 l 942 392 l 978 0 l 847 0 m 897 392 q 803 177 867 269 q 651 33 740 85 q 453 -18 561 -18 q 249 34 338 -18 q 109 178 160 86 q 58 392 58 271 q 109 606 58 514 q 249 749 160 697 q 453 800 338 800 q 651 749 561 800 q 804 606 740 697 q 897 392 868 514 m 189 392 q 226 235 189 303 q 327 128 263 167 q 474 90 392 90 q 627 128 557 90 q 752 235 697 167 q 842 392 807 303 q 752 549 807 481 q 627 655 697 617 q 474 693 557 693 q 327 655 392 693 q 226 549 263 617 q 189 392 189 481 m 267 1143 q 311 1277 272 1226 q 421 1328 350 1328 q 479 1315 453 1328 q 528 1285 506 1301 q 572 1255 551 1268 q 614 1242 593 1242 q 658 1265 640 1242 q 682 1328 676 1288 l 771 1328 q 726 1194 765 1244 q 617 1143 686 1143 q 558 1156 585 1143 q 508 1186 531 1169 q 464 1216 485 1203 q 424 1229 443 1229 q 380 1206 397 1229 q 356 1143 363 1183 l 267 1143 m 446 1099 l 590 1099 l 789 871 l 671 871 l 493 1047 l 543 1047 l 367 871 l 247 871 l 446 1099 z "},"ȁ":{"ha":1065,"x_min":58,"x_max":978,"o":"m 847 0 l 819 296 l 854 392 l 819 486 l 847 782 l 978 782 l 942 392 l 978 0 l 847 0 m 897 392 q 803 177 867 269 q 651 33 740 85 q 453 -18 561 -18 q 249 34 338 -18 q 109 178 160 86 q 58 392 58 271 q 109 606 58 514 q 249 749 160 697 q 453 800 338 800 q 651 749 561 800 q 804 606 740 697 q 897 392 868 514 m 189 392 q 226 235 189 303 q 327 128 263 167 q 474 90 392 90 q 627 128 557 90 q 752 235 697 167 q 842 392 807 303 q 752 549 807 481 q 627 655 697 617 q 474 693 557 693 q 327 655 392 693 q 226 549 263 617 q 189 392 189 481 m 556 1099 l 704 871 l 583 871 l 429 1099 l 556 1099 m 307 1099 l 456 871 l 335 871 l 181 1099 l 307 1099 z "},"ä":{"ha":1065,"x_min":58,"x_max":978,"o":"m 847 0 l 819 296 l 854 392 l 819 486 l 847 782 l 978 782 l 942 392 l 978 0 l 847 0 m 897 392 q 803 177 867 269 q 651 33 740 85 q 453 -18 561 -18 q 249 34 338 -18 q 109 178 160 86 q 58 392 58 271 q 109 606 58 514 q 249 749 160 697 q 453 800 338 800 q 651 749 561 800 q 804 606 740 697 q 897 392 868 514 m 189 392 q 226 235 189 303 q 327 128 263 167 q 474 90 392 90 q 627 128 557 90 q 752 235 697 167 q 842 392 807 303 q 752 549 807 481 q 627 655 697 617 q 474 693 557 693 q 327 655 392 693 q 226 549 263 617 q 189 392 189 481 m 314 900 q 249 924 275 900 q 224 985 224 947 q 249 1044 224 1021 q 314 1068 275 1068 q 380 1044 354 1068 q 406 985 406 1021 q 380 924 406 947 q 314 900 354 900 m 725 900 q 659 924 685 900 q 633 985 633 947 q 659 1044 633 1021 q 725 1068 685 1068 q 790 1044 764 1068 q 815 985 815 1021 q 790 924 815 947 q 725 900 764 900 z "},"ǟ":{"ha":1065,"x_min":58,"x_max":978,"o":"m 847 0 l 819 296 l 854 392 l 819 486 l 847 782 l 978 782 l 942 392 l 978 0 l 847 0 m 897 392 q 803 177 867 269 q 651 33 740 85 q 453 -18 561 -18 q 249 34 338 -18 q 109 178 160 86 q 58 392 58 271 q 109 606 58 514 q 249 749 160 697 q 453 800 338 800 q 651 749 561 800 q 804 606 740 697 q 897 392 868 514 m 189 392 q 226 235 189 303 q 327 128 263 167 q 474 90 392 90 q 627 128 557 90 q 752 235 697 167 q 842 392 807 303 q 752 549 807 481 q 627 655 697 617 q 474 693 557 693 q 327 655 392 693 q 226 549 263 617 q 189 392 189 481 m 314 900 q 249 924 275 900 q 224 985 224 947 q 249 1044 224 1021 q 314 1068 275 1068 q 380 1044 354 1068 q 406 985 406 1021 q 380 924 406 947 q 314 900 354 900 m 725 900 q 659 924 685 900 q 633 985 633 947 q 659 1044 633 1021 q 725 1068 685 1068 q 790 1044 764 1068 q 815 985 815 1021 q 790 924 815 947 q 725 900 764 900 m 233 1168 l 233 1261 l 803 1261 l 803 1168 l 233 1168 z "},"ȧ":{"ha":1065,"x_min":58,"x_max":978,"o":"m 847 0 l 819 296 l 854 392 l 819 486 l 847 782 l 978 782 l 942 392 l 978 0 l 847 0 m 897 392 q 803 177 867 269 q 651 33 740 85 q 453 -18 561 -18 q 249 34 338 -18 q 109 178 160 86 q 58 392 58 271 q 109 606 58 514 q 249 749 160 697 q 453 800 338 800 q 651 749 561 800 q 804 606 740 697 q 897 392 868 514 m 189 392 q 226 235 189 303 q 327 128 263 167 q 474 90 392 90 q 627 128 557 90 q 752 235 697 167 q 842 392 807 303 q 752 549 807 481 q 627 655 697 617 q 474 693 557 693 q 327 655 392 693 q 226 549 263 617 q 189 392 189 481 m 518 900 q 452 924 479 900 q 425 986 425 949 q 452 1047 425 1022 q 518 1071 479 1071 q 586 1047 560 1071 q 613 986 613 1022 q 586 924 613 949 q 518 900 560 900 z "},"ạ":{"ha":1065,"x_min":58,"x_max":978,"o":"m 847 0 l 819 296 l 854 392 l 819 486 l 847 782 l 978 782 l 942 392 l 978 0 l 847 0 m 897 392 q 803 177 867 269 q 651 33 740 85 q 453 -18 561 -18 q 249 34 338 -18 q 109 178 160 86 q 58 392 58 271 q 109 606 58 514 q 249 749 160 697 q 453 800 338 800 q 651 749 561 800 q 804 606 740 697 q 897 392 868 514 m 189 392 q 226 235 189 303 q 327 128 263 167 q 474 90 392 90 q 627 128 557 90 q 752 235 697 167 q 842 392 807 303 q 752 549 807 481 q 627 655 697 617 q 474 693 557 693 q 327 655 392 693 q 226 549 263 617 q 189 392 189 481 m 519 -257 q 453 -233 481 -257 q 426 -171 426 -208 q 453 -110 426 -135 q 519 -86 481 -86 q 588 -110 561 -86 q 614 -171 614 -135 q 588 -233 614 -208 q 519 -257 561 -257 z "},"ǡ":{"ha":1065,"x_min":58,"x_max":978,"o":"m 847 0 l 819 296 l 854 392 l 819 486 l 847 782 l 978 782 l 942 392 l 978 0 l 847 0 m 897 392 q 803 177 867 269 q 651 33 740 85 q 453 -18 561 -18 q 249 34 338 -18 q 109 178 160 86 q 58 392 58 271 q 109 606 58 514 q 249 749 160 697 q 453 800 338 800 q 651 749 561 800 q 804 606 740 697 q 897 392 868 514 m 189 392 q 226 235 189 303 q 327 128 263 167 q 474 90 392 90 q 627 128 557 90 q 752 235 697 167 q 842 392 807 303 q 752 549 807 481 q 627 655 697 617 q 474 693 557 693 q 327 655 392 693 q 226 549 263 617 q 189 392 189 481 m 518 900 q 452 924 479 900 q 425 986 425 949 q 452 1047 425 1022 q 518 1071 479 1071 q 586 1047 560 1071 q 613 986 613 1022 q 586 924 613 949 q 518 900 560 900 m 233 1168 l 233 1261 l 803 1261 l 803 1168 l 233 1168 z "},"à":{"ha":1065,"x_min":58,"x_max":978,"o":"m 847 0 l 819 296 l 854 392 l 819 486 l 847 782 l 978 782 l 942 392 l 978 0 l 847 0 m 897 392 q 803 177 867 269 q 651 33 740 85 q 453 -18 561 -18 q 249 34 338 -18 q 109 178 160 86 q 58 392 58 271 q 109 606 58 514 q 249 749 160 697 q 453 800 338 800 q 651 749 561 800 q 804 606 740 697 q 897 392 868 514 m 189 392 q 226 235 189 303 q 327 128 263 167 q 474 90 392 90 q 627 128 557 90 q 752 235 697 167 q 842 392 807 303 q 752 549 807 481 q 627 655 697 617 q 474 693 557 693 q 327 655 392 693 q 226 549 263 617 q 189 392 189 481 m 436 1099 l 603 871 l 475 871 l 304 1099 l 436 1099 z "},"ả":{"ha":1065,"x_min":58,"x_max":978,"o":"m 847 0 l 819 296 l 854 392 l 819 486 l 847 782 l 978 782 l 942 392 l 978 0 l 847 0 m 897 392 q 803 177 867 269 q 651 33 740 85 q 453 -18 561 -18 q 249 34 338 -18 q 109 178 160 86 q 58 392 58 271 q 109 606 58 514 q 249 749 160 697 q 453 800 338 800 q 651 749 561 800 q 804 606 740 697 q 897 392 868 514 m 189 392 q 226 235 189 303 q 327 128 263 167 q 474 90 392 90 q 627 128 557 90 q 752 235 697 167 q 842 392 807 303 q 752 549 807 481 q 627 655 697 617 q 474 693 557 693 q 327 655 392 693 q 226 549 263 617 q 189 392 189 481 m 488 851 l 454 908 q 527 944 501 921 q 553 996 553 967 q 528 1038 553 1024 q 460 1053 504 1053 q 408 1049 432 1053 q 360 1040 383 1046 l 360 1126 q 414 1138 382 1133 q 482 1142 446 1142 q 616 1107 568 1142 q 664 1011 664 1072 q 620 913 664 953 q 488 851 576 872 z "},"ȃ":{"ha":1065,"x_min":58,"x_max":978,"o":"m 847 0 l 819 296 l 854 392 l 819 486 l 847 782 l 978 782 l 942 392 l 978 0 l 847 0 m 897 392 q 803 177 867 269 q 651 33 740 85 q 453 -18 561 -18 q 249 34 338 -18 q 109 178 160 86 q 58 392 58 271 q 109 606 58 514 q 249 749 160 697 q 453 800 338 800 q 651 749 561 800 q 804 606 740 697 q 897 392 868 514 m 189 392 q 226 235 189 303 q 327 128 263 167 q 474 90 392 90 q 627 128 557 90 q 752 235 697 167 q 842 392 807 303 q 752 549 807 481 q 627 655 697 617 q 474 693 557 693 q 327 655 392 693 q 226 549 263 617 q 189 392 189 481 m 786 871 l 681 871 q 626 974 668 938 q 518 1010 583 1010 q 412 974 454 1010 q 356 871 369 938 l 250 871 q 334 1040 264 979 q 518 1100 404 1100 q 702 1040 632 1100 q 786 871 772 979 z "},"ɑ":{"ha":1065,"x_min":58,"x_max":978,"o":"m 847 0 l 819 296 l 854 392 l 819 486 l 847 782 l 978 782 l 942 392 l 978 0 l 847 0 m 897 392 q 803 177 867 269 q 651 33 740 85 q 453 -18 561 -18 q 249 34 338 -18 q 109 178 160 86 q 58 392 58 271 q 109 606 58 514 q 249 749 160 697 q 453 800 338 800 q 651 749 561 800 q 804 606 740 697 q 897 392 868 514 m 189 392 q 226 235 189 303 q 327 128 263 167 q 474 90 392 90 q 627 128 557 90 q 752 235 697 167 q 842 392 807 303 q 752 549 807 481 q 627 655 697 617 q 474 693 557 693 q 327 655 392 693 q 226 549 263 617 q 189 392 189 481 z "},"ɒ":{"ha":1065,"x_min":88,"x_max":1007,"o":"m 218 0 l 88 0 l 124 392 l 88 782 l 218 782 l 246 486 l 211 392 l 246 296 l 218 0 m 168 392 q 262 606 199 514 q 415 749 325 697 q 613 800 504 800 q 817 749 728 800 q 956 606 906 697 q 1007 392 1007 514 q 956 178 1007 271 q 817 34 906 86 q 613 -18 728 -18 q 415 33 504 -18 q 262 177 325 85 q 168 392 199 269 m 876 392 q 840 549 876 481 q 738 655 803 617 q 592 693 674 693 q 438 655 508 693 q 314 549 368 617 q 224 392 260 481 q 314 235 260 303 q 438 128 368 167 q 592 90 508 90 q 738 128 674 90 q 840 235 803 167 q 876 392 876 303 z "},"ā":{"ha":1065,"x_min":58,"x_max":978,"o":"m 847 0 l 819 296 l 854 392 l 819 486 l 847 782 l 978 782 l 942 392 l 978 0 l 847 0 m 897 392 q 803 177 867 269 q 651 33 740 85 q 453 -18 561 -18 q 249 34 338 -18 q 109 178 160 86 q 58 392 58 271 q 109 606 58 514 q 249 749 160 697 q 453 800 338 800 q 651 749 561 800 q 804 606 740 697 q 897 392 868 514 m 189 392 q 226 235 189 303 q 327 128 263 167 q 474 90 392 90 q 627 128 557 90 q 752 235 697 167 q 842 392 807 303 q 752 549 807 481 q 627 655 697 617 q 474 693 557 693 q 327 655 392 693 q 226 549 263 617 q 189 392 189 481 m 233 936 l 233 1029 l 803 1029 l 803 936 l 233 936 z "},"ą":{"ha":1065,"x_min":58,"x_max":978,"o":"m 847 0 l 819 296 l 854 392 l 819 486 l 847 782 l 978 782 l 942 392 l 978 0 l 847 0 m 897 392 q 803 177 867 269 q 651 33 740 85 q 453 -18 561 -18 q 249 34 338 -18 q 109 178 160 86 q 58 392 58 271 q 109 606 58 514 q 249 749 160 697 q 453 800 338 800 q 651 749 561 800 q 804 606 740 697 q 897 392 868 514 m 189 392 q 226 235 189 303 q 327 128 263 167 q 474 90 392 90 q 627 128 557 90 q 752 235 697 167 q 842 392 807 303 q 752 549 807 481 q 627 655 697 617 q 474 693 557 693 q 327 655 392 693 q 226 549 263 617 q 189 392 189 481 m 885 22 l 947 18 l 947 0 l 978 0 q 883 -35 926 -17 q 815 -75 840 -54 q 790 -119 790 -96 q 892 -169 790 -169 q 936 -167 913 -169 q 978 -161 960 -165 l 978 -247 q 928 -258 960 -253 q 864 -262 897 -262 q 732 -230 782 -262 q 682 -143 682 -197 q 730 -51 682 -93 q 885 22 778 -10 z "},"ẚ":{"ha":1065,"x_min":58,"x_max":978,"o":"m 847 0 l 819 296 l 854 392 l 819 486 l 847 782 l 978 782 l 942 392 l 978 0 l 847 0 m 897 392 q 803 177 867 269 q 651 33 740 85 q 453 -18 561 -18 q 249 34 338 -18 q 109 178 160 86 q 58 392 58 271 q 109 606 58 514 q 249 749 160 697 q 453 800 338 800 q 651 749 561 800 q 804 606 740 697 q 897 392 868 514 m 189 392 q 226 235 189 303 q 327 128 263 167 q 474 90 392 90 q 627 128 557 90 q 752 235 697 167 q 842 392 807 303 q 752 549 807 481 q 627 655 697 617 q 474 693 557 693 q 327 655 392 693 q 226 549 263 617 q 189 392 189 481 m 518 857 l 518 931 q 601 953 572 931 q 631 1015 631 975 q 601 1078 631 1056 q 518 1100 572 1100 l 518 1172 q 663 1129 610 1172 q 717 1015 717 1086 q 663 900 717 943 q 518 857 610 857 z "},"å":{"ha":1065,"x_min":58,"x_max":978,"o":"m 847 0 l 819 296 l 854 392 l 819 486 l 847 782 l 978 782 l 942 392 l 978 0 l 847 0 m 897 392 q 803 177 867 269 q 651 33 740 85 q 453 -18 561 -18 q 249 34 338 -18 q 109 178 160 86 q 58 392 58 271 q 109 606 58 514 q 249 749 160 697 q 453 800 338 800 q 651 749 561 800 q 804 606 740 697 q 897 392 868 514 m 189 392 q 226 235 189 303 q 327 128 263 167 q 474 90 392 90 q 627 128 557 90 q 752 235 697 167 q 842 392 807 303 q 752 549 807 481 q 627 655 697 617 q 474 693 557 693 q 327 655 392 693 q 226 549 263 617 q 189 392 189 481 m 518 857 q 374 900 428 857 q 321 1015 321 943 q 374 1129 321 1086 q 519 1172 428 1172 q 664 1129 611 1172 q 717 1015 717 1086 q 664 900 717 943 q 518 857 611 857 m 519 931 q 602 953 572 931 q 632 1015 632 975 q 602 1078 632 1056 q 519 1100 572 1100 q 436 1078 465 1100 q 407 1014 407 1056 q 436 953 407 975 q 519 931 465 931 z "},"ǻ":{"ha":1065,"x_min":58,"x_max":978,"o":"m 560 1358 l 692 1358 l 565 1151 l 460 1151 l 560 1358 m 847 0 l 819 296 l 854 392 l 819 486 l 847 782 l 978 782 l 942 392 l 978 0 l 847 0 m 897 392 q 803 177 867 269 q 651 33 740 85 q 453 -18 561 -18 q 249 34 338 -18 q 109 178 160 86 q 58 392 58 271 q 109 606 58 514 q 249 749 160 697 q 453 800 338 800 q 651 749 561 800 q 804 606 740 697 q 897 392 868 514 m 189 392 q 226 235 189 303 q 327 128 263 167 q 474 90 392 90 q 627 128 557 90 q 752 235 697 167 q 842 392 807 303 q 752 549 807 481 q 627 655 697 617 q 474 693 557 693 q 327 655 392 693 q 226 549 263 617 q 189 392 189 481 m 518 857 q 374 900 428 857 q 319 1015 319 943 q 374 1129 319 1086 q 518 1172 428 1172 q 663 1129 610 1172 q 717 1015 717 1086 q 663 900 717 943 q 518 857 610 857 m 518 931 q 601 953 572 931 q 631 1015 631 975 q 601 1078 631 1056 q 518 1100 572 1100 q 435 1078 465 1100 q 406 1015 406 1056 q 435 953 406 975 q 518 931 465 931 z "},"ḁ":{"ha":1065,"x_min":58,"x_max":978,"o":"m 847 0 l 819 296 l 854 392 l 819 486 l 847 782 l 978 782 l 942 392 l 978 0 l 847 0 m 897 392 q 803 177 867 269 q 651 33 740 85 q 453 -18 561 -18 q 249 34 338 -18 q 109 178 160 86 q 58 392 58 271 q 109 606 58 514 q 249 749 160 697 q 453 800 338 800 q 651 749 561 800 q 804 606 740 697 q 897 392 868 514 m 189 392 q 226 235 189 303 q 327 128 263 167 q 474 90 392 90 q 627 128 557 90 q 752 235 697 167 q 842 392 807 303 q 752 549 807 481 q 627 655 697 617 q 474 693 557 693 q 327 655 392 693 q 226 549 263 617 q 189 392 189 481 m 519 -374 q 376 -331 429 -374 q 322 -215 322 -287 q 376 -101 322 -144 q 521 -58 429 -58 q 665 -101 613 -58 q 718 -215 718 -144 q 665 -331 718 -287 q 519 -374 613 -374 m 521 -300 q 603 -278 574 -300 q 633 -215 633 -256 q 603 -153 633 -175 q 521 -131 574 -131 q 438 -153 467 -131 q 408 -217 408 -175 q 438 -278 408 -256 q 521 -300 467 -300 z "}}}
